<?xml version="1.0" standalone="no"?>
 <!DOCTYPE svg PUBLIC "-//W3C//DTD SVG 1.1//EN" 
 "http://www.w3.org/Graphics/SVG/1.1/DTD/svg11.dtd"> 
<svg xmlns="http://www.w3.org/2000/svg" version="1.1" 
    width="29.7002cm" height="21.0007cm" viewBox="0 0 116930 82680 ">
<title>SVG Picture created as Code Kitty Trinket m0 Breakout-F.SilkS.svg date 2018/06/11 13:16:18 </title>
  <desc>Picture generated by PCBNEW </desc>
<g style="fill:#000000; fill-opacity:1;stroke:#000000; stroke-opacity:1;
stroke-linecap:round; stroke-linejoin:round; "
 transform="translate(0 0) scale(1 1)">
</g>
<g style="fill:#000000; fill-opacity:0.0; 
stroke:#000000; stroke-width:-0.000393701; stroke-opacity:1; 
stroke-linecap:round; stroke-linejoin:round;">
</g>
<g style="fill:#000000; fill-opacity:0.0; 
stroke:#000000; stroke-width:39.3701; stroke-opacity:1; 
stroke-linecap:round; stroke-linejoin:round;">
</g>
<g style="fill:#000000; fill-opacity:0.0; 
stroke:#000000; stroke-width:59.0551; stroke-opacity:1; 
stroke-linecap:round; stroke-linejoin:round;">
<rect x="69685.9" y="65357.2" width="42519.7" height="12598.4" rx="0" />
</g>
<g style="fill:#000000; fill-opacity:0.0; 
stroke:#000000; stroke-width:39.3701; stroke-opacity:1; 
stroke-linecap:round; stroke-linejoin:round;">
</g>
<g style="fill:#000000; fill-opacity:0.0; 
stroke:#000000; stroke-width:59.0551; stroke-opacity:1; 
stroke-linecap:round; stroke-linejoin:round;">
<rect x="3937.01" y="3937.01" width="109056" height="74806" rx="0" />
</g>
<g style="fill:#000000; fill-opacity:0.0; 
stroke:#000000; stroke-width:39.3701; stroke-opacity:1; 
stroke-linecap:round; stroke-linejoin:round;">
</g>
<g style="fill:#000000; fill-opacity:0.0; 
stroke:#000000; stroke-width:59.0551; stroke-opacity:1; 
stroke-linecap:round; stroke-linejoin:round;">
<rect x="4724.41" y="4724.41" width="107481" height="73231.2" rx="0" />
</g>
<g style="fill:#000000; fill-opacity:0.0; 
stroke:#000000; stroke-width:39.3701; stroke-opacity:1; 
stroke-linecap:round; stroke-linejoin:round;">
</g>
<g style="fill:#000000; fill-opacity:0.0; 
stroke:#000000; stroke-width:59.0551; stroke-opacity:1; 
stroke-linecap:round; stroke-linejoin:round;">
<path d="M23622 4724
L23622 3937
" />
</g>
<g style="fill:#000000; fill-opacity:0.0; 
stroke:#000000; stroke-width:39.3701; stroke-opacity:1; 
stroke-linecap:round; stroke-linejoin:round;">
</g>
<g style="fill:#000000; fill-opacity:0.0; 
stroke:#000000; stroke-width:59.0551; stroke-opacity:1; 
stroke-linecap:round; stroke-linejoin:round;">
<path d="M43307 4724
L43307 3937
" />
</g>
<g style="fill:#000000; fill-opacity:0.0; 
stroke:#000000; stroke-width:39.3701; stroke-opacity:1; 
stroke-linecap:round; stroke-linejoin:round;">
</g>
<g style="fill:#000000; fill-opacity:0.0; 
stroke:#000000; stroke-width:59.0551; stroke-opacity:1; 
stroke-linecap:round; stroke-linejoin:round;">
<path d="M62992 4724
L62992 3937
" />
</g>
<g style="fill:#000000; fill-opacity:0.0; 
stroke:#000000; stroke-width:39.3701; stroke-opacity:1; 
stroke-linecap:round; stroke-linejoin:round;">
</g>
<g style="fill:#000000; fill-opacity:0.0; 
stroke:#000000; stroke-width:59.0551; stroke-opacity:1; 
stroke-linecap:round; stroke-linejoin:round;">
<path d="M82677 4724
L82677 3937
" />
</g>
<g style="fill:#000000; fill-opacity:0.0; 
stroke:#000000; stroke-width:39.3701; stroke-opacity:1; 
stroke-linecap:round; stroke-linejoin:round;">
</g>
<g style="fill:#000000; fill-opacity:0.0; 
stroke:#000000; stroke-width:59.0551; stroke-opacity:1; 
stroke-linecap:round; stroke-linejoin:round;">
<path d="M102362 4724
L102362 3937
" />
</g>
<g style="fill:#000000; fill-opacity:0.0; 
stroke:#000000; stroke-width:39.3701; stroke-opacity:1; 
stroke-linecap:round; stroke-linejoin:round;">
</g>
<g style="fill:#000000; fill-opacity:0.0; 
stroke:#000000; stroke-width:59.0551; stroke-opacity:1; 
stroke-linecap:round; stroke-linejoin:round;">
<path d="M14169 4562
L13877 4562
" />
<path d="M14023 4562
L14023 4050
L13974 4123
L13925 4172
L13877 4196
" />
</g>
<g style="fill:#000000; fill-opacity:0.0; 
stroke:#000000; stroke-width:39.3701; stroke-opacity:1; 
stroke-linecap:round; stroke-linejoin:round;">
</g>
<g style="fill:#000000; fill-opacity:0.0; 
stroke:#000000; stroke-width:59.0551; stroke-opacity:1; 
stroke-linecap:round; stroke-linejoin:round;">
<path d="M33562 4099
L33586 4074
L33635 4050
L33757 4050
L33805 4074
L33830 4099
L33854 4147
L33854 4196
L33830 4269
L33537 4562
L33854 4562
" />
</g>
<g style="fill:#000000; fill-opacity:0.0; 
stroke:#000000; stroke-width:39.3701; stroke-opacity:1; 
stroke-linecap:round; stroke-linejoin:round;">
</g>
<g style="fill:#000000; fill-opacity:0.0; 
stroke:#000000; stroke-width:59.0551; stroke-opacity:1; 
stroke-linecap:round; stroke-linejoin:round;">
<path d="M53222 4050
L53539 4050
L53368 4245
L53442 4245
L53490 4269
L53515 4294
L53539 4342
L53539 4464
L53515 4513
L53490 4537
L53442 4562
L53295 4562
L53247 4537
L53222 4513
" />
</g>
<g style="fill:#000000; fill-opacity:0.0; 
stroke:#000000; stroke-width:39.3701; stroke-opacity:1; 
stroke-linecap:round; stroke-linejoin:round;">
</g>
<g style="fill:#000000; fill-opacity:0.0; 
stroke:#000000; stroke-width:59.0551; stroke-opacity:1; 
stroke-linecap:round; stroke-linejoin:round;">
<path d="M73175 4221
L73175 4562
" />
<path d="M73053 4026
L72932 4391
L73248 4391
" />
</g>
<g style="fill:#000000; fill-opacity:0.0; 
stroke:#000000; stroke-width:39.3701; stroke-opacity:1; 
stroke-linecap:round; stroke-linejoin:round;">
</g>
<g style="fill:#000000; fill-opacity:0.0; 
stroke:#000000; stroke-width:59.0551; stroke-opacity:1; 
stroke-linecap:round; stroke-linejoin:round;">
<path d="M92885 4050
L92641 4050
L92617 4294
L92641 4269
L92690 4245
L92812 4245
L92860 4269
L92885 4294
L92909 4342
L92909 4464
L92885 4513
L92860 4537
L92812 4562
L92690 4562
L92641 4537
L92617 4513
" />
</g>
<g style="fill:#000000; fill-opacity:0.0; 
stroke:#000000; stroke-width:39.3701; stroke-opacity:1; 
stroke-linecap:round; stroke-linejoin:round;">
</g>
<g style="fill:#000000; fill-opacity:0.0; 
stroke:#000000; stroke-width:59.0551; stroke-opacity:1; 
stroke-linecap:round; stroke-linejoin:round;">
<path d="M112545 4050
L112448 4050
L112399 4074
L112375 4099
L112326 4172
L112302 4269
L112302 4464
L112326 4513
L112350 4537
L112399 4562
L112497 4562
L112545 4537
L112570 4513
L112594 4464
L112594 4342
L112570 4294
L112545 4269
L112497 4245
L112399 4245
L112350 4269
L112326 4294
L112302 4342
" />
</g>
<g style="fill:#000000; fill-opacity:0.0; 
stroke:#000000; stroke-width:39.3701; stroke-opacity:1; 
stroke-linecap:round; stroke-linejoin:round;">
</g>
<g style="fill:#000000; fill-opacity:0.0; 
stroke:#000000; stroke-width:59.0551; stroke-opacity:1; 
stroke-linecap:round; stroke-linejoin:round;">
<path d="M23622 77955
L23622 78742
" />
</g>
<g style="fill:#000000; fill-opacity:0.0; 
stroke:#000000; stroke-width:39.3701; stroke-opacity:1; 
stroke-linecap:round; stroke-linejoin:round;">
</g>
<g style="fill:#000000; fill-opacity:0.0; 
stroke:#000000; stroke-width:59.0551; stroke-opacity:1; 
stroke-linecap:round; stroke-linejoin:round;">
<path d="M43307 77955
L43307 78742
" />
</g>
<g style="fill:#000000; fill-opacity:0.0; 
stroke:#000000; stroke-width:39.3701; stroke-opacity:1; 
stroke-linecap:round; stroke-linejoin:round;">
</g>
<g style="fill:#000000; fill-opacity:0.0; 
stroke:#000000; stroke-width:59.0551; stroke-opacity:1; 
stroke-linecap:round; stroke-linejoin:round;">
<path d="M62992 77955
L62992 78742
" />
</g>
<g style="fill:#000000; fill-opacity:0.0; 
stroke:#000000; stroke-width:39.3701; stroke-opacity:1; 
stroke-linecap:round; stroke-linejoin:round;">
</g>
<g style="fill:#000000; fill-opacity:0.0; 
stroke:#000000; stroke-width:59.0551; stroke-opacity:1; 
stroke-linecap:round; stroke-linejoin:round;">
<path d="M82677 77955
L82677 78742
" />
</g>
<g style="fill:#000000; fill-opacity:0.0; 
stroke:#000000; stroke-width:39.3701; stroke-opacity:1; 
stroke-linecap:round; stroke-linejoin:round;">
</g>
<g style="fill:#000000; fill-opacity:0.0; 
stroke:#000000; stroke-width:59.0551; stroke-opacity:1; 
stroke-linecap:round; stroke-linejoin:round;">
<path d="M102362 77955
L102362 78742
" />
</g>
<g style="fill:#000000; fill-opacity:0.0; 
stroke:#000000; stroke-width:39.3701; stroke-opacity:1; 
stroke-linecap:round; stroke-linejoin:round;">
</g>
<g style="fill:#000000; fill-opacity:0.0; 
stroke:#000000; stroke-width:59.0551; stroke-opacity:1; 
stroke-linecap:round; stroke-linejoin:round;">
<path d="M14169 78580
L13877 78580
" />
<path d="M14023 78580
L14023 78069
L13974 78142
L13925 78190
L13877 78215
" />
</g>
<g style="fill:#000000; fill-opacity:0.0; 
stroke:#000000; stroke-width:39.3701; stroke-opacity:1; 
stroke-linecap:round; stroke-linejoin:round;">
</g>
<g style="fill:#000000; fill-opacity:0.0; 
stroke:#000000; stroke-width:59.0551; stroke-opacity:1; 
stroke-linecap:round; stroke-linejoin:round;">
<path d="M33562 78117
L33586 78093
L33635 78069
L33757 78069
L33805 78093
L33830 78117
L33854 78166
L33854 78215
L33830 78288
L33537 78580
L33854 78580
" />
</g>
<g style="fill:#000000; fill-opacity:0.0; 
stroke:#000000; stroke-width:39.3701; stroke-opacity:1; 
stroke-linecap:round; stroke-linejoin:round;">
</g>
<g style="fill:#000000; fill-opacity:0.0; 
stroke:#000000; stroke-width:59.0551; stroke-opacity:1; 
stroke-linecap:round; stroke-linejoin:round;">
<path d="M53222 78069
L53539 78069
L53368 78263
L53442 78263
L53490 78288
L53515 78312
L53539 78361
L53539 78483
L53515 78532
L53490 78556
L53442 78580
L53295 78580
L53247 78556
L53222 78532
" />
</g>
<g style="fill:#000000; fill-opacity:0.0; 
stroke:#000000; stroke-width:39.3701; stroke-opacity:1; 
stroke-linecap:round; stroke-linejoin:round;">
</g>
<g style="fill:#000000; fill-opacity:0.0; 
stroke:#000000; stroke-width:59.0551; stroke-opacity:1; 
stroke-linecap:round; stroke-linejoin:round;">
<path d="M73175 78239
L73175 78580
" />
<path d="M73053 78044
L72932 78410
L73248 78410
" />
</g>
<g style="fill:#000000; fill-opacity:0.0; 
stroke:#000000; stroke-width:39.3701; stroke-opacity:1; 
stroke-linecap:round; stroke-linejoin:round;">
</g>
<g style="fill:#000000; fill-opacity:0.0; 
stroke:#000000; stroke-width:59.0551; stroke-opacity:1; 
stroke-linecap:round; stroke-linejoin:round;">
<path d="M92885 78069
L92641 78069
L92617 78312
L92641 78288
L92690 78263
L92812 78263
L92860 78288
L92885 78312
L92909 78361
L92909 78483
L92885 78532
L92860 78556
L92812 78580
L92690 78580
L92641 78556
L92617 78532
" />
</g>
<g style="fill:#000000; fill-opacity:0.0; 
stroke:#000000; stroke-width:39.3701; stroke-opacity:1; 
stroke-linecap:round; stroke-linejoin:round;">
</g>
<g style="fill:#000000; fill-opacity:0.0; 
stroke:#000000; stroke-width:59.0551; stroke-opacity:1; 
stroke-linecap:round; stroke-linejoin:round;">
<path d="M112545 78069
L112448 78069
L112399 78093
L112375 78117
L112326 78190
L112302 78288
L112302 78483
L112326 78532
L112350 78556
L112399 78580
L112497 78580
L112545 78556
L112570 78532
L112594 78483
L112594 78361
L112570 78312
L112545 78288
L112497 78263
L112399 78263
L112350 78288
L112326 78312
L112302 78361
" />
</g>
<g style="fill:#000000; fill-opacity:0.0; 
stroke:#000000; stroke-width:39.3701; stroke-opacity:1; 
stroke-linecap:round; stroke-linejoin:round;">
</g>
<g style="fill:#000000; fill-opacity:0.0; 
stroke:#000000; stroke-width:59.0551; stroke-opacity:1; 
stroke-linecap:round; stroke-linejoin:round;">
<path d="M3937 23622
L4724 23622
" />
</g>
<g style="fill:#000000; fill-opacity:0.0; 
stroke:#000000; stroke-width:39.3701; stroke-opacity:1; 
stroke-linecap:round; stroke-linejoin:round;">
</g>
<g style="fill:#000000; fill-opacity:0.0; 
stroke:#000000; stroke-width:59.0551; stroke-opacity:1; 
stroke-linecap:round; stroke-linejoin:round;">
<path d="M3937 43307
L4724 43307
" />
</g>
<g style="fill:#000000; fill-opacity:0.0; 
stroke:#000000; stroke-width:39.3701; stroke-opacity:1; 
stroke-linecap:round; stroke-linejoin:round;">
</g>
<g style="fill:#000000; fill-opacity:0.0; 
stroke:#000000; stroke-width:59.0551; stroke-opacity:1; 
stroke-linecap:round; stroke-linejoin:round;">
<path d="M3937 62992
L4724 62992
" />
</g>
<g style="fill:#000000; fill-opacity:0.0; 
stroke:#000000; stroke-width:39.3701; stroke-opacity:1; 
stroke-linecap:round; stroke-linejoin:round;">
</g>
<g style="fill:#000000; fill-opacity:0.0; 
stroke:#000000; stroke-width:59.0551; stroke-opacity:1; 
stroke-linecap:round; stroke-linejoin:round;">
<path d="M4208 13864
L4452 13864
" />
<path d="M4160 14011
L4330 13499
L4501 14011
" />
</g>
<g style="fill:#000000; fill-opacity:0.0; 
stroke:#000000; stroke-width:39.3701; stroke-opacity:1; 
stroke-linecap:round; stroke-linejoin:round;">
</g>
<g style="fill:#000000; fill-opacity:0.0; 
stroke:#000000; stroke-width:59.0551; stroke-opacity:1; 
stroke-linecap:round; stroke-linejoin:round;">
<path d="M4367 33428
L4440 33452
L4464 33476
L4489 33525
L4489 33598
L4464 33647
L4440 33671
L4391 33696
L4196 33696
L4196 33184
L4367 33184
L4416 33208
L4440 33233
L4464 33281
L4464 33330
L4440 33379
L4416 33403
L4367 33428
L4196 33428
" />
</g>
<g style="fill:#000000; fill-opacity:0.0; 
stroke:#000000; stroke-width:39.3701; stroke-opacity:1; 
stroke-linecap:round; stroke-linejoin:round;">
</g>
<g style="fill:#000000; fill-opacity:0.0; 
stroke:#000000; stroke-width:59.0551; stroke-opacity:1; 
stroke-linecap:round; stroke-linejoin:round;">
<path d="M4489 53332
L4464 53356
L4391 53381
L4342 53381
L4269 53356
L4221 53308
L4196 53259
L4172 53161
L4172 53088
L4196 52991
L4221 52942
L4269 52893
L4342 52869
L4391 52869
L4464 52893
L4489 52918
" />
</g>
<g style="fill:#000000; fill-opacity:0.0; 
stroke:#000000; stroke-width:39.3701; stroke-opacity:1; 
stroke-linecap:round; stroke-linejoin:round;">
</g>
<g style="fill:#000000; fill-opacity:0.0; 
stroke:#000000; stroke-width:59.0551; stroke-opacity:1; 
stroke-linecap:round; stroke-linejoin:round;">
<path d="M4196 73066
L4196 72554
L4318 72554
L4391 72578
L4440 72627
L4464 72676
L4489 72773
L4489 72846
L4464 72944
L4440 72993
L4391 73041
L4318 73066
L4196 73066
" />
</g>
<g style="fill:#000000; fill-opacity:0.0; 
stroke:#000000; stroke-width:39.3701; stroke-opacity:1; 
stroke-linecap:round; stroke-linejoin:round;">
</g>
<g style="fill:#000000; fill-opacity:0.0; 
stroke:#000000; stroke-width:59.0551; stroke-opacity:1; 
stroke-linecap:round; stroke-linejoin:round;">
<path d="M112992 23622
L112205 23622
" />
</g>
<g style="fill:#000000; fill-opacity:0.0; 
stroke:#000000; stroke-width:39.3701; stroke-opacity:1; 
stroke-linecap:round; stroke-linejoin:round;">
</g>
<g style="fill:#000000; fill-opacity:0.0; 
stroke:#000000; stroke-width:59.0551; stroke-opacity:1; 
stroke-linecap:round; stroke-linejoin:round;">
<path d="M112992 43307
L112205 43307
" />
</g>
<g style="fill:#000000; fill-opacity:0.0; 
stroke:#000000; stroke-width:39.3701; stroke-opacity:1; 
stroke-linecap:round; stroke-linejoin:round;">
</g>
<g style="fill:#000000; fill-opacity:0.0; 
stroke:#000000; stroke-width:59.0551; stroke-opacity:1; 
stroke-linecap:round; stroke-linejoin:round;">
<path d="M112992 62992
L112205 62992
" />
</g>
<g style="fill:#000000; fill-opacity:0.0; 
stroke:#000000; stroke-width:39.3701; stroke-opacity:1; 
stroke-linecap:round; stroke-linejoin:round;">
</g>
<g style="fill:#000000; fill-opacity:0.0; 
stroke:#000000; stroke-width:59.0551; stroke-opacity:1; 
stroke-linecap:round; stroke-linejoin:round;">
<path d="M112477 13864
L112721 13864
" />
<path d="M112428 14011
L112599 13499
L112769 14011
" />
</g>
<g style="fill:#000000; fill-opacity:0.0; 
stroke:#000000; stroke-width:39.3701; stroke-opacity:1; 
stroke-linecap:round; stroke-linejoin:round;">
</g>
<g style="fill:#000000; fill-opacity:0.0; 
stroke:#000000; stroke-width:59.0551; stroke-opacity:1; 
stroke-linecap:round; stroke-linejoin:round;">
<path d="M112635 33428
L112708 33452
L112733 33476
L112757 33525
L112757 33598
L112733 33647
L112708 33671
L112660 33696
L112465 33696
L112465 33184
L112635 33184
L112684 33208
L112708 33233
L112733 33281
L112733 33330
L112708 33379
L112684 33403
L112635 33428
L112465 33428
" />
</g>
<g style="fill:#000000; fill-opacity:0.0; 
stroke:#000000; stroke-width:39.3701; stroke-opacity:1; 
stroke-linecap:round; stroke-linejoin:round;">
</g>
<g style="fill:#000000; fill-opacity:0.0; 
stroke:#000000; stroke-width:59.0551; stroke-opacity:1; 
stroke-linecap:round; stroke-linejoin:round;">
<path d="M112757 53332
L112733 53356
L112660 53381
L112611 53381
L112538 53356
L112489 53308
L112465 53259
L112440 53161
L112440 53088
L112465 52991
L112489 52942
L112538 52893
L112611 52869
L112660 52869
L112733 52893
L112757 52918
" />
</g>
<g style="fill:#000000; fill-opacity:0.0; 
stroke:#000000; stroke-width:39.3701; stroke-opacity:1; 
stroke-linecap:round; stroke-linejoin:round;">
</g>
<g style="fill:#000000; fill-opacity:0.0; 
stroke:#000000; stroke-width:59.0551; stroke-opacity:1; 
stroke-linecap:round; stroke-linejoin:round;">
<path d="M112465 73066
L112465 72554
L112587 72554
L112660 72578
L112708 72627
L112733 72676
L112757 72773
L112757 72846
L112733 72944
L112708 72993
L112660 73041
L112587 73066
L112465 73066
" />
</g>
<g style="fill:#000000; fill-opacity:0.0; 
stroke:#000000; stroke-width:39.3701; stroke-opacity:1; 
stroke-linecap:round; stroke-linejoin:round;">
</g>
<g style="fill:#000000; fill-opacity:0.0; 
stroke:#000000; stroke-width:59.0551; stroke-opacity:1; 
stroke-linecap:round; stroke-linejoin:round;">
<path d="M78881 76293
L78881 75703
L79022 75703
L79106 75731
L79162 75787
L79190 75843
L79219 75956
L79219 76040
L79190 76153
L79162 76209
L79106 76265
L79022 76293
L78881 76293
" />
<path d="M79725 76293
L79725 75984
L79697 75928
L79640 75899
L79528 75899
L79472 75928
" />
<path d="M79725 76265
L79669 76293
L79528 76293
L79472 76265
L79444 76209
L79444 76153
L79472 76096
L79528 76068
L79669 76068
L79725 76040
" />
<path d="M79922 75899
L80147 75899
" />
<path d="M80006 75703
L80006 76209
L80034 76265
L80090 76293
L80147 76293
" />
<path d="M80568 76265
L80512 76293
L80400 76293
L80343 76265
L80315 76209
L80315 75984
L80343 75928
L80400 75899
L80512 75899
L80568 75928
L80597 75984
L80597 76040
L80315 76096
" />
<path d="M80850 76237
L80878 76265
L80850 76293
L80822 76265
L80850 76237
L80850 76293
" />
<path d="M80850 75928
L80878 75956
L80850 75984
L80822 75956
L80850 75928
L80850 75984
" />
</g>
<g style="fill:#000000; fill-opacity:0.0; 
stroke:#000000; stroke-width:39.3701; stroke-opacity:1; 
stroke-linecap:round; stroke-linejoin:round;">
</g>
<g style="fill:#000000; fill-opacity:0.0; 
stroke:#000000; stroke-width:59.0551; stroke-opacity:1; 
stroke-linecap:round; stroke-linejoin:round;">
<path d="M69685 76577
L112205 76577
" />
</g>
<g style="fill:#000000; fill-opacity:0.0; 
stroke:#000000; stroke-width:39.3701; stroke-opacity:1; 
stroke-linecap:round; stroke-linejoin:round;">
</g>
<g style="fill:#000000; fill-opacity:0.0; 
stroke:#000000; stroke-width:59.0551; stroke-opacity:1; 
stroke-linecap:round; stroke-linejoin:round;">
<path d="M70220 77395
L70220 76805
" />
<path d="M70557 77395
L70304 77058
" />
<path d="M70557 76805
L70220 77142
" />
<path d="M70810 77395
L70810 77002
" />
<path d="M70810 76805
L70782 76833
L70810 76861
L70838 76833
L70810 76805
L70810 76861
" />
<path d="M71429 77339
L71401 77367
L71316 77395
L71260 77395
L71176 77367
L71120 77311
L71091 77255
L71063 77142
L71063 77058
L71091 76946
L71120 76889
L71176 76833
L71260 76805
L71316 76805
L71401 76833
L71429 76861
" />
<path d="M71935 77395
L71935 77086
L71907 77030
L71851 77002
L71738 77002
L71682 77030
" />
<path d="M71935 77367
L71879 77395
L71738 77395
L71682 77367
L71654 77311
L71654 77255
L71682 77199
L71738 77171
L71879 77171
L71935 77142
" />
<path d="M72469 77395
L72469 76805
" />
<path d="M72469 77367
L72413 77395
L72301 77395
L72244 77367
L72216 77339
L72188 77283
L72188 77114
L72216 77058
L72244 77030
L72301 77002
L72413 77002
L72469 77030
" />
<path d="M73201 77086
L73397 77086
" />
<path d="M73482 77395
L73201 77395
L73201 76805
L73482 76805
" />
<path d="M73735 77339
L73763 77367
L73735 77395
L73707 77367
L73735 77339
L73735 77395
" />
<path d="M74016 77395
L74016 76805
L74157 76805
L74241 76833
L74297 76889
L74325 76946
L74354 77058
L74354 77142
L74325 77255
L74297 77311
L74241 77367
L74157 77395
L74016 77395
" />
<path d="M74607 77339
L74635 77367
L74607 77395
L74579 77367
L74607 77339
L74607 77395
" />
<path d="M74860 77227
L75141 77227
" />
<path d="M74804 77395
L75000 76805
L75197 77395
" />
<path d="M75394 77339
L75422 77367
L75394 77395
L75366 77367
L75394 77339
L75394 77395
" />
<path d="M76575 77395
L76575 76805
" />
<path d="M76631 77171
L76800 77395
" />
<path d="M76800 77002
L76575 77227
" />
<path d="M77053 77395
L77053 77002
" />
<path d="M77053 76805
L77025 76833
L77053 76861
L77081 76833
L77053 76805
L77053 76861
" />
<path d="M77588 77367
L77531 77395
L77419 77395
L77363 77367
L77334 77339
L77306 77283
L77306 77114
L77334 77058
L77363 77030
L77419 77002
L77531 77002
L77588 77030
" />
<path d="M78094 77395
L78094 77086
L78066 77030
L78009 77002
L77897 77002
L77841 77030
" />
<path d="M78094 77367
L78037 77395
L77897 77395
L77841 77367
L77813 77311
L77813 77255
L77841 77199
L77897 77171
L78037 77171
L78094 77142
" />
<path d="M78628 77395
L78628 76805
" />
<path d="M78628 77367
L78572 77395
L78459 77395
L78403 77367
L78375 77339
L78347 77283
L78347 77114
L78375 77058
L78403 77030
L78459 77002
L78572 77002
L78628 77030
" />
<path d="M79612 77002
L79612 77395
" />
<path d="M79472 76777
L79331 77199
L79697 77199
" />
<path d="M79922 77339
L79950 77367
L79922 77395
L79894 77367
L79922 77339
L79922 77395
" />
<path d="M80315 76805
L80372 76805
L80428 76833
L80456 76861
L80484 76917
L80512 77030
L80512 77171
L80484 77283
L80456 77339
L80428 77367
L80372 77395
L80315 77395
L80259 77367
L80231 77339
L80203 77283
L80175 77171
L80175 77030
L80203 76917
L80231 76861
L80259 76833
L80315 76805
" />
<path d="M80765 77339
L80793 77367
L80765 77395
L80737 77367
L80765 77339
L80765 77395
" />
<path d="M80990 76805
L81384 76805
L81131 77395
" />
</g>
<g style="fill:#000000; fill-opacity:0.0; 
stroke:#000000; stroke-width:39.3701; stroke-opacity:1; 
stroke-linecap:round; stroke-linejoin:round;">
</g>
<g style="fill:#000000; fill-opacity:0.0; 
stroke:#000000; stroke-width:59.0551; stroke-opacity:1; 
stroke-linecap:round; stroke-linejoin:round;">
<path d="M69685 75396
L112205 75396
" />
</g>
<g style="fill:#000000; fill-opacity:0.0; 
stroke:#000000; stroke-width:39.3701; stroke-opacity:1; 
stroke-linecap:round; stroke-linejoin:round;">
</g>
<g style="fill:#000000; fill-opacity:0.0; 
stroke:#000000; stroke-width:118.11; stroke-opacity:1; 
stroke-linecap:round; stroke-linejoin:round;">
<path d="M104022 76293
L103825 76012
" />
<path d="M103684 76293
L103684 75703
L103909 75703
L103965 75731
L103994 75759
L104022 75815
L104022 75899
L103994 75956
L103965 75984
L103909 76012
L103684 76012
" />
<path d="M104500 76265
L104444 76293
L104331 76293
L104275 76265
L104247 76209
L104247 75984
L104275 75928
L104331 75899
L104444 75899
L104500 75928
L104528 75984
L104528 76040
L104247 76096
" />
<path d="M104725 75899
L104865 76293
L105006 75899
" />
<path d="M105231 76237
L105259 76265
L105231 76293
L105203 76265
L105231 76237
L105231 76293
" />
<path d="M105231 75928
L105259 75956
L105231 75984
L105203 75956
L105231 75928
L105231 75984
" />
</g>
<g style="fill:#000000; fill-opacity:0.0; 
stroke:#000000; stroke-width:39.3701; stroke-opacity:1; 
stroke-linecap:round; stroke-linejoin:round;">
</g>
<g style="fill:#000000; fill-opacity:0.0; 
stroke:#000000; stroke-width:59.0551; stroke-opacity:1; 
stroke-linecap:round; stroke-linejoin:round;">
<path d="M70192 76265
L70276 76293
L70417 76293
L70473 76265
L70501 76237
L70529 76181
L70529 76124
L70501 76068
L70473 76040
L70417 76012
L70304 75984
L70248 75956
L70220 75928
L70192 75871
L70192 75815
L70220 75759
L70248 75731
L70304 75703
L70445 75703
L70529 75731
" />
<path d="M70782 76293
L70782 75899
" />
<path d="M70782 75703
L70754 75731
L70782 75759
L70810 75731
L70782 75703
L70782 75759
" />
<path d="M71007 75899
L71316 75899
L71007 76293
L71316 76293
" />
<path d="M71766 76265
L71710 76293
L71598 76293
L71541 76265
L71513 76209
L71513 75984
L71541 75928
L71598 75899
L71710 75899
L71766 75928
L71795 75984
L71795 76040
L71513 76096
" />
<path d="M72048 76237
L72076 76265
L72048 76293
L72019 76265
L72048 76237
L72048 76293
" />
<path d="M72048 75928
L72076 75956
L72048 75984
L72019 75956
L72048 75928
L72048 75984
" />
<path d="M72751 76124
L73032 76124
" />
<path d="M72694 76293
L72891 75703
L73088 76293
" />
<path d="M73538 75899
L73538 76293
" />
<path d="M73397 75674
L73257 76096
L73622 76096
" />
</g>
<g style="fill:#000000; fill-opacity:0.0; 
stroke:#000000; stroke-width:39.3701; stroke-opacity:1; 
stroke-linecap:round; stroke-linejoin:round;">
</g>
<g style="fill:#000000; fill-opacity:0.0; 
stroke:#000000; stroke-width:59.0551; stroke-opacity:1; 
stroke-linecap:round; stroke-linejoin:round;">
<path d="M103684 77395
L103684 76805
" />
<path d="M104219 77395
L104219 76805
" />
<path d="M104219 77367
L104162 77395
L104050 77395
L103994 77367
L103965 77339
L103937 77283
L103937 77114
L103965 77058
L103994 77030
L104050 77002
L104162 77002
L104219 77030
" />
<path d="M104500 77339
L104528 77367
L104500 77395
L104472 77367
L104500 77339
L104500 77395
" />
<path d="M104500 77030
L104528 77058
L104500 77086
L104472 77058
L104500 77030
L104500 77086
" />
<path d="M105540 77395
L105203 77395
" />
<path d="M105372 77395
L105372 76805
L105315 76889
L105259 76946
L105203 76974
" />
<path d="M106215 76777
L105709 77536
" />
<path d="M106721 77395
L106384 77395
" />
<path d="M106553 77395
L106553 76805
L106496 76889
L106440 76946
L106384 76974
" />
</g>
<g style="fill:#000000; fill-opacity:0.0; 
stroke:#000000; stroke-width:39.3701; stroke-opacity:1; 
stroke-linecap:round; stroke-linejoin:round;">
</g>
<g style="fill:#000000; fill-opacity:0.0; 
stroke:#000000; stroke-width:59.0551; stroke-opacity:1; 
stroke-linecap:round; stroke-linejoin:round;">
<path d="M69685 73821
L112205 73821
" />
</g>
<g style="fill:#000000; fill-opacity:0.0; 
stroke:#000000; stroke-width:39.3701; stroke-opacity:1; 
stroke-linecap:round; stroke-linejoin:round;">
</g>
<g style="fill:#000000; fill-opacity:0.0; 
stroke:#000000; stroke-width:157.48; stroke-opacity:1; 
stroke-linecap:round; stroke-linejoin:round;">
<path d="M70257 74099
L70707 74099
" />
<path d="M70384 74886
L70482 74099
" />
<path d="M70871 74886
L70937 74361
" />
<path d="M70970 74099
L70927 74136
L70960 74174
L71002 74136
L70970 74099
L70960 74174
" />
<path d="M71199 74361
L71499 74361
" />
<path d="M71345 74099
L71260 74774
L71288 74849
L71359 74886
L71434 74886
" />
<path d="M71809 74886
L71738 74849
L71710 74774
L71795 74099
" />
<path d="M72413 74849
L72334 74886
L72184 74886
L72113 74849
L72085 74774
L72123 74474
L72169 74399
L72249 74361
L72399 74361
L72469 74399
L72498 74474
L72488 74549
L72104 74624
" />
<path d="M72793 74811
L72826 74849
L72783 74886
L72751 74849
L72793 74811
L72783 74886
" />
<path d="M72844 74399
L72877 74436
L72835 74474
L72802 74436
L72844 74399
L72835 74474
" />
</g>
<g style="fill:#000000; fill-opacity:0.0; 
stroke:#000000; stroke-width:39.3701; stroke-opacity:1; 
stroke-linecap:round; stroke-linejoin:round;">
</g>
<g style="fill:#000000; fill-opacity:0.0; 
stroke:#000000; stroke-width:59.0551; stroke-opacity:1; 
stroke-linecap:round; stroke-linejoin:round;">
<path d="M70417 73070
L70220 73070
" />
<path d="M70220 73380
L70220 72789
L70501 72789
" />
<path d="M70726 73380
L70726 72986
" />
<path d="M70726 72789
L70698 72817
L70726 72845
L70754 72817
L70726 72789
L70726 72845
" />
<path d="M71091 73380
L71035 73352
L71007 73295
L71007 72789
" />
<path d="M71541 73352
L71485 73380
L71373 73380
L71316 73352
L71288 73295
L71288 73070
L71316 73014
L71373 72986
L71485 72986
L71541 73014
L71570 73070
L71570 73127
L71288 73183
" />
<path d="M71823 73323
L71851 73352
L71823 73380
L71795 73352
L71823 73323
L71823 73380
" />
<path d="M71823 73014
L71851 73042
L71823 73070
L71795 73042
L71823 73014
L71823 73070
" />
<path d="M72891 73323
L72863 73352
L72779 73380
L72723 73380
L72638 73352
L72582 73295
L72554 73239
L72526 73127
L72526 73042
L72554 72930
L72582 72874
L72638 72817
L72723 72789
L72779 72789
L72863 72817
L72891 72845
" />
<path d="M73229 73380
L73172 73352
L73144 73323
L73116 73267
L73116 73099
L73144 73042
L73172 73014
L73229 72986
L73313 72986
L73369 73014
L73397 73042
L73426 73099
L73426 73267
L73397 73323
L73369 73352
L73313 73380
L73229 73380
" />
<path d="M73932 73380
L73932 72789
" />
<path d="M73932 73352
L73876 73380
L73763 73380
L73707 73352
L73679 73323
L73651 73267
L73651 73099
L73679 73042
L73707 73014
L73763 72986
L73876 72986
L73932 73014
" />
<path d="M74438 73352
L74382 73380
L74269 73380
L74213 73352
L74185 73295
L74185 73070
L74213 73014
L74269 72986
L74382 72986
L74438 73014
L74466 73070
L74466 73127
L74185 73183
" />
<path d="M75169 73380
L75169 72789
" />
<path d="M75507 73380
L75253 73042
" />
<path d="M75507 72789
L75169 73127
" />
<path d="M75760 73380
L75760 72986
" />
<path d="M75760 72789
L75732 72817
L75760 72845
L75788 72817
L75760 72789
L75760 72845
" />
<path d="M75956 72986
L76181 72986
" />
<path d="M76041 72789
L76041 73295
L76069 73352
L76125 73380
L76181 73380
" />
<path d="M76294 72986
L76519 72986
" />
<path d="M76378 72789
L76378 73295
L76406 73352
L76463 73380
L76519 73380
" />
<path d="M76660 72986
L76800 73380
" />
<path d="M76941 72986
L76800 73380
L76744 73520
L76716 73548
L76660 73577
" />
<path d="M77531 72789
L77869 72789
" />
<path d="M77700 73380
L77700 72789
" />
<path d="M78066 73380
L78066 72986
" />
<path d="M78066 73099
L78094 73042
L78122 73014
L78178 72986
L78234 72986
" />
<path d="M78431 73380
L78431 72986
" />
<path d="M78431 72789
L78403 72817
L78431 72845
L78459 72817
L78431 72789
L78431 72845
" />
<path d="M78712 72986
L78712 73380
" />
<path d="M78712 73042
L78741 73014
L78797 72986
L78881 72986
L78937 73014
L78965 73070
L78965 73380
" />
<path d="M79247 73380
L79247 72789
" />
<path d="M79303 73155
L79472 73380
" />
<path d="M79472 72986
L79247 73211
" />
<path d="M79950 73352
L79894 73380
L79781 73380
L79725 73352
L79697 73295
L79697 73070
L79725 73014
L79781 72986
L79894 72986
L79950 73014
L79978 73070
L79978 73127
L79697 73183
" />
<path d="M80147 72986
L80372 72986
" />
<path d="M80231 72789
L80231 73295
L80259 73352
L80315 73380
L80372 73380
" />
<path d="M81018 73380
L81018 72986
" />
<path d="M81018 73042
L81046 73014
L81103 72986
L81187 72986
L81243 73014
L81271 73070
L81271 73380
" />
<path d="M81271 73070
L81300 73014
L81356 72986
L81440 72986
L81496 73014
L81525 73070
L81525 73380
" />
<path d="M81918 72789
L81974 72789
L82031 72817
L82059 72845
L82087 72902
L82115 73014
L82115 73155
L82087 73267
L82059 73323
L82031 73352
L81974 73380
L81918 73380
L81862 73352
L81834 73323
L81806 73267
L81778 73155
L81778 73014
L81806 72902
L81834 72845
L81862 72817
L81918 72789
" />
<path d="M83015 73070
L83099 73099
L83127 73127
L83156 73183
L83156 73267
L83127 73323
L83099 73352
L83043 73380
L82818 73380
L82818 72789
L83015 72789
L83071 72817
L83099 72845
L83127 72902
L83127 72958
L83099 73014
L83071 73042
L83015 73070
L82818 73070
" />
<path d="M83409 73380
L83409 72986
" />
<path d="M83409 73099
L83437 73042
L83465 73014
L83521 72986
L83577 72986
" />
<path d="M83999 73352
L83943 73380
L83831 73380
L83774 73352
L83746 73295
L83746 73070
L83774 73014
L83831 72986
L83943 72986
L83999 73014
L84027 73070
L84027 73127
L83746 73183
" />
<path d="M84534 73380
L84534 73070
L84505 73014
L84449 72986
L84337 72986
L84280 73014
" />
<path d="M84534 73352
L84477 73380
L84337 73380
L84280 73352
L84252 73295
L84252 73239
L84280 73183
L84337 73155
L84477 73155
L84534 73127
" />
<path d="M84815 73380
L84815 72789
" />
<path d="M84871 73155
L85040 73380
" />
<path d="M85040 72986
L84815 73211
" />
<path d="M85377 73380
L85321 73352
L85293 73323
L85265 73267
L85265 73099
L85293 73042
L85321 73014
L85377 72986
L85462 72986
L85518 73014
L85546 73042
L85574 73099
L85574 73267
L85546 73323
L85518 73352
L85462 73380
L85377 73380
" />
<path d="M86080 72986
L86080 73380
" />
<path d="M85827 72986
L85827 73295
L85855 73352
L85912 73380
L85996 73380
L86052 73352
L86080 73323
" />
<path d="M86277 72986
L86502 72986
" />
<path d="M86361 72789
L86361 73295
L86390 73352
L86446 73380
L86502 73380
" />
<path d="M86699 73323
L86727 73352
L86699 73380
L86671 73352
L86699 73323
L86699 73380
" />
<path d="M86980 73380
L86980 72789
" />
<path d="M87036 73155
L87205 73380
" />
<path d="M87205 72986
L86980 73211
" />
<path d="M87458 73380
L87458 72986
" />
<path d="M87458 72789
L87430 72817
L87458 72845
L87486 72817
L87458 72789
L87458 72845
" />
<path d="M87992 73352
L87936 73380
L87824 73380
L87768 73352
L87739 73323
L87711 73267
L87711 73099
L87739 73042
L87768 73014
L87824 72986
L87936 72986
L87992 73014
" />
<path d="M88499 73380
L88499 73070
L88471 73014
L88414 72986
L88302 72986
L88246 73014
" />
<path d="M88499 73352
L88442 73380
L88302 73380
L88246 73352
L88217 73295
L88217 73239
L88246 73183
L88302 73155
L88442 73155
L88499 73127
" />
<path d="M89033 73380
L89033 72789
" />
<path d="M89033 73352
L88977 73380
L88864 73380
L88808 73352
L88780 73323
L88752 73267
L88752 73099
L88780 73042
L88808 73014
L88864 72986
L88977 72986
L89033 73014
" />
<path d="M89174 73436
L89624 73436
" />
<path d="M89764 72986
L89764 73577
" />
<path d="M89764 73014
L89820 72986
L89933 72986
L89989 73014
L90017 73042
L90045 73099
L90045 73267
L90017 73323
L89989 73352
L89933 73380
L89820 73380
L89764 73352
" />
<path d="M90552 73352
L90495 73380
L90383 73380
L90327 73352
L90298 73323
L90270 73267
L90270 73099
L90298 73042
L90327 73014
L90383 72986
L90495 72986
L90552 73014
" />
<path d="M90805 73380
L90805 72789
" />
<path d="M90805 73014
L90861 72986
L90973 72986
L91030 73014
L91058 73042
L91086 73099
L91086 73267
L91058 73323
L91030 73352
L90973 73380
L90861 73380
L90805 73352
" />
</g>
<g style="fill:#000000; fill-opacity:0.0; 
stroke:#000000; stroke-width:39.3701; stroke-opacity:1; 
stroke-linecap:round; stroke-linejoin:round;">
</g>
<g style="fill:#000000; fill-opacity:0.0; 
stroke:#000000; stroke-width:59.0551; stroke-opacity:1; 
stroke-linecap:round; stroke-linejoin:round;">
<path d="M69685 71459
L112205 71459
" />
</g>
<g style="fill:#000000; fill-opacity:0.0; 
stroke:#000000; stroke-width:39.3701; stroke-opacity:1; 
stroke-linecap:round; stroke-linejoin:round;">
</g>
<g style="fill:#000000; fill-opacity:0.0; 
stroke:#000000; stroke-width:59.0551; stroke-opacity:1; 
stroke-linecap:round; stroke-linejoin:round;">
<path d="M70192 72289
L70276 72317
L70417 72317
L70473 72289
L70501 72260
L70529 72204
L70529 72148
L70501 72092
L70473 72064
L70417 72036
L70304 72007
L70248 71979
L70220 71951
L70192 71895
L70192 71839
L70220 71782
L70248 71754
L70304 71726
L70445 71726
L70529 71754
" />
<path d="M70782 72317
L70782 71726
" />
<path d="M71035 72317
L71035 72007
L71007 71951
L70951 71923
L70867 71923
L70810 71951
L70782 71979
" />
<path d="M71541 72289
L71485 72317
L71373 72317
L71316 72289
L71288 72232
L71288 72007
L71316 71951
L71373 71923
L71485 71923
L71541 71951
L71570 72007
L71570 72064
L71288 72120
" />
<path d="M72048 72289
L71991 72317
L71879 72317
L71823 72289
L71795 72232
L71795 72007
L71823 71951
L71879 71923
L71991 71923
L72048 71951
L72076 72007
L72076 72064
L71795 72120
" />
<path d="M72244 71923
L72469 71923
" />
<path d="M72329 71726
L72329 72232
L72357 72289
L72413 72317
L72469 72317
" />
<path d="M72666 72260
L72694 72289
L72666 72317
L72638 72289
L72666 72260
L72666 72317
" />
<path d="M72666 71951
L72694 71979
L72666 72007
L72638 71979
L72666 71951
L72666 72007
" />
</g>
<g style="fill:#000000; fill-opacity:0.0; 
stroke:#000000; stroke-width:39.3701; stroke-opacity:1; 
stroke-linecap:round; stroke-linejoin:round;">
</g>
<g style="fill:#000000; fill-opacity:0.0; 
stroke:#000000; stroke-width:59.0551; stroke-opacity:1; 
stroke-linecap:round; stroke-linejoin:round;">
<path d="M77559 75396
L77559 76577
" />
</g>
<g style="fill:#000000; fill-opacity:0.0; 
stroke:#000000; stroke-width:39.3701; stroke-opacity:1; 
stroke-linecap:round; stroke-linejoin:round;">
</g>
<g style="fill:#000000; fill-opacity:0.0; 
stroke:#000000; stroke-width:59.0551; stroke-opacity:1; 
stroke-linecap:round; stroke-linejoin:round;">
<path d="M102756 75396
L102756 77955
" />
</g>
<g style="fill:#008484; fill-opacity:0.0; 
stroke:#008484; stroke-width:59.0551; stroke-opacity:1; 
stroke-linecap:round; stroke-linejoin:round;">
</g>
<g style="fill:#008484; fill-opacity:0.0; 
stroke:#008484; stroke-width:39.3701; stroke-opacity:1; 
stroke-linecap:round; stroke-linejoin:round;">
<path d="M59942 53160
L59913 53179
L59829 53198
L59773 53198
L59689 53179
L59632 53141
L59604 53104
L59576 53029
L59576 52973
L59604 52898
L59632 52860
L59689 52823
L59773 52804
L59829 52804
L59913 52823
L59942 52841
" />
<path d="M60279 53198
L60223 53179
L60195 53160
L60167 53123
L60167 53010
L60195 52973
L60223 52954
L60279 52935
L60363 52935
L60420 52954
L60448 52973
L60476 53010
L60476 53123
L60448 53160
L60420 53179
L60363 53198
L60279 53198
" />
<path d="M60982 53198
L60982 52804
" />
<path d="M60982 53179
L60926 53198
L60813 53198
L60757 53179
L60729 53160
L60701 53123
L60701 53010
L60729 52973
L60757 52954
L60813 52935
L60926 52935
L60982 52954
" />
<path d="M61488 53179
L61432 53198
L61320 53198
L61263 53179
L61235 53141
L61235 52991
L61263 52954
L61320 52935
L61432 52935
L61488 52954
L61516 52991
L61516 53029
L61235 53066
" />
<path d="M62219 53198
L62219 52804
" />
<path d="M62557 53198
L62304 52973
" />
<path d="M62557 52804
L62219 53029
" />
<path d="M62810 53198
L62810 52935
" />
<path d="M62810 52804
L62782 52823
L62810 52841
L62838 52823
L62810 52804
L62810 52841
" />
<path d="M63007 52935
L63232 52935
" />
<path d="M63091 52804
L63091 53141
L63119 53179
L63176 53198
L63232 53198
" />
<path d="M63344 52935
L63569 52935
" />
<path d="M63429 52804
L63429 53141
L63457 53179
L63513 53198
L63569 53198
" />
<path d="M63710 52935
L63850 53198
" />
<path d="M63991 52935
L63850 53198
L63794 53291
L63766 53310
L63710 53329
" />
<path d="M60926 53565
L61066 53828
L61207 53565
" />
<path d="M61404 53471
L61432 53453
L61488 53434
L61629 53434
L61685 53453
L61713 53471
L61741 53509
L61741 53546
L61713 53603
L61376 53828
L61741 53828
" />
<path d="M61994 53790
L62023 53809
L61994 53828
L61966 53809
L61994 53790
L61994 53828
" />
<path d="M62388 53434
L62444 53434
L62501 53453
L62529 53471
L62557 53509
L62585 53584
L62585 53678
L62557 53753
L62529 53790
L62501 53809
L62444 53828
L62388 53828
L62332 53809
L62304 53790
L62276 53753
L62248 53678
L62248 53584
L62276 53509
L62304 53471
L62332 53453
L62388 53434
" />
<path d="M60448 54064
L60335 54064
L60279 54083
L60251 54101
L60195 54158
L60167 54233
L60167 54383
L60195 54420
L60223 54439
L60279 54458
L60392 54458
L60448 54439
L60476 54420
L60504 54383
L60504 54289
L60476 54251
L60448 54233
L60392 54214
L60279 54214
L60223 54233
L60195 54251
L60167 54289
" />
<path d="M61179 54045
L60673 54551
" />
<path d="M61348 54101
L61376 54083
L61432 54064
L61573 54064
L61629 54083
L61657 54101
L61685 54139
L61685 54176
L61657 54233
L61320 54458
L61685 54458
" />
<path d="M62051 54064
L62107 54064
L62163 54083
L62191 54101
L62219 54139
L62248 54214
L62248 54308
L62219 54383
L62191 54420
L62163 54439
L62107 54458
L62051 54458
L61994 54439
L61966 54420
L61938 54383
L61910 54308
L61910 54214
L61938 54139
L61966 54101
L61994 54083
L62051 54064
" />
<path d="M62810 54458
L62473 54458
" />
<path d="M62641 54458
L62641 54064
L62585 54120
L62529 54158
L62473 54176
" />
<path d="M63147 54233
L63091 54214
L63063 54195
L63035 54158
L63035 54139
L63063 54101
L63091 54083
L63147 54064
L63260 54064
L63316 54083
L63344 54101
L63372 54139
L63372 54158
L63344 54195
L63316 54214
L63260 54233
L63147 54233
L63091 54251
L63063 54270
L63035 54308
L63035 54383
L63063 54420
L63091 54439
L63147 54458
L63260 54458
L63316 54439
L63344 54420
L63372 54383
L63372 54308
L63344 54270
L63316 54251
L63260 54233
" />
</g>
<g style="fill:#C2C200; fill-opacity:0.0; 
stroke:#C2C200; stroke-width:39.3701; stroke-opacity:1; 
stroke-linecap:round; stroke-linejoin:round;">
</g>
<g style="fill:#C2C200; fill-opacity:0.0; 
stroke:#C2C200; stroke-width:59.0551; stroke-opacity:1; 
stroke-linecap:round; stroke-linejoin:round;">
<circle cx="61670" cy="51350" r="7786.38" /> 
<path d="M61368 49868
L61368 49605
" />
<path d="M61368 49643
L61387 49624
L61425 49605
L61481 49605
L61518 49624
L61537 49661
L61537 49868
" />
<path d="M61537 49661
L61556 49624
L61593 49605
L61650 49605
L61687 49624
L61706 49661
L61706 49868
" />
<path d="M62099 49868
L61874 49868
" />
<path d="M61987 49868
L61987 49474
L61949 49530
L61912 49568
L61874 49586
" />
<path d="M61598 58605
L61598 58886
L61580 58942
L61542 58980
L61486 58998
L61448 58998
" />
<path d="M61992 58998
L61767 58998
" />
<path d="M61879 58998
L61879 58605
L61842 58661
L61804 58699
L61767 58717
" />
<path d="M57128 48217
L57128 48498
L57110 48554
L57072 48592
L57016 48610
L56978 48610
" />
<path d="M57297 48254
L57316 48235
L57353 48217
L57447 48217
L57484 48235
L57503 48254
L57522 48292
L57522 48329
L57503 48385
L57278 48610
L57522 48610
" />
<path d="M56969 52610
L56969 52217
L57119 52217
L57156 52235
L57175 52254
L57194 52292
L57194 52348
L57175 52385
L57156 52404
L57119 52423
L56969 52423
" />
<path d="M57569 52610
L57344 52610
" />
<path d="M57456 52610
L57456 52217
L57419 52273
L57381 52310
L57344 52329
" />
<path d="M65969 52610
L65969 52217
L66119 52217
L66156 52235
L66175 52254
L66194 52292
L66194 52348
L66175 52385
L66156 52404
L66119 52423
L65969 52423
" />
<path d="M66344 52254
L66363 52235
L66400 52217
L66494 52217
L66531 52235
L66550 52254
L66569 52292
L66569 52329
L66550 52385
L66325 52610
L66569 52610
" />
<path d="M65909 47760
L65909 47367
L66059 47367
L66096 47385
L66115 47404
L66134 47442
L66134 47498
L66115 47535
L66096 47554
L66059 47573
L65909 47573
" />
<path d="M66265 47367
L66509 47367
L66378 47517
L66434 47517
L66471 47535
L66490 47554
L66509 47592
L66509 47685
L66490 47723
L66471 47742
L66434 47760
L66321 47760
L66284 47742
L66265 47723
" />
<path d="M61704 44217
L61573 44029
" />
<path d="M61479 44217
L61479 43823
L61629 43823
L61666 43842
L61685 43861
L61704 43898
L61704 43954
L61685 43992
L61666 44011
L61629 44029
L61479 44029
" />
<path d="M62079 44217
L61854 44217
" />
<path d="M61966 44217
L61966 43823
L61929 43879
L61891 43917
L61854 43936
" />
<path d="M64084 47846
L64103 47790
L64103 47696
L64084 47659
L64065 47640
L64028 47621
L63990 47621
L63953 47640
L63934 47659
L63915 47696
L63897 47771
L63878 47809
L63859 47828
L63822 47846
L63784 47846
L63747 47828
L63728 47809
L63709 47771
L63709 47678
L63728 47621
" />
<path d="M64103 47453
L63709 47453
L63709 47303
L63728 47265
L63747 47246
L63784 47228
L63840 47228
L63878 47246
L63897 47265
L63915 47303
L63915 47453
" />
<path d="M64103 46853
L64103 47078
" />
<path d="M64103 46965
L63709 46965
L63765 47003
L63803 47040
L63822 47078
" />
</g>
<g style="fill:#008484; fill-opacity:0.0; 
stroke:#008484; stroke-width:59.0551; stroke-opacity:1; 
stroke-linecap:round; stroke-linejoin:round;">
<path d="M63725 44690
L64725 44690
" />
<path d="M64725 44690
L64725 49690
" />
<path d="M64725 49690
L63725 49690
" />
<path d="M63725 49690
L63725 44690
" />
<path d="M58725 44690
L59725 44690
" />
<path d="M59725 44690
L59725 49690
" />
<path d="M59725 49690
L58725 49690
" />
<path d="M58725 49690
L58725 44690
" />
</g>
<g style="fill:#008484; fill-opacity:0.0; 
stroke:#008484; stroke-width:47.2441; stroke-opacity:1; 
stroke-linecap:round; stroke-linejoin:round;">
<path d="M63334 58141
L63334 58466
" />
<path d="M63334 58466
L60125 58466
" />
<path d="M60125 58466
L60125 58141
" />
<path d="M63334 56744
L63334 56419
" />
<path d="M63334 56419
L62428 56419
" />
<path d="M60125 56744
L60125 56419
" />
<path d="M60125 56419
L61031 56419
" />
<path d="M62428 56419
L62428 55474
" />
<path d="M56736 50873
L57783 50873
" />
<path d="M56736 49850
L56736 50873
" />
<path d="M57783 49850
L57783 50873
" />
<path d="M56736 49850
L57783 49850
" />
<path d="M56736 49350
L56736 48826
" />
<path d="M56736 48826
L57260 48826
" />
<path d="M56736 55873
L57783 55873
" />
<path d="M56736 53850
L56736 55873
" />
<path d="M57783 53850
L57783 55873
" />
<path d="M56736 53850
L57783 53850
" />
<path d="M56736 53350
L56736 52826
" />
<path d="M56736 52826
L57260 52826
" />
<path d="M65736 55873
L66783 55873
" />
<path d="M65736 53850
L65736 55873
" />
<path d="M66783 53850
L66783 55873
" />
<path d="M65736 53850
L66783 53850
" />
<path d="M65736 53350
L65736 52826
" />
<path d="M65736 52826
L66260 52826
" />
<path d="M65676 51023
L66723 51023
" />
<path d="M65676 49000
L65676 51023
" />
<path d="M66723 49000
L66723 51023
" />
<path d="M65676 49000
L66723 49000
" />
<path d="M65676 48500
L65676 47976
" />
<path d="M65676 47976
L66200 47976
" />
<path d="M61966 44877
L61573 44877
" />
<path d="M61573 44342
L61966 44342
" />
<path d="M62531 45535
L62531 45405
" />
<path d="M59945 45535
L60988 45535
" />
<path d="M59945 49164
L59945 45535
" />
<path d="M60988 49164
L59945 49164
" />
<path d="M63574 49164
L62531 49164
" />
<path d="M63574 45535
L63574 49164
" />
<path d="M62531 45535
L63574 45535
" />
</g>
<g style="fill:#008484; fill-opacity:1.0; 
stroke:#008484; stroke-width:3.93701; stroke-opacity:1; 
stroke-linecap:round; stroke-linejoin:round;">
<polyline style="fill-rule:evenodd;"
points="63186,50184
63197,50201
63206,50232
63216,50281
63226,50346
63234,50403
63241,50457
63247,50503
63252,50537
63252,50545
63257,50580
63263,50625
63270,50672
63270,50675
63276,50739
63277,50811
63275,50850
63273,50889
63271,50943
63269,51008
63267,51079
63266,51152
63266,51170
63263,51295
63256,51402
63246,51491
63232,51562
63219,51607
63214,51624
63219,51628
63222,51627
63236,51621
63264,51610
63303,51595
63343,51579
63390,51561
63422,51550
63442,51544
63454,51544
63461,51549
63466,51555
63477,51579
63470,51598
63443,51613
63440,51615
63416,51624
63379,51638
63335,51656
63296,51672
63188,51716
63159,51789
63145,51825
63134,51855
63130,51873
63130,51875
63134,51881
63149,51886
63177,51889
63222,51891
63237,51892
63284,51893
63316,51895
63334,51898
63343,51904
63347,51912
63348,51917
63345,51934
63332,51946
63305,51954
63262,51958
63202,51959
63195,51960
63149,51960
63119,51961
63103,51963
63096,51968
63096,51976
63097,51981
63098,51996
63093,51997
63085,52003
63073,52024
63057,52057
63043,52090
63025,52133
63014,52163
63012,52181
63022,52193
63046,52199
63085,52204
63128,52209
63171,52216
63210,52225
63239,52234
63243,52236
63268,52249
63288,52259
63290,52259
63302,52274
63308,52294
63309,52311
63304,52319
63287,52319
63264,52316
63233,52310
63210,52303
63205,52300
63191,52294
63161,52288
63121,52280
63084,52275
63038,52268
62998,52262
62970,52257
62959,52254
62942,52258
62921,52274
62919,52276
62899,52295
62867,52322
62827,52356
62783,52391
62739,52425
62699,52455
62670,52476
62630,52500
62576,52528
62513,52558
62447,52587
62382,52614
62324,52636
62294,52645
62241,52661
62180,52680
62122,52697
62110,52701
61990,52727
61861,52736
61722,52729
61620,52714
61568,52704
61521,52694
61484,52684
61462,52677
61460,52676
61440,52666
61406,52652
61365,52635
61340,52624
61287,52603
61226,52577
61167,52550
61145,52540
61099,52519
61056,52500
61021,52486
61005,52480
60974,52466
60937,52446
60915,52432
60887,52413
60865,52400
60855,52396
60841,52401
60817,52414
60792,52429
60717,52474
60652,52509
60620,52526
60561,52553
60518,52573
60488,52586
60468,52593
60455,52596
60446,52595
60440,52592
60429,52576
60425,52553
60427,52537
60436,52524
60456,52511
60485,52496
60555,52463
60620,52431
60676,52403
60721,52380
60752,52363
60757,52360
60790,52339
60747,52302
60716,52273
60680,52240
60655,52216
60626,52190
60605,52176
60587,52172
60575,52173
60479,52189
60401,52203
60338,52215
60289,52225
60250,52234
60230,52240
60195,52250
60174,52253
60160,52251
60149,52244
60147,52242
60133,52220
60134,52196
60149,52179
60150,52179
60172,52171
60209,52162
60259,52151
60265,52149
60681,52149
60691,52161
60711,52181
60739,52207
60770,52235
60801,52261
60828,52283
60847,52297
60853,52300
60866,52295
60892,52281
60928,52261
60969,52237
60973,52235
61019,52207
61065,52178
61104,52154
61128,52137
61159,52117
61199,52089
61241,52060
61257,52050
61290,52026
61314,52007
61325,51995
61325,51991
61311,51993
61282,51998
61240,52007
61187,52019
61128,52032
61066,52046
61003,52061
60944,52076
60890,52089
60846,52101
60814,52110
60803,52113
60766,52124
60727,52133
60721,52134
60696,52140
60682,52147
60681,52149
60265,52149
60315,52139
60375,52129
60403,52124
60447,52117
60483,52110
60508,52104
60516,52101
60518,52094
60511,52078
60492,52051
60461,52012
60450,51999
60417,51959
60388,51920
60365,51888
60353,51868
60335,51830
60265,51837
60223,51840
60170,51843
60115,51844
60087,51845
60036,51844
60002,51842
59981,51838
59971,51832
59969,51830
59961,51806
59961,51781
59970,51764
59971,51764
59985,51761
60014,51759
60055,51758
60104,51758
60110,51759
60161,51759
60207,51758
60242,51756
60263,51754
60264,51754
60278,51748
60285,51738
60282,51720
60269,51693
60247,51653
60238,51638
60223,51611
60211,51587
60202,51561
60194,51529
60186,51486
60177,51429
60174,51413
60164,51344
60152,51269
60141,51194
60131,51130
60129,51120
60120,51045
60164,51045
60168,51089
60178,51150
60194,51230
60195,51235
60207,51295
60218,51353
60227,51402
60233,51440
60235,51458
60243,51494
60258,51535
60269,51560
60291,51599
60315,51645
60332,51677
60364,51740
60442,51740
60480,51741
60531,51745
60591,51752
60655,51760
60687,51765
60737,51772
60778,51777
60816,51782
60853,51784
60893,51786
60939,51786
60994,51785
61063,51783
61145,51781
61219,51779
61288,51778
61348,51777
61397,51776
61432,51776
61450,51777
61451,51777
61465,51789
61475,51812
61478,51835
61473,51850
61461,51852
61432,51855
61387,51857
61331,51859
61264,51861
61189,51863
61154,51863
61054,51865
60970,51865
60898,51864
60835,51862
60778,51858
60722,51852
60664,51844
60600,51834
60575,51830
60530,51824
60484,51820
60461,51820
60407,51820
60431,51859
60453,51892
60483,51931
60516,51972
60549,52009
60579,52040
60601,52059
60603,52060
60613,52066
60622,52070
60634,52071
60650,52071
60674,52066
60706,52059
60751,52047
60809,52031
60884,52011
60900,52006
60967,51988
61039,51969
61109,51951
61170,51936
61190,51931
61262,51914
61318,51902
61359,51896
61388,51894
61406,51898
61417,51907
61423,51920
61424,51926
61421,51956
61402,51975
61377,51980
61345,51981
61377,51991
61399,52000
61408,52014
61410,52035
61406,52061
61394,52075
61383,52080
61366,52089
61336,52107
61296,52131
61251,52160
61231,52173
61179,52207
61126,52241
61076,52271
61037,52295
61030,52299
60994,52319
60966,52336
60949,52347
60946,52349
60951,52356
60971,52371
61002,52390
61040,52412
61083,52436
61127,52459
61168,52479
61203,52495
61225,52504
61256,52515
61294,52529
61335,52546
61373,52562
61405,52576
61425,52586
61430,52589
61460,52610
61507,52629
61571,52644
61637,52654
61686,52660
61731,52666
61766,52670
61785,52673
61812,52674
61850,52673
61890,52671
61925,52668
61949,52663
61950,52663
61966,52659
61996,52654
62036,52647
62058,52644
62121,52632
62192,52614
62265,52592
62334,52567
62395,52542
62442,52519
62445,52517
62463,52506
62492,52488
62525,52468
62562,52446
62599,52427
62624,52415
62670,52390
62726,52347
62773,52306
62793,52290
62807,52284
62809,52284
62820,52281
62837,52267
62840,52264
62863,52240
62829,52238
62803,52238
62787,52239
62786,52239
62774,52238
62745,52234
62704,52227
62655,52219
62631,52215
62572,52206
62514,52197
62462,52190
62422,52186
62415,52185
62374,52181
62337,52177
62313,52174
62292,52172
62278,52178
62263,52197
62256,52207
62210,52263
62151,52306
62084,52336
62038,52345
61981,52344
61920,52329
61862,52304
61840,52290
61820,52278
61810,52277
61810,52278
61801,52290
61779,52306
61750,52322
61718,52336
61690,52344
61690,52344
61643,52347
61586,52341
61527,52330
61474,52313
61451,52303
61412,52280
61390,52261
61381,52240
61383,52216
61396,52195
61419,52189
61449,52199
61470,52214
61504,52233
61551,52248
61604,52258
61638,52260
61691,52254
61729,52236
61754,52205
61755,52203
61762,52185
61766,52167
61766,52143
61764,52108
61758,52062
61745,51956
61673,51895
61630,51857
61622,51847
61740,51847
61743,51855
61758,51869
61776,51885
61793,51896
61800,51899
61810,51893
61826,51877
61848,51851
61855,51837
61845,51832
61817,51833
61803,51835
61771,51839
61748,51844
61740,51847
61622,51847
61606,51826
61599,51803
61610,51786
61640,51774
61689,51766
61695,51765
61738,51759
61788,51751
61825,51744
61868,51737
61910,51730
61939,51727
61968,51727
61984,51733
61995,51747
61998,51753
62005,51772
62003,51786
61990,51804
61981,51813
61962,51836
61935,51868
61906,51906
61895,51919
61840,51994
61840,52069
61843,52127
61850,52169
61864,52199
61887,52222
61919,52242
61954,52257
61987,52267
62004,52269
62060,52260
62114,52235
62160,52200
62193,52156
62198,52147
62206,52127
62214,52112
62224,52100
62237,52092
62256,52088
62283,52087
62320,52090
62369,52097
62432,52107
62512,52120
62575,52130
62637,52140
62685,52148
62724,52153
62759,52156
62795,52159
62838,52161
62843,52161
62922,52165
62971,52070
62990,52031
63006,52000
63015,51979
63017,51973
63006,51973
62980,51976
62943,51981
62902,51987
62860,51994
62822,52002
62805,52006
62778,52010
62734,52015
62678,52021
62613,52027
62542,52032
62492,52036
62409,52041
62344,52044
62295,52046
62260,52045
62235,52043
62220,52038
62212,52030
62210,52020
62210,52015
62201,52004
62181,51993
62180,51993
62159,51980
62151,51969
62335,51969
62395,51964
62428,51962
62476,51960
62531,51957
62585,51955
62641,51951
62697,51946
62746,51940
62780,51934
62819,51925
62870,51916
62924,51908
62948,51904
62992,51898
63027,51892
63050,51888
63057,51885
63062,51874
63072,51850
63085,51817
63085,51815
63098,51779
63101,51759
63093,51751
63072,51755
63034,51769
63030,51771
62985,51787
62938,51801
62884,51815
62818,51829
62773,51838
62717,51851
62655,51867
62599,51884
62583,51890
62531,51907
62474,51926
62423,51942
62415,51945
62335,51969
62151,51969
62150,51965
62150,51965
62154,51953
62170,51942
62198,51929
62242,51915
62303,51899
62320,51895
62378,51879
62443,51859
62505,51838
62530,51830
62581,51813
62645,51794
62712,51776
62774,51761
62775,51761
62837,51746
62905,51729
62970,51712
63023,51696
63068,51682
63103,51668
63129,51653
63148,51632
63162,51603
63173,51563
63183,51510
63194,51444
63203,51382
63210,51333
63213,51293
63214,51256
63212,51216
63208,51171
63203,51084
63205,51002
63210,50937
63215,50880
63218,50821
63218,50766
63217,50737
63214,50701
63209,50653
63202,50599
63194,50540
63185,50481
63176,50424
63168,50374
63160,50332
63154,50303
63150,50290
63149,50290
63139,50295
63116,50310
63086,50331
63070,50342
63034,50368
62987,50401
62935,50437
62884,50473
62875,50480
62825,50515
62776,50551
62732,50584
62699,50611
62693,50615
62662,50641
62620,50673
62571,50708
62522,50743
62520,50745
62477,50774
62440,50800
62412,50821
62396,50833
62395,50835
62381,50846
62356,50863
62334,50877
62283,50907
62229,50887
62190,50875
62142,50863
62100,50854
62055,50846
62012,50837
61980,50830
61953,50825
61911,50819
61860,50813
61805,50807
61793,50806
61730,50801
61681,50799
61636,50799
61590,50803
61535,50809
61523,50811
61448,50821
61388,50830
61342,50839
61305,50848
61273,50858
61246,50869
61204,50884
61172,50888
61145,50879
61116,50855
61107,50846
61080,50823
61042,50794
60997,50764
60965,50744
60920,50717
60877,50688
60842,50663
60825,50649
60793,50622
60759,50597
60719,50574
60670,50549
60608,50520
60573,50505
60511,50478
60463,50456
60427,50439
60398,50424
60373,50409
60349,50391
60322,50370
60308,50359
60272,50331
60248,50316
60232,50314
60223,50328
60217,50359
60214,50408
60214,50417
60210,50471
60205,50530
60199,50582
60199,50585
60195,50624
60190,50678
60185,50739
60181,50801
60180,50820
60176,50877
60172,50930
60169,50976
60165,51008
60164,51016
60164,51045
60120,51045
60115,51007
60109,50889
60111,50762
60121,50621
60125,50587
60130,50530
60135,50477
60138,50431
60139,50398
60139,50394
60146,50346
60162,50300
60186,50263
60211,50240
60237,50232
60264,50235
60297,50252
60337,50283
60351,50295
60419,50346
60507,50395
60519,50401
60596,50438
60658,50468
60706,50492
60743,50510
60771,50525
60791,50538
60808,50549
60822,50560
60825,50563
60871,50599
60928,50640
60991,50681
61052,50718
61064,50725
61099,50747
61130,50770
61149,50789
61149,50789
61170,50818
61237,50789
61273,50775
61304,50764
61324,50760
61325,50760
61344,50758
61376,50752
61410,50745
61485,50730
61546,50719
61597,50713
61642,50710
61660,50710
61703,50711
61759,50716
61824,50722
61890,50731
61953,50739
62006,50748
62010,50749
62048,50756
62096,50765
62141,50774
62184,50783
62224,50794
62254,50805
62255,50805
62287,50816
62305,50814
62318,50805
62344,50787
62379,50763
62421,50734
62435,50725
62486,50689
62538,50651
62587,50615
62625,50585
62626,50585
62665,50553
62705,50523
62739,50498
62748,50491
62779,50468
62807,50446
62820,50436
62838,50422
62868,50401
62907,50374
62945,50350
62999,50314
63040,50287
63070,50267
63092,50251
63108,50237
63123,50224
63136,50210
63157,50190
63173,50181
63186,50184
" /> 
<polyline style="fill-rule:evenodd;"
points="62365,51141
62389,51142
62444,51151
62486,51168
62519,51196
62548,51239
62565,51274
62590,51336
62604,51390
62606,51441
62597,51496
62593,51511
62583,51549
62572,51574
62557,51592
62534,51610
62532,51611
62457,51654
62383,51679
62312,51685
62265,51679
62221,51662
62177,51636
62139,51605
62114,51573
62112,51570
62098,51524
62096,51495
62170,51495
62179,51529
62203,51558
62240,51579
62284,51593
62333,51597
62382,51589
62405,51581
62452,51559
62484,51539
62504,51518
62516,51492
62519,51483
62528,51443
62528,51416
62518,51396
62495,51379
62459,51361
62408,51340
62366,51333
62327,51341
62288,51363
62275,51372
62228,51410
62196,51441
62178,51466
62170,51489
62170,51495
62096,51495
62094,51468
62099,51410
62113,51355
62123,51332
62165,51264
62214,51213
62254,51187
62281,51171
62301,51156
62305,51151
62316,51144
62334,51140
62365,51141
" /> 
<polyline style="fill-rule:evenodd;"
points="61267,51095
61295,51101
61326,51116
61363,51144
61402,51181
61438,51221
61467,51262
61479,51285
61503,51347
61514,51399
61511,51444
61494,51486
61462,51529
61454,51537
61397,51588
61330,51622
61258,51639
61184,51638
61164,51634
61115,51621
61081,51603
61055,51578
61035,51540
61020,51500
61003,51433
61003,51408
61069,51408
61092,51466
61107,51500
61121,51520
61139,51532
61150,51536
61206,51547
61264,51545
61315,51530
61366,51498
61403,51461
61424,51420
61429,51380
61418,51342
61389,51308
61361,51290
61341,51281
61324,51276
61304,51277
61277,51282
61238,51293
61212,51300
61167,51314
61137,51327
61116,51341
61100,51359
61090,51374
61069,51408
61003,51408
61001,51366
61011,51303
61032,51246
61065,51202
61094,51178
61118,51159
61133,51138
61134,51135
61149,51112
61179,51098
61219,51092
61267,51095
" /> 
<polyline style="fill-rule:evenodd;"
points="63007,50510
63033,50524
63051,50542
63051,50542
63056,50562
63059,50597
63061,50645
63061,50701
63060,50761
63058,50822
63054,50879
63049,50928
63044,50966
63043,50968
63036,51015
63031,51063
63031,51099
63029,51144
63021,51172
63007,51181
62988,51173
62977,51162
62968,51141
62964,51105
62965,51059
62971,51009
62981,50959
62983,50950
62990,50911
62995,50855
62998,50786
62999,50751
63000,50699
63001,50654
63003,50620
63005,50601
63006,50598
63006,50583
63005,50580
62997,50584
62977,50601
62948,50629
62912,50666
62871,50710
62854,50727
62784,50803
62724,50864
62676,50910
62636,50943
62606,50963
62583,50971
62567,50967
62556,50953
62553,50944
62552,50926
62561,50909
62583,50889
62586,50886
62603,50870
62633,50842
62671,50805
62716,50760
62765,50711
62799,50676
62975,50498
63007,50510
" /> 
<polyline style="fill-rule:evenodd;"
points="60335,50556
60363,50571
60395,50593
60424,50617
60430,50623
60503,50696
60563,50756
60611,50805
60648,50845
60676,50876
60696,50899
60709,50918
60716,50931
60718,50942
60718,50946
60708,50969
60688,50979
60664,50974
60643,50956
60630,50940
60606,50913
60573,50878
60535,50837
60503,50803
60381,50675
60381,50890
60380,50964
60379,51028
60377,51079
60374,51114
60371,51132
60356,51154
60338,51158
60322,51147
60319,51134
60316,51103
60313,51059
60310,51003
60307,50938
60306,50897
60304,50812
60301,50744
60297,50693
60293,50657
60288,50633
60286,50626
60277,50601
60278,50584
60286,50570
60302,50554
60315,50550
60335,50556
" /> 
<polyline style="fill-rule:evenodd;"
points="62381,51367
62405,51385
62420,51415
62426,51442
62422,51462
62415,51475
62392,51494
62360,51500
62325,51492
62312,51484
62292,51460
62288,51431
62298,51402
62321,51379
62349,51366
62381,51367
" /> 
<polyline style="fill-rule:evenodd;"
points="61292,51318
61310,51345
61315,51362
61317,51403
61303,51436
61280,51454
61244,51468
61215,51465
61192,51450
61169,51422
61163,51398
61176,51372
61198,51348
61235,51319
61267,51309
61292,51318
" /> 
</g> 
</svg>
