G04 #@! TF.FileFunction,Copper,L2,Bot,Signal*
%FSLAX46Y46*%
G04 Gerber Fmt 4.6, Leading zero omitted, Abs format (unit mm)*
G04 Created by KiCad (PCBNEW 4.0.7) date 06/11/18 13:15:31*
%MOMM*%
%LPD*%
G01*
G04 APERTURE LIST*
%ADD10C,0.100000*%
%ADD11C,1.524000*%
%ADD12R,1.700000X1.700000*%
%ADD13O,1.700000X1.700000*%
%ADD14C,0.250000*%
%ADD15C,0.254000*%
G04 APERTURE END LIST*
D10*
D11*
X150431500Y-114522600D03*
X150431500Y-117062600D03*
X150431500Y-119602600D03*
X150431500Y-122142600D03*
X150431500Y-124682600D03*
X163131500Y-114522600D03*
X163131500Y-117062600D03*
X163131500Y-119602600D03*
X163131500Y-122142600D03*
X163131500Y-124682600D03*
D12*
X145440400Y-125349000D03*
D13*
X145440400Y-127889000D03*
D12*
X145440400Y-135509000D03*
D13*
X145440400Y-138049000D03*
X145440400Y-140589000D03*
D12*
X168300400Y-135509000D03*
D13*
X168300400Y-138049000D03*
X168300400Y-140589000D03*
D12*
X168148000Y-123190000D03*
D13*
X168148000Y-125730000D03*
X168148000Y-128270000D03*
D14*
X163131500Y-122142600D02*
X154717400Y-122142600D01*
X146857720Y-126766320D02*
X145440400Y-125349000D01*
X151185880Y-126766320D02*
X146857720Y-126766320D01*
X153111200Y-124841000D02*
X151185880Y-126766320D01*
X153111200Y-123748800D02*
X153111200Y-124841000D01*
X154717400Y-122142600D02*
X153111200Y-123748800D01*
X150431500Y-119602600D02*
X159573880Y-119602600D01*
X159872680Y-115336320D02*
X158028640Y-113492280D01*
X159872680Y-119303800D02*
X159872680Y-115336320D01*
X159573880Y-119602600D02*
X159872680Y-119303800D01*
D15*
G36*
X163938579Y-112813017D02*
X170124490Y-116946310D01*
X174257783Y-123132221D01*
X175709203Y-130429000D01*
X174257783Y-137725779D01*
X170124490Y-143911690D01*
X163938579Y-148044983D01*
X156641800Y-149496403D01*
X149345021Y-148044983D01*
X143159110Y-143911690D01*
X139241787Y-138049000D01*
X143926307Y-138049000D01*
X144039346Y-138617285D01*
X144361253Y-139099054D01*
X144690426Y-139319000D01*
X144361253Y-139538946D01*
X144039346Y-140020715D01*
X143926307Y-140589000D01*
X144039346Y-141157285D01*
X144361253Y-141639054D01*
X144843022Y-141960961D01*
X145411307Y-142074000D01*
X145469493Y-142074000D01*
X146037778Y-141960961D01*
X146519547Y-141639054D01*
X146841454Y-141157285D01*
X146954493Y-140589000D01*
X146841454Y-140020715D01*
X146519547Y-139538946D01*
X146190374Y-139319000D01*
X146519547Y-139099054D01*
X146841454Y-138617285D01*
X146954493Y-138049000D01*
X166786307Y-138049000D01*
X166899346Y-138617285D01*
X167221253Y-139099054D01*
X167550426Y-139319000D01*
X167221253Y-139538946D01*
X166899346Y-140020715D01*
X166786307Y-140589000D01*
X166899346Y-141157285D01*
X167221253Y-141639054D01*
X167703022Y-141960961D01*
X168271307Y-142074000D01*
X168329493Y-142074000D01*
X168897778Y-141960961D01*
X169379547Y-141639054D01*
X169701454Y-141157285D01*
X169814493Y-140589000D01*
X169701454Y-140020715D01*
X169379547Y-139538946D01*
X169050374Y-139319000D01*
X169379547Y-139099054D01*
X169701454Y-138617285D01*
X169814493Y-138049000D01*
X169701454Y-137480715D01*
X169379547Y-136998946D01*
X169335623Y-136969597D01*
X169510098Y-136897327D01*
X169688727Y-136718699D01*
X169785400Y-136485310D01*
X169785400Y-135794750D01*
X169626650Y-135636000D01*
X168427400Y-135636000D01*
X168427400Y-135656000D01*
X168173400Y-135656000D01*
X168173400Y-135636000D01*
X166974150Y-135636000D01*
X166815400Y-135794750D01*
X166815400Y-136485310D01*
X166912073Y-136718699D01*
X167090702Y-136897327D01*
X167265177Y-136969597D01*
X167221253Y-136998946D01*
X166899346Y-137480715D01*
X166786307Y-138049000D01*
X146954493Y-138049000D01*
X146841454Y-137480715D01*
X146519547Y-136998946D01*
X146475623Y-136969597D01*
X146650098Y-136897327D01*
X146828727Y-136718699D01*
X146925400Y-136485310D01*
X146925400Y-135794750D01*
X146766650Y-135636000D01*
X145567400Y-135636000D01*
X145567400Y-135656000D01*
X145313400Y-135656000D01*
X145313400Y-135636000D01*
X144114150Y-135636000D01*
X143955400Y-135794750D01*
X143955400Y-136485310D01*
X144052073Y-136718699D01*
X144230702Y-136897327D01*
X144405177Y-136969597D01*
X144361253Y-136998946D01*
X144039346Y-137480715D01*
X143926307Y-138049000D01*
X139241787Y-138049000D01*
X139025817Y-137725779D01*
X138390672Y-134532690D01*
X143955400Y-134532690D01*
X143955400Y-135223250D01*
X144114150Y-135382000D01*
X145313400Y-135382000D01*
X145313400Y-134182750D01*
X145567400Y-134182750D01*
X145567400Y-135382000D01*
X146766650Y-135382000D01*
X146925400Y-135223250D01*
X146925400Y-134532690D01*
X166815400Y-134532690D01*
X166815400Y-135223250D01*
X166974150Y-135382000D01*
X168173400Y-135382000D01*
X168173400Y-134182750D01*
X168427400Y-134182750D01*
X168427400Y-135382000D01*
X169626650Y-135382000D01*
X169785400Y-135223250D01*
X169785400Y-134532690D01*
X169688727Y-134299301D01*
X169510098Y-134120673D01*
X169276709Y-134024000D01*
X168586150Y-134024000D01*
X168427400Y-134182750D01*
X168173400Y-134182750D01*
X168014650Y-134024000D01*
X167324091Y-134024000D01*
X167090702Y-134120673D01*
X166912073Y-134299301D01*
X166815400Y-134532690D01*
X146925400Y-134532690D01*
X146828727Y-134299301D01*
X146650098Y-134120673D01*
X146416709Y-134024000D01*
X145726150Y-134024000D01*
X145567400Y-134182750D01*
X145313400Y-134182750D01*
X145154650Y-134024000D01*
X144464091Y-134024000D01*
X144230702Y-134120673D01*
X144052073Y-134299301D01*
X143955400Y-134532690D01*
X138390672Y-134532690D01*
X137574397Y-130429000D01*
X138008644Y-128245890D01*
X143998924Y-128245890D01*
X144168755Y-128655924D01*
X144559042Y-129084183D01*
X145083508Y-129330486D01*
X145313400Y-129209819D01*
X145313400Y-128016000D01*
X145567400Y-128016000D01*
X145567400Y-129209819D01*
X145797292Y-129330486D01*
X146321758Y-129084183D01*
X146712045Y-128655924D01*
X146881876Y-128245890D01*
X146760555Y-128016000D01*
X145567400Y-128016000D01*
X145313400Y-128016000D01*
X144120245Y-128016000D01*
X143998924Y-128245890D01*
X138008644Y-128245890D01*
X138753947Y-124499000D01*
X143942960Y-124499000D01*
X143942960Y-126199000D01*
X143987238Y-126434317D01*
X144126310Y-126650441D01*
X144338510Y-126795431D01*
X144446507Y-126817301D01*
X144168755Y-127122076D01*
X143998924Y-127532110D01*
X144120245Y-127762000D01*
X145313400Y-127762000D01*
X145313400Y-127742000D01*
X145567400Y-127742000D01*
X145567400Y-127762000D01*
X146760555Y-127762000D01*
X146881876Y-127532110D01*
X146712045Y-127122076D01*
X146435899Y-126819063D01*
X146525717Y-126802162D01*
X146741841Y-126663090D01*
X146886831Y-126450890D01*
X146937840Y-126199000D01*
X146937840Y-124499000D01*
X146893562Y-124263683D01*
X146754490Y-124047559D01*
X146542290Y-123902569D01*
X146290400Y-123851560D01*
X144590400Y-123851560D01*
X144355083Y-123895838D01*
X144138959Y-124034910D01*
X143993969Y-124247110D01*
X143942960Y-124499000D01*
X138753947Y-124499000D01*
X139025817Y-123132221D01*
X143146132Y-116965733D01*
X143164440Y-116942749D01*
X146372396Y-114799261D01*
X149034258Y-114799261D01*
X149246490Y-115312903D01*
X149639130Y-115706229D01*
X149847012Y-115792549D01*
X149641197Y-115877590D01*
X149247871Y-116270230D01*
X149034743Y-116783500D01*
X149034258Y-117339261D01*
X149246490Y-117852903D01*
X149639130Y-118246229D01*
X149847012Y-118332549D01*
X149641197Y-118417590D01*
X149247871Y-118810230D01*
X149034743Y-119323500D01*
X149034258Y-119879261D01*
X149246490Y-120392903D01*
X149639130Y-120786229D01*
X149847012Y-120872549D01*
X149641197Y-120957590D01*
X149247871Y-121350230D01*
X149034743Y-121863500D01*
X149034258Y-122419261D01*
X149246490Y-122932903D01*
X149639130Y-123326229D01*
X149847012Y-123412549D01*
X149641197Y-123497590D01*
X149247871Y-123890230D01*
X149034743Y-124403500D01*
X149034258Y-124959261D01*
X149246490Y-125472903D01*
X149639130Y-125866229D01*
X150152400Y-126079357D01*
X150708161Y-126079842D01*
X151221803Y-125867610D01*
X151615129Y-125474970D01*
X151828257Y-124961700D01*
X151828742Y-124405939D01*
X151616510Y-123892297D01*
X151223870Y-123498971D01*
X151015988Y-123412651D01*
X151221803Y-123327610D01*
X151615129Y-122934970D01*
X151828257Y-122421700D01*
X151828742Y-121865939D01*
X151616510Y-121352297D01*
X151223870Y-120958971D01*
X151015988Y-120872651D01*
X151221803Y-120787610D01*
X151615129Y-120394970D01*
X151828257Y-119881700D01*
X151828259Y-119879261D01*
X161734258Y-119879261D01*
X161946490Y-120392903D01*
X162339130Y-120786229D01*
X162547012Y-120872549D01*
X162341197Y-120957590D01*
X161947871Y-121350230D01*
X161734743Y-121863500D01*
X161734258Y-122419261D01*
X161946490Y-122932903D01*
X162339130Y-123326229D01*
X162547012Y-123412549D01*
X162341197Y-123497590D01*
X161947871Y-123890230D01*
X161734743Y-124403500D01*
X161734258Y-124959261D01*
X161946490Y-125472903D01*
X162339130Y-125866229D01*
X162852400Y-126079357D01*
X163408161Y-126079842D01*
X163921803Y-125867610D01*
X164059653Y-125730000D01*
X166633907Y-125730000D01*
X166746946Y-126298285D01*
X167068853Y-126780054D01*
X167398026Y-127000000D01*
X167068853Y-127219946D01*
X166746946Y-127701715D01*
X166633907Y-128270000D01*
X166746946Y-128838285D01*
X167068853Y-129320054D01*
X167550622Y-129641961D01*
X168118907Y-129755000D01*
X168177093Y-129755000D01*
X168745378Y-129641961D01*
X169227147Y-129320054D01*
X169549054Y-128838285D01*
X169662093Y-128270000D01*
X169549054Y-127701715D01*
X169227147Y-127219946D01*
X168897974Y-127000000D01*
X169227147Y-126780054D01*
X169549054Y-126298285D01*
X169662093Y-125730000D01*
X169549054Y-125161715D01*
X169227147Y-124679946D01*
X169183223Y-124650597D01*
X169357698Y-124578327D01*
X169536327Y-124399699D01*
X169633000Y-124166310D01*
X169633000Y-123475750D01*
X169474250Y-123317000D01*
X168275000Y-123317000D01*
X168275000Y-123337000D01*
X168021000Y-123337000D01*
X168021000Y-123317000D01*
X166821750Y-123317000D01*
X166663000Y-123475750D01*
X166663000Y-124166310D01*
X166759673Y-124399699D01*
X166938302Y-124578327D01*
X167112777Y-124650597D01*
X167068853Y-124679946D01*
X166746946Y-125161715D01*
X166633907Y-125730000D01*
X164059653Y-125730000D01*
X164315129Y-125474970D01*
X164528257Y-124961700D01*
X164528742Y-124405939D01*
X164316510Y-123892297D01*
X163923870Y-123498971D01*
X163715988Y-123412651D01*
X163921803Y-123327610D01*
X164315129Y-122934970D01*
X164528257Y-122421700D01*
X164528438Y-122213690D01*
X166663000Y-122213690D01*
X166663000Y-122904250D01*
X166821750Y-123063000D01*
X168021000Y-123063000D01*
X168021000Y-121863750D01*
X168275000Y-121863750D01*
X168275000Y-123063000D01*
X169474250Y-123063000D01*
X169633000Y-122904250D01*
X169633000Y-122213690D01*
X169536327Y-121980301D01*
X169357698Y-121801673D01*
X169124309Y-121705000D01*
X168433750Y-121705000D01*
X168275000Y-121863750D01*
X168021000Y-121863750D01*
X167862250Y-121705000D01*
X167171691Y-121705000D01*
X166938302Y-121801673D01*
X166759673Y-121980301D01*
X166663000Y-122213690D01*
X164528438Y-122213690D01*
X164528742Y-121865939D01*
X164316510Y-121352297D01*
X163923870Y-120958971D01*
X163715988Y-120872651D01*
X163921803Y-120787610D01*
X164315129Y-120394970D01*
X164528257Y-119881700D01*
X164528742Y-119325939D01*
X164316510Y-118812297D01*
X163923870Y-118418971D01*
X163731773Y-118339205D01*
X163862643Y-118284997D01*
X163932108Y-118042813D01*
X163131500Y-117242205D01*
X162330892Y-118042813D01*
X162400357Y-118284997D01*
X162540818Y-118335109D01*
X162341197Y-118417590D01*
X161947871Y-118810230D01*
X161734743Y-119323500D01*
X161734258Y-119879261D01*
X151828259Y-119879261D01*
X151828742Y-119325939D01*
X151616510Y-118812297D01*
X151223870Y-118418971D01*
X151015988Y-118332651D01*
X151221803Y-118247610D01*
X151615129Y-117854970D01*
X151828257Y-117341700D01*
X151828681Y-116854902D01*
X161722356Y-116854902D01*
X161750138Y-117409968D01*
X161909103Y-117793743D01*
X162151287Y-117863208D01*
X162951895Y-117062600D01*
X163311105Y-117062600D01*
X164111713Y-117863208D01*
X164353897Y-117793743D01*
X164540644Y-117270298D01*
X164512862Y-116715232D01*
X164353897Y-116331457D01*
X164111713Y-116261992D01*
X163311105Y-117062600D01*
X162951895Y-117062600D01*
X162151287Y-116261992D01*
X161909103Y-116331457D01*
X161722356Y-116854902D01*
X151828681Y-116854902D01*
X151828742Y-116785939D01*
X151616510Y-116272297D01*
X151223870Y-115878971D01*
X151015988Y-115792651D01*
X151221803Y-115707610D01*
X151615129Y-115314970D01*
X151828257Y-114801700D01*
X151828259Y-114799261D01*
X161734258Y-114799261D01*
X161946490Y-115312903D01*
X162339130Y-115706229D01*
X162531227Y-115785995D01*
X162400357Y-115840203D01*
X162330892Y-116082387D01*
X163131500Y-116882995D01*
X163932108Y-116082387D01*
X163862643Y-115840203D01*
X163722182Y-115790091D01*
X163921803Y-115707610D01*
X164315129Y-115314970D01*
X164528257Y-114801700D01*
X164528742Y-114245939D01*
X164316510Y-113732297D01*
X163923870Y-113338971D01*
X163410600Y-113125843D01*
X162854839Y-113125358D01*
X162341197Y-113337590D01*
X161947871Y-113730230D01*
X161734743Y-114243500D01*
X161734258Y-114799261D01*
X151828259Y-114799261D01*
X151828742Y-114245939D01*
X151616510Y-113732297D01*
X151223870Y-113338971D01*
X150710600Y-113125843D01*
X150154839Y-113125358D01*
X149641197Y-113337590D01*
X149247871Y-113730230D01*
X149034743Y-114243500D01*
X149034258Y-114799261D01*
X146372396Y-114799261D01*
X149345021Y-112813017D01*
X156641800Y-111361597D01*
X163938579Y-112813017D01*
X163938579Y-112813017D01*
G37*
X163938579Y-112813017D02*
X170124490Y-116946310D01*
X174257783Y-123132221D01*
X175709203Y-130429000D01*
X174257783Y-137725779D01*
X170124490Y-143911690D01*
X163938579Y-148044983D01*
X156641800Y-149496403D01*
X149345021Y-148044983D01*
X143159110Y-143911690D01*
X139241787Y-138049000D01*
X143926307Y-138049000D01*
X144039346Y-138617285D01*
X144361253Y-139099054D01*
X144690426Y-139319000D01*
X144361253Y-139538946D01*
X144039346Y-140020715D01*
X143926307Y-140589000D01*
X144039346Y-141157285D01*
X144361253Y-141639054D01*
X144843022Y-141960961D01*
X145411307Y-142074000D01*
X145469493Y-142074000D01*
X146037778Y-141960961D01*
X146519547Y-141639054D01*
X146841454Y-141157285D01*
X146954493Y-140589000D01*
X146841454Y-140020715D01*
X146519547Y-139538946D01*
X146190374Y-139319000D01*
X146519547Y-139099054D01*
X146841454Y-138617285D01*
X146954493Y-138049000D01*
X166786307Y-138049000D01*
X166899346Y-138617285D01*
X167221253Y-139099054D01*
X167550426Y-139319000D01*
X167221253Y-139538946D01*
X166899346Y-140020715D01*
X166786307Y-140589000D01*
X166899346Y-141157285D01*
X167221253Y-141639054D01*
X167703022Y-141960961D01*
X168271307Y-142074000D01*
X168329493Y-142074000D01*
X168897778Y-141960961D01*
X169379547Y-141639054D01*
X169701454Y-141157285D01*
X169814493Y-140589000D01*
X169701454Y-140020715D01*
X169379547Y-139538946D01*
X169050374Y-139319000D01*
X169379547Y-139099054D01*
X169701454Y-138617285D01*
X169814493Y-138049000D01*
X169701454Y-137480715D01*
X169379547Y-136998946D01*
X169335623Y-136969597D01*
X169510098Y-136897327D01*
X169688727Y-136718699D01*
X169785400Y-136485310D01*
X169785400Y-135794750D01*
X169626650Y-135636000D01*
X168427400Y-135636000D01*
X168427400Y-135656000D01*
X168173400Y-135656000D01*
X168173400Y-135636000D01*
X166974150Y-135636000D01*
X166815400Y-135794750D01*
X166815400Y-136485310D01*
X166912073Y-136718699D01*
X167090702Y-136897327D01*
X167265177Y-136969597D01*
X167221253Y-136998946D01*
X166899346Y-137480715D01*
X166786307Y-138049000D01*
X146954493Y-138049000D01*
X146841454Y-137480715D01*
X146519547Y-136998946D01*
X146475623Y-136969597D01*
X146650098Y-136897327D01*
X146828727Y-136718699D01*
X146925400Y-136485310D01*
X146925400Y-135794750D01*
X146766650Y-135636000D01*
X145567400Y-135636000D01*
X145567400Y-135656000D01*
X145313400Y-135656000D01*
X145313400Y-135636000D01*
X144114150Y-135636000D01*
X143955400Y-135794750D01*
X143955400Y-136485310D01*
X144052073Y-136718699D01*
X144230702Y-136897327D01*
X144405177Y-136969597D01*
X144361253Y-136998946D01*
X144039346Y-137480715D01*
X143926307Y-138049000D01*
X139241787Y-138049000D01*
X139025817Y-137725779D01*
X138390672Y-134532690D01*
X143955400Y-134532690D01*
X143955400Y-135223250D01*
X144114150Y-135382000D01*
X145313400Y-135382000D01*
X145313400Y-134182750D01*
X145567400Y-134182750D01*
X145567400Y-135382000D01*
X146766650Y-135382000D01*
X146925400Y-135223250D01*
X146925400Y-134532690D01*
X166815400Y-134532690D01*
X166815400Y-135223250D01*
X166974150Y-135382000D01*
X168173400Y-135382000D01*
X168173400Y-134182750D01*
X168427400Y-134182750D01*
X168427400Y-135382000D01*
X169626650Y-135382000D01*
X169785400Y-135223250D01*
X169785400Y-134532690D01*
X169688727Y-134299301D01*
X169510098Y-134120673D01*
X169276709Y-134024000D01*
X168586150Y-134024000D01*
X168427400Y-134182750D01*
X168173400Y-134182750D01*
X168014650Y-134024000D01*
X167324091Y-134024000D01*
X167090702Y-134120673D01*
X166912073Y-134299301D01*
X166815400Y-134532690D01*
X146925400Y-134532690D01*
X146828727Y-134299301D01*
X146650098Y-134120673D01*
X146416709Y-134024000D01*
X145726150Y-134024000D01*
X145567400Y-134182750D01*
X145313400Y-134182750D01*
X145154650Y-134024000D01*
X144464091Y-134024000D01*
X144230702Y-134120673D01*
X144052073Y-134299301D01*
X143955400Y-134532690D01*
X138390672Y-134532690D01*
X137574397Y-130429000D01*
X138008644Y-128245890D01*
X143998924Y-128245890D01*
X144168755Y-128655924D01*
X144559042Y-129084183D01*
X145083508Y-129330486D01*
X145313400Y-129209819D01*
X145313400Y-128016000D01*
X145567400Y-128016000D01*
X145567400Y-129209819D01*
X145797292Y-129330486D01*
X146321758Y-129084183D01*
X146712045Y-128655924D01*
X146881876Y-128245890D01*
X146760555Y-128016000D01*
X145567400Y-128016000D01*
X145313400Y-128016000D01*
X144120245Y-128016000D01*
X143998924Y-128245890D01*
X138008644Y-128245890D01*
X138753947Y-124499000D01*
X143942960Y-124499000D01*
X143942960Y-126199000D01*
X143987238Y-126434317D01*
X144126310Y-126650441D01*
X144338510Y-126795431D01*
X144446507Y-126817301D01*
X144168755Y-127122076D01*
X143998924Y-127532110D01*
X144120245Y-127762000D01*
X145313400Y-127762000D01*
X145313400Y-127742000D01*
X145567400Y-127742000D01*
X145567400Y-127762000D01*
X146760555Y-127762000D01*
X146881876Y-127532110D01*
X146712045Y-127122076D01*
X146435899Y-126819063D01*
X146525717Y-126802162D01*
X146741841Y-126663090D01*
X146886831Y-126450890D01*
X146937840Y-126199000D01*
X146937840Y-124499000D01*
X146893562Y-124263683D01*
X146754490Y-124047559D01*
X146542290Y-123902569D01*
X146290400Y-123851560D01*
X144590400Y-123851560D01*
X144355083Y-123895838D01*
X144138959Y-124034910D01*
X143993969Y-124247110D01*
X143942960Y-124499000D01*
X138753947Y-124499000D01*
X139025817Y-123132221D01*
X143146132Y-116965733D01*
X143164440Y-116942749D01*
X146372396Y-114799261D01*
X149034258Y-114799261D01*
X149246490Y-115312903D01*
X149639130Y-115706229D01*
X149847012Y-115792549D01*
X149641197Y-115877590D01*
X149247871Y-116270230D01*
X149034743Y-116783500D01*
X149034258Y-117339261D01*
X149246490Y-117852903D01*
X149639130Y-118246229D01*
X149847012Y-118332549D01*
X149641197Y-118417590D01*
X149247871Y-118810230D01*
X149034743Y-119323500D01*
X149034258Y-119879261D01*
X149246490Y-120392903D01*
X149639130Y-120786229D01*
X149847012Y-120872549D01*
X149641197Y-120957590D01*
X149247871Y-121350230D01*
X149034743Y-121863500D01*
X149034258Y-122419261D01*
X149246490Y-122932903D01*
X149639130Y-123326229D01*
X149847012Y-123412549D01*
X149641197Y-123497590D01*
X149247871Y-123890230D01*
X149034743Y-124403500D01*
X149034258Y-124959261D01*
X149246490Y-125472903D01*
X149639130Y-125866229D01*
X150152400Y-126079357D01*
X150708161Y-126079842D01*
X151221803Y-125867610D01*
X151615129Y-125474970D01*
X151828257Y-124961700D01*
X151828742Y-124405939D01*
X151616510Y-123892297D01*
X151223870Y-123498971D01*
X151015988Y-123412651D01*
X151221803Y-123327610D01*
X151615129Y-122934970D01*
X151828257Y-122421700D01*
X151828742Y-121865939D01*
X151616510Y-121352297D01*
X151223870Y-120958971D01*
X151015988Y-120872651D01*
X151221803Y-120787610D01*
X151615129Y-120394970D01*
X151828257Y-119881700D01*
X151828259Y-119879261D01*
X161734258Y-119879261D01*
X161946490Y-120392903D01*
X162339130Y-120786229D01*
X162547012Y-120872549D01*
X162341197Y-120957590D01*
X161947871Y-121350230D01*
X161734743Y-121863500D01*
X161734258Y-122419261D01*
X161946490Y-122932903D01*
X162339130Y-123326229D01*
X162547012Y-123412549D01*
X162341197Y-123497590D01*
X161947871Y-123890230D01*
X161734743Y-124403500D01*
X161734258Y-124959261D01*
X161946490Y-125472903D01*
X162339130Y-125866229D01*
X162852400Y-126079357D01*
X163408161Y-126079842D01*
X163921803Y-125867610D01*
X164059653Y-125730000D01*
X166633907Y-125730000D01*
X166746946Y-126298285D01*
X167068853Y-126780054D01*
X167398026Y-127000000D01*
X167068853Y-127219946D01*
X166746946Y-127701715D01*
X166633907Y-128270000D01*
X166746946Y-128838285D01*
X167068853Y-129320054D01*
X167550622Y-129641961D01*
X168118907Y-129755000D01*
X168177093Y-129755000D01*
X168745378Y-129641961D01*
X169227147Y-129320054D01*
X169549054Y-128838285D01*
X169662093Y-128270000D01*
X169549054Y-127701715D01*
X169227147Y-127219946D01*
X168897974Y-127000000D01*
X169227147Y-126780054D01*
X169549054Y-126298285D01*
X169662093Y-125730000D01*
X169549054Y-125161715D01*
X169227147Y-124679946D01*
X169183223Y-124650597D01*
X169357698Y-124578327D01*
X169536327Y-124399699D01*
X169633000Y-124166310D01*
X169633000Y-123475750D01*
X169474250Y-123317000D01*
X168275000Y-123317000D01*
X168275000Y-123337000D01*
X168021000Y-123337000D01*
X168021000Y-123317000D01*
X166821750Y-123317000D01*
X166663000Y-123475750D01*
X166663000Y-124166310D01*
X166759673Y-124399699D01*
X166938302Y-124578327D01*
X167112777Y-124650597D01*
X167068853Y-124679946D01*
X166746946Y-125161715D01*
X166633907Y-125730000D01*
X164059653Y-125730000D01*
X164315129Y-125474970D01*
X164528257Y-124961700D01*
X164528742Y-124405939D01*
X164316510Y-123892297D01*
X163923870Y-123498971D01*
X163715988Y-123412651D01*
X163921803Y-123327610D01*
X164315129Y-122934970D01*
X164528257Y-122421700D01*
X164528438Y-122213690D01*
X166663000Y-122213690D01*
X166663000Y-122904250D01*
X166821750Y-123063000D01*
X168021000Y-123063000D01*
X168021000Y-121863750D01*
X168275000Y-121863750D01*
X168275000Y-123063000D01*
X169474250Y-123063000D01*
X169633000Y-122904250D01*
X169633000Y-122213690D01*
X169536327Y-121980301D01*
X169357698Y-121801673D01*
X169124309Y-121705000D01*
X168433750Y-121705000D01*
X168275000Y-121863750D01*
X168021000Y-121863750D01*
X167862250Y-121705000D01*
X167171691Y-121705000D01*
X166938302Y-121801673D01*
X166759673Y-121980301D01*
X166663000Y-122213690D01*
X164528438Y-122213690D01*
X164528742Y-121865939D01*
X164316510Y-121352297D01*
X163923870Y-120958971D01*
X163715988Y-120872651D01*
X163921803Y-120787610D01*
X164315129Y-120394970D01*
X164528257Y-119881700D01*
X164528742Y-119325939D01*
X164316510Y-118812297D01*
X163923870Y-118418971D01*
X163731773Y-118339205D01*
X163862643Y-118284997D01*
X163932108Y-118042813D01*
X163131500Y-117242205D01*
X162330892Y-118042813D01*
X162400357Y-118284997D01*
X162540818Y-118335109D01*
X162341197Y-118417590D01*
X161947871Y-118810230D01*
X161734743Y-119323500D01*
X161734258Y-119879261D01*
X151828259Y-119879261D01*
X151828742Y-119325939D01*
X151616510Y-118812297D01*
X151223870Y-118418971D01*
X151015988Y-118332651D01*
X151221803Y-118247610D01*
X151615129Y-117854970D01*
X151828257Y-117341700D01*
X151828681Y-116854902D01*
X161722356Y-116854902D01*
X161750138Y-117409968D01*
X161909103Y-117793743D01*
X162151287Y-117863208D01*
X162951895Y-117062600D01*
X163311105Y-117062600D01*
X164111713Y-117863208D01*
X164353897Y-117793743D01*
X164540644Y-117270298D01*
X164512862Y-116715232D01*
X164353897Y-116331457D01*
X164111713Y-116261992D01*
X163311105Y-117062600D01*
X162951895Y-117062600D01*
X162151287Y-116261992D01*
X161909103Y-116331457D01*
X161722356Y-116854902D01*
X151828681Y-116854902D01*
X151828742Y-116785939D01*
X151616510Y-116272297D01*
X151223870Y-115878971D01*
X151015988Y-115792651D01*
X151221803Y-115707610D01*
X151615129Y-115314970D01*
X151828257Y-114801700D01*
X151828259Y-114799261D01*
X161734258Y-114799261D01*
X161946490Y-115312903D01*
X162339130Y-115706229D01*
X162531227Y-115785995D01*
X162400357Y-115840203D01*
X162330892Y-116082387D01*
X163131500Y-116882995D01*
X163932108Y-116082387D01*
X163862643Y-115840203D01*
X163722182Y-115790091D01*
X163921803Y-115707610D01*
X164315129Y-115314970D01*
X164528257Y-114801700D01*
X164528742Y-114245939D01*
X164316510Y-113732297D01*
X163923870Y-113338971D01*
X163410600Y-113125843D01*
X162854839Y-113125358D01*
X162341197Y-113337590D01*
X161947871Y-113730230D01*
X161734743Y-114243500D01*
X161734258Y-114799261D01*
X151828259Y-114799261D01*
X151828742Y-114245939D01*
X151616510Y-113732297D01*
X151223870Y-113338971D01*
X150710600Y-113125843D01*
X150154839Y-113125358D01*
X149641197Y-113337590D01*
X149247871Y-113730230D01*
X149034743Y-114243500D01*
X149034258Y-114799261D01*
X146372396Y-114799261D01*
X149345021Y-112813017D01*
X156641800Y-111361597D01*
X163938579Y-112813017D01*
M02*
