G04 #@! TF.FileFunction,Legend,Top*
%FSLAX46Y46*%
G04 Gerber Fmt 4.6, Leading zero omitted, Abs format (unit mm)*
G04 Created by KiCad (PCBNEW 4.0.7) date 06/11/18 13:15:31*
%MOMM*%
%LPD*%
G01*
G04 APERTURE LIST*
%ADD10C,0.100000*%
%ADD11C,0.150000*%
%ADD12C,0.120000*%
%ADD13C,0.010000*%
G04 APERTURE END LIST*
D10*
X152252943Y-135028143D02*
X152181514Y-135075762D01*
X151967228Y-135123381D01*
X151824371Y-135123381D01*
X151610086Y-135075762D01*
X151467228Y-134980524D01*
X151395800Y-134885286D01*
X151324371Y-134694810D01*
X151324371Y-134551952D01*
X151395800Y-134361476D01*
X151467228Y-134266238D01*
X151610086Y-134171000D01*
X151824371Y-134123381D01*
X151967228Y-134123381D01*
X152181514Y-134171000D01*
X152252943Y-134218619D01*
X153110086Y-135123381D02*
X152967228Y-135075762D01*
X152895800Y-135028143D01*
X152824371Y-134932905D01*
X152824371Y-134647190D01*
X152895800Y-134551952D01*
X152967228Y-134504333D01*
X153110086Y-134456714D01*
X153324371Y-134456714D01*
X153467228Y-134504333D01*
X153538657Y-134551952D01*
X153610086Y-134647190D01*
X153610086Y-134932905D01*
X153538657Y-135028143D01*
X153467228Y-135075762D01*
X153324371Y-135123381D01*
X153110086Y-135123381D01*
X154895800Y-135123381D02*
X154895800Y-134123381D01*
X154895800Y-135075762D02*
X154752943Y-135123381D01*
X154467229Y-135123381D01*
X154324371Y-135075762D01*
X154252943Y-135028143D01*
X154181514Y-134932905D01*
X154181514Y-134647190D01*
X154252943Y-134551952D01*
X154324371Y-134504333D01*
X154467229Y-134456714D01*
X154752943Y-134456714D01*
X154895800Y-134504333D01*
X156181514Y-135075762D02*
X156038657Y-135123381D01*
X155752943Y-135123381D01*
X155610086Y-135075762D01*
X155538657Y-134980524D01*
X155538657Y-134599571D01*
X155610086Y-134504333D01*
X155752943Y-134456714D01*
X156038657Y-134456714D01*
X156181514Y-134504333D01*
X156252943Y-134599571D01*
X156252943Y-134694810D01*
X155538657Y-134790048D01*
X158038657Y-135123381D02*
X158038657Y-134123381D01*
X158895800Y-135123381D02*
X158252943Y-134551952D01*
X158895800Y-134123381D02*
X158038657Y-134694810D01*
X159538657Y-135123381D02*
X159538657Y-134456714D01*
X159538657Y-134123381D02*
X159467228Y-134171000D01*
X159538657Y-134218619D01*
X159610085Y-134171000D01*
X159538657Y-134123381D01*
X159538657Y-134218619D01*
X160038657Y-134456714D02*
X160610086Y-134456714D01*
X160252943Y-134123381D02*
X160252943Y-134980524D01*
X160324371Y-135075762D01*
X160467229Y-135123381D01*
X160610086Y-135123381D01*
X160895800Y-134456714D02*
X161467229Y-134456714D01*
X161110086Y-134123381D02*
X161110086Y-134980524D01*
X161181514Y-135075762D01*
X161324372Y-135123381D01*
X161467229Y-135123381D01*
X161824372Y-134456714D02*
X162181515Y-135123381D01*
X162538657Y-134456714D02*
X162181515Y-135123381D01*
X162038657Y-135361476D01*
X161967229Y-135409095D01*
X161824372Y-135456714D01*
X154752944Y-136056714D02*
X155110087Y-136723381D01*
X155467229Y-136056714D01*
X155967229Y-135818619D02*
X156038658Y-135771000D01*
X156181515Y-135723381D01*
X156538658Y-135723381D01*
X156681515Y-135771000D01*
X156752944Y-135818619D01*
X156824372Y-135913857D01*
X156824372Y-136009095D01*
X156752944Y-136151952D01*
X155895801Y-136723381D01*
X156824372Y-136723381D01*
X157467229Y-136628143D02*
X157538657Y-136675762D01*
X157467229Y-136723381D01*
X157395800Y-136675762D01*
X157467229Y-136628143D01*
X157467229Y-136723381D01*
X158467229Y-135723381D02*
X158610086Y-135723381D01*
X158752943Y-135771000D01*
X158824372Y-135818619D01*
X158895801Y-135913857D01*
X158967229Y-136104333D01*
X158967229Y-136342429D01*
X158895801Y-136532905D01*
X158824372Y-136628143D01*
X158752943Y-136675762D01*
X158610086Y-136723381D01*
X158467229Y-136723381D01*
X158324372Y-136675762D01*
X158252943Y-136628143D01*
X158181515Y-136532905D01*
X158110086Y-136342429D01*
X158110086Y-136104333D01*
X158181515Y-135913857D01*
X158252943Y-135818619D01*
X158324372Y-135771000D01*
X158467229Y-135723381D01*
X153538658Y-137323381D02*
X153252944Y-137323381D01*
X153110087Y-137371000D01*
X153038658Y-137418619D01*
X152895801Y-137561476D01*
X152824372Y-137751952D01*
X152824372Y-138132905D01*
X152895801Y-138228143D01*
X152967229Y-138275762D01*
X153110087Y-138323381D01*
X153395801Y-138323381D01*
X153538658Y-138275762D01*
X153610087Y-138228143D01*
X153681515Y-138132905D01*
X153681515Y-137894810D01*
X153610087Y-137799571D01*
X153538658Y-137751952D01*
X153395801Y-137704333D01*
X153110087Y-137704333D01*
X152967229Y-137751952D01*
X152895801Y-137799571D01*
X152824372Y-137894810D01*
X155395800Y-137275762D02*
X154110086Y-138561476D01*
X155824372Y-137418619D02*
X155895801Y-137371000D01*
X156038658Y-137323381D01*
X156395801Y-137323381D01*
X156538658Y-137371000D01*
X156610087Y-137418619D01*
X156681515Y-137513857D01*
X156681515Y-137609095D01*
X156610087Y-137751952D01*
X155752944Y-138323381D01*
X156681515Y-138323381D01*
X157610086Y-137323381D02*
X157752943Y-137323381D01*
X157895800Y-137371000D01*
X157967229Y-137418619D01*
X158038658Y-137513857D01*
X158110086Y-137704333D01*
X158110086Y-137942429D01*
X158038658Y-138132905D01*
X157967229Y-138228143D01*
X157895800Y-138275762D01*
X157752943Y-138323381D01*
X157610086Y-138323381D01*
X157467229Y-138275762D01*
X157395800Y-138228143D01*
X157324372Y-138132905D01*
X157252943Y-137942429D01*
X157252943Y-137704333D01*
X157324372Y-137513857D01*
X157395800Y-137418619D01*
X157467229Y-137371000D01*
X157610086Y-137323381D01*
X159538657Y-138323381D02*
X158681514Y-138323381D01*
X159110086Y-138323381D02*
X159110086Y-137323381D01*
X158967229Y-137466238D01*
X158824371Y-137561476D01*
X158681514Y-137609095D01*
X160395800Y-137751952D02*
X160252942Y-137704333D01*
X160181514Y-137656714D01*
X160110085Y-137561476D01*
X160110085Y-137513857D01*
X160181514Y-137418619D01*
X160252942Y-137371000D01*
X160395800Y-137323381D01*
X160681514Y-137323381D01*
X160824371Y-137371000D01*
X160895800Y-137418619D01*
X160967228Y-137513857D01*
X160967228Y-137561476D01*
X160895800Y-137656714D01*
X160824371Y-137704333D01*
X160681514Y-137751952D01*
X160395800Y-137751952D01*
X160252942Y-137799571D01*
X160181514Y-137847190D01*
X160110085Y-137942429D01*
X160110085Y-138132905D01*
X160181514Y-138228143D01*
X160252942Y-138275762D01*
X160395800Y-138323381D01*
X160681514Y-138323381D01*
X160824371Y-138275762D01*
X160895800Y-138228143D01*
X160967228Y-138132905D01*
X160967228Y-137942429D01*
X160895800Y-137847190D01*
X160824371Y-137799571D01*
X160681514Y-137751952D01*
D11*
X161861500Y-113512600D02*
X164401500Y-113512600D01*
X164401500Y-113512600D02*
X164401500Y-126212600D01*
X164401500Y-126212600D02*
X161861500Y-126212600D01*
X161861500Y-126212600D02*
X161861500Y-113512600D01*
X149161500Y-113512600D02*
X151701500Y-113512600D01*
X151701500Y-113512600D02*
X151701500Y-126212600D01*
X151701500Y-126212600D02*
X149161500Y-126212600D01*
X149161500Y-126212600D02*
X149161500Y-113512600D01*
D12*
X160869200Y-147680000D02*
X160869200Y-148505000D01*
X160869200Y-148505000D02*
X152719200Y-148505000D01*
X152719200Y-148505000D02*
X152719200Y-147680000D01*
X160869200Y-144130000D02*
X160869200Y-143305000D01*
X160869200Y-143305000D02*
X158569200Y-143305000D01*
X152719200Y-144130000D02*
X152719200Y-143305000D01*
X152719200Y-143305000D02*
X155019200Y-143305000D01*
X158569200Y-143305000D02*
X158569200Y-140905000D01*
X144110400Y-129219000D02*
X146770400Y-129219000D01*
X144110400Y-126619000D02*
X144110400Y-129219000D01*
X146770400Y-126619000D02*
X146770400Y-129219000D01*
X144110400Y-126619000D02*
X146770400Y-126619000D01*
X144110400Y-125349000D02*
X144110400Y-124019000D01*
X144110400Y-124019000D02*
X145440400Y-124019000D01*
X144110400Y-141919000D02*
X146770400Y-141919000D01*
X144110400Y-136779000D02*
X144110400Y-141919000D01*
X146770400Y-136779000D02*
X146770400Y-141919000D01*
X144110400Y-136779000D02*
X146770400Y-136779000D01*
X144110400Y-135509000D02*
X144110400Y-134179000D01*
X144110400Y-134179000D02*
X145440400Y-134179000D01*
X166970400Y-141919000D02*
X169630400Y-141919000D01*
X166970400Y-136779000D02*
X166970400Y-141919000D01*
X169630400Y-136779000D02*
X169630400Y-141919000D01*
X166970400Y-136779000D02*
X169630400Y-136779000D01*
X166970400Y-135509000D02*
X166970400Y-134179000D01*
X166970400Y-134179000D02*
X168300400Y-134179000D01*
X166818000Y-129600000D02*
X169478000Y-129600000D01*
X166818000Y-124460000D02*
X166818000Y-129600000D01*
X169478000Y-124460000D02*
X169478000Y-129600000D01*
X166818000Y-124460000D02*
X169478000Y-124460000D01*
X166818000Y-123190000D02*
X166818000Y-121860000D01*
X166818000Y-121860000D02*
X168148000Y-121860000D01*
X157395800Y-113989400D02*
X156395800Y-113989400D01*
X156395800Y-112629400D02*
X157395800Y-112629400D01*
X158830400Y-115659000D02*
X158830400Y-115329000D01*
X152260400Y-115659000D02*
X154910400Y-115659000D01*
X152260400Y-124879000D02*
X152260400Y-115659000D01*
X154910400Y-124879000D02*
X152260400Y-124879000D01*
X161480400Y-124879000D02*
X158830400Y-124879000D01*
X161480400Y-115659000D02*
X161480400Y-124879000D01*
X158830400Y-115659000D02*
X161480400Y-115659000D01*
D13*
G36*
X160494656Y-127469190D02*
X160521744Y-127510947D01*
X160545664Y-127591163D01*
X160569085Y-127713908D01*
X160594061Y-127878904D01*
X160614458Y-128023792D01*
X160633469Y-128161826D01*
X160649331Y-128279992D01*
X160660280Y-128365276D01*
X160662551Y-128384300D01*
X160673684Y-128473729D01*
X160689211Y-128589348D01*
X160705897Y-128707121D01*
X160706978Y-128714500D01*
X160722084Y-128878581D01*
X160724413Y-129061627D01*
X160719951Y-129159000D01*
X160714605Y-129258318D01*
X160709382Y-129396616D01*
X160704611Y-129562074D01*
X160700623Y-129742873D01*
X160697749Y-129927193D01*
X160697249Y-129971800D01*
X160689354Y-130291414D01*
X160672592Y-130562820D01*
X160646764Y-130787864D01*
X160611667Y-130968392D01*
X160576373Y-131083082D01*
X160564343Y-131127448D01*
X160578660Y-131135451D01*
X160584676Y-131133425D01*
X160620076Y-131119549D01*
X160692014Y-131091307D01*
X160789747Y-131052917D01*
X160893624Y-131012100D01*
X161011866Y-130966128D01*
X161091965Y-130937331D01*
X161142918Y-130923957D01*
X161173726Y-130924258D01*
X161193386Y-130936482D01*
X161205508Y-130951433D01*
X161232923Y-131011821D01*
X161213937Y-131059460D01*
X161146497Y-131098912D01*
X161137600Y-131102360D01*
X161078090Y-131125501D01*
X160985171Y-131162478D01*
X160872435Y-131207854D01*
X160773258Y-131248118D01*
X160497816Y-131360406D01*
X160424008Y-131544112D01*
X160388738Y-131636245D01*
X160362643Y-131712697D01*
X160350525Y-131759198D01*
X160350200Y-131763350D01*
X160361220Y-131780036D01*
X160399154Y-131791774D01*
X160471308Y-131799710D01*
X160584992Y-131804986D01*
X160623250Y-131806090D01*
X160743870Y-131809836D01*
X160822895Y-131814847D01*
X160869525Y-131823226D01*
X160892958Y-131837080D01*
X160902392Y-131858510D01*
X160904411Y-131870409D01*
X160898657Y-131912698D01*
X160864053Y-131943174D01*
X160795330Y-131963301D01*
X160687218Y-131974544D01*
X160534449Y-131978369D01*
X160516024Y-131978400D01*
X160398570Y-131978846D01*
X160323317Y-131981448D01*
X160281668Y-131988103D01*
X160265025Y-132000707D01*
X160264788Y-132021156D01*
X160267679Y-132033171D01*
X160270360Y-132070600D01*
X160257251Y-132072646D01*
X160238330Y-132088283D01*
X160206176Y-132142435D01*
X160165606Y-132226137D01*
X160129529Y-132310313D01*
X160084042Y-132419769D01*
X160056596Y-132494493D01*
X160052701Y-132542201D01*
X160077866Y-132570611D01*
X160137601Y-132587437D01*
X160237416Y-132600396D01*
X160345404Y-132612636D01*
X160455325Y-132629647D01*
X160555619Y-132651985D01*
X160627723Y-132675369D01*
X160637504Y-132679990D01*
X160703171Y-132713720D01*
X160753797Y-132738886D01*
X160756600Y-132740220D01*
X160787461Y-132776724D01*
X160803097Y-132829244D01*
X160805880Y-132871662D01*
X160792674Y-132890358D01*
X160751116Y-132891367D01*
X160691359Y-132883799D01*
X160613654Y-132869025D01*
X160555651Y-132850646D01*
X160541362Y-132842550D01*
X160505160Y-132829101D01*
X160430229Y-132811851D01*
X160328258Y-132793225D01*
X160234186Y-132778838D01*
X160117650Y-132761861D01*
X160017371Y-132746111D01*
X159945552Y-132733572D01*
X159916885Y-132727219D01*
X159873063Y-132736054D01*
X159819831Y-132776398D01*
X159815099Y-132781376D01*
X159764214Y-132829900D01*
X159682738Y-132900386D01*
X159580930Y-132984598D01*
X159469049Y-133074299D01*
X159357353Y-133161254D01*
X159256102Y-133237226D01*
X159181800Y-133289799D01*
X159080518Y-133350501D01*
X158944033Y-133421740D01*
X158785233Y-133497698D01*
X158617009Y-133572555D01*
X158452252Y-133640490D01*
X158303850Y-133695684D01*
X158229082Y-133719947D01*
X158093695Y-133760597D01*
X157938341Y-133807326D01*
X157791682Y-133851510D01*
X157759400Y-133861249D01*
X157456312Y-133927473D01*
X157127145Y-133951492D01*
X156774186Y-133933243D01*
X156514800Y-133895398D01*
X156383250Y-133869741D01*
X156265082Y-133843596D01*
X156171742Y-133819711D01*
X156114676Y-133800836D01*
X156108400Y-133797781D01*
X156057861Y-133773518D01*
X155973669Y-133736884D01*
X155869574Y-133693762D01*
X155803600Y-133667347D01*
X155669561Y-133612309D01*
X155515386Y-133545800D01*
X155366468Y-133478875D01*
X155308300Y-133451741D01*
X155193042Y-133398620D01*
X155083620Y-133350761D01*
X154994771Y-133314479D01*
X154952700Y-133299349D01*
X154874001Y-133265892D01*
X154781068Y-133214453D01*
X154724498Y-133177397D01*
X154653423Y-133129787D01*
X154597261Y-133097299D01*
X154572098Y-133087769D01*
X154538167Y-133100413D01*
X154476184Y-133133011D01*
X154413713Y-133169911D01*
X154222622Y-133284272D01*
X154058056Y-133375184D01*
X153974800Y-133416859D01*
X153827073Y-133486585D01*
X153718202Y-133536743D01*
X153641313Y-133569885D01*
X153589531Y-133588564D01*
X153555981Y-133595334D01*
X153533790Y-133592746D01*
X153519828Y-133585802D01*
X153490288Y-133543597D01*
X153479500Y-133486931D01*
X153484838Y-133444455D01*
X153507774Y-133411426D01*
X153558689Y-133377949D01*
X153631900Y-133341664D01*
X153810238Y-133256708D01*
X153975122Y-133176453D01*
X154118852Y-133104756D01*
X154233729Y-133045469D01*
X154312052Y-133002449D01*
X154325210Y-132994569D01*
X154408921Y-132942935D01*
X154299810Y-132847093D01*
X154220303Y-132775702D01*
X154127960Y-132690575D01*
X154063700Y-132630028D01*
X153990775Y-132564260D01*
X153938406Y-132529470D01*
X153893446Y-132518625D01*
X153860500Y-132521321D01*
X153617783Y-132561845D01*
X153419723Y-132596448D01*
X153260663Y-132626222D01*
X153134944Y-132652256D01*
X153036909Y-132675640D01*
X152985234Y-132689971D01*
X152896488Y-132715027D01*
X152841978Y-132724875D01*
X152807609Y-132719949D01*
X152779286Y-132700686D01*
X152774566Y-132696477D01*
X152740163Y-132640126D01*
X152742200Y-132580194D01*
X152779869Y-132536767D01*
X152781000Y-132536195D01*
X152837255Y-132516530D01*
X152933260Y-132491657D01*
X153058515Y-132463840D01*
X153074940Y-132460590D01*
X154132250Y-132460590D01*
X154155600Y-132489784D01*
X154207565Y-132541346D01*
X154278329Y-132606699D01*
X154358074Y-132677265D01*
X154436984Y-132744467D01*
X154505243Y-132799728D01*
X154553033Y-132834471D01*
X154568781Y-132842000D01*
X154600958Y-132829530D01*
X154667011Y-132795510D01*
X154757557Y-132745016D01*
X154863211Y-132683130D01*
X154871807Y-132677976D01*
X154990532Y-132605804D01*
X155106129Y-132534032D01*
X155204584Y-132471445D01*
X155266816Y-132430326D01*
X155344274Y-132377358D01*
X155446083Y-132307959D01*
X155554540Y-132234190D01*
X155594583Y-132207000D01*
X155677752Y-132147650D01*
X155737629Y-132099175D01*
X155766972Y-132067813D01*
X155765854Y-132059460D01*
X155732376Y-132062997D01*
X155657715Y-132076965D01*
X155549971Y-132099473D01*
X155417243Y-132128628D01*
X155267632Y-132162539D01*
X155109236Y-132199314D01*
X154950156Y-132237061D01*
X154798492Y-132273887D01*
X154662343Y-132307903D01*
X154549808Y-132337214D01*
X154468988Y-132359931D01*
X154441146Y-132368872D01*
X154347689Y-132396738D01*
X154247191Y-132419663D01*
X154233515Y-132422103D01*
X154169404Y-132437286D01*
X154134550Y-132454156D01*
X154132250Y-132460590D01*
X153074940Y-132460590D01*
X153202522Y-132435346D01*
X153354782Y-132408440D01*
X153425625Y-132397077D01*
X153535906Y-132378669D01*
X153629112Y-132360625D01*
X153692531Y-132345536D01*
X153711213Y-132338859D01*
X153717512Y-132319388D01*
X153698264Y-132278180D01*
X153650528Y-132210672D01*
X153571361Y-132112300D01*
X153544208Y-132079847D01*
X153460861Y-131977474D01*
X153385906Y-131879329D01*
X153327910Y-131797011D01*
X153296720Y-131744856D01*
X153250900Y-131649479D01*
X153073100Y-131667889D01*
X152968203Y-131675904D01*
X152834073Y-131682153D01*
X152692268Y-131685760D01*
X152621294Y-131686300D01*
X152492846Y-131684778D01*
X152406646Y-131679492D01*
X152354215Y-131669356D01*
X152327071Y-131653286D01*
X152323233Y-131648200D01*
X152302000Y-131587572D01*
X152302839Y-131524341D01*
X152325214Y-131482309D01*
X152327002Y-131481120D01*
X152362090Y-131474773D01*
X152437304Y-131470176D01*
X152541986Y-131467725D01*
X152665481Y-131467816D01*
X152680212Y-131468005D01*
X152809686Y-131468469D01*
X152925972Y-131466406D01*
X153016779Y-131462200D01*
X153069814Y-131456231D01*
X153071485Y-131455835D01*
X153108359Y-131441008D01*
X153124059Y-131415215D01*
X153116954Y-131371164D01*
X153085415Y-131301560D01*
X153027811Y-131199110D01*
X153005799Y-131161880D01*
X152966918Y-131093773D01*
X152937312Y-131031947D01*
X152913927Y-130965585D01*
X152893705Y-130883870D01*
X152873592Y-130775987D01*
X152850530Y-130631120D01*
X152844328Y-130590380D01*
X152817709Y-130415815D01*
X152788121Y-130223558D01*
X152758857Y-130034911D01*
X152733212Y-129871177D01*
X152729045Y-129844800D01*
X152706034Y-129655675D01*
X152817526Y-129655675D01*
X152829196Y-129768209D01*
X152854240Y-129923414D01*
X152893067Y-130124252D01*
X152895831Y-130137755D01*
X152926645Y-130291548D01*
X152954352Y-130436692D01*
X152976986Y-130562358D01*
X152992584Y-130657716D01*
X152998640Y-130704501D01*
X153017980Y-130795746D01*
X153056071Y-130901081D01*
X153085635Y-130962400D01*
X153140096Y-131063633D01*
X153201735Y-131180322D01*
X153243594Y-131260850D01*
X153325303Y-131419600D01*
X153524099Y-131419600D01*
X153619263Y-131423553D01*
X153750419Y-131434452D01*
X153903458Y-131450857D01*
X154064269Y-131471325D01*
X154147298Y-131483249D01*
X154272548Y-131501714D01*
X154378490Y-131515980D01*
X154473936Y-131526366D01*
X154567698Y-131533193D01*
X154668589Y-131536782D01*
X154785421Y-131537455D01*
X154927006Y-131535530D01*
X155102157Y-131531330D01*
X155308300Y-131525506D01*
X155498415Y-131520399D01*
X155673292Y-131516490D01*
X155826121Y-131513870D01*
X155950092Y-131512628D01*
X156038394Y-131512853D01*
X156084218Y-131514636D01*
X156087899Y-131515240D01*
X156122262Y-131545849D01*
X156146885Y-131602964D01*
X156154901Y-131663191D01*
X156142326Y-131700633D01*
X156112350Y-131706444D01*
X156037915Y-131712434D01*
X155925358Y-131718340D01*
X155781020Y-131723895D01*
X155611239Y-131728837D01*
X155422352Y-131732901D01*
X155333306Y-131734366D01*
X155078074Y-131737472D01*
X154864233Y-131738115D01*
X154682408Y-131735753D01*
X154523227Y-131729841D01*
X154377317Y-131719835D01*
X154235304Y-131705192D01*
X154087814Y-131685369D01*
X153925475Y-131659821D01*
X153860500Y-131648932D01*
X153748041Y-131634054D01*
X153629473Y-131624643D01*
X153572170Y-131622947D01*
X153436241Y-131622800D01*
X153495970Y-131723300D01*
X153552143Y-131807738D01*
X153627073Y-131906787D01*
X153711397Y-132009501D01*
X153795752Y-132104931D01*
X153870774Y-132182131D01*
X153927099Y-132230154D01*
X153932486Y-132233638D01*
X153957445Y-132248335D01*
X153981904Y-132258427D01*
X154011905Y-132262818D01*
X154053490Y-132260415D01*
X154112703Y-132250123D01*
X154195586Y-132230847D01*
X154308182Y-132201492D01*
X154456534Y-132160964D01*
X154646684Y-132108169D01*
X154686791Y-132097007D01*
X154856965Y-132050521D01*
X155040143Y-132001938D01*
X155218116Y-131956000D01*
X155372676Y-131917445D01*
X155423391Y-131905265D01*
X155607832Y-131862686D01*
X155749134Y-131833224D01*
X155853202Y-131816745D01*
X155925938Y-131813120D01*
X155973247Y-131822216D01*
X156001031Y-131843903D01*
X156015196Y-131878049D01*
X156017890Y-131892042D01*
X156010323Y-131969001D01*
X155962352Y-132017317D01*
X155897956Y-132031490D01*
X155816300Y-132033781D01*
X155898850Y-132057617D01*
X155955322Y-132080600D01*
X155977862Y-132117743D01*
X155981400Y-132170254D01*
X155973571Y-132235850D01*
X155942518Y-132271605D01*
X155915226Y-132284216D01*
X155871060Y-132306803D01*
X155794088Y-132352013D01*
X155693666Y-132414126D01*
X155579149Y-132487425D01*
X155527876Y-132520977D01*
X155395871Y-132606662D01*
X155260092Y-132692602D01*
X155134768Y-132769925D01*
X155034126Y-132829761D01*
X155016200Y-132839985D01*
X154927228Y-132891068D01*
X154855135Y-132934166D01*
X154811594Y-132962238D01*
X154805147Y-132967319D01*
X154817746Y-132986191D01*
X154867329Y-133022589D01*
X154945252Y-133071704D01*
X155042872Y-133128727D01*
X155151546Y-133188849D01*
X155262630Y-133247262D01*
X155367482Y-133299155D01*
X155457458Y-133339721D01*
X155511500Y-133360322D01*
X155590823Y-133388443D01*
X155688190Y-133425882D01*
X155791752Y-133467699D01*
X155889662Y-133508953D01*
X155970073Y-133544703D01*
X156021138Y-133570007D01*
X156032271Y-133577514D01*
X156108451Y-133630830D01*
X156229927Y-133677908D01*
X156391400Y-133717081D01*
X156558226Y-133743175D01*
X156683880Y-133758829D01*
X156797853Y-133773081D01*
X156886743Y-133784254D01*
X156933900Y-133790246D01*
X157003557Y-133793724D01*
X157099003Y-133791885D01*
X157201339Y-133785860D01*
X157291667Y-133776780D01*
X157351091Y-133765776D01*
X157353000Y-133765166D01*
X157393835Y-133755973D01*
X157471521Y-133741878D01*
X157572632Y-133725248D01*
X157628366Y-133716632D01*
X157788949Y-133685601D01*
X157968511Y-133639817D01*
X158153410Y-133583756D01*
X158330004Y-133521888D01*
X158484650Y-133458687D01*
X158603707Y-133398625D01*
X158610300Y-133394688D01*
X158657452Y-133365941D01*
X158731539Y-133320561D01*
X158813500Y-133270229D01*
X158908050Y-133215138D01*
X159001799Y-133165420D01*
X159065541Y-133135723D01*
X159182399Y-133071303D01*
X159324074Y-132963786D01*
X159443905Y-132857289D01*
X159494315Y-132817380D01*
X159530362Y-132801580D01*
X159535463Y-132802703D01*
X159564320Y-132794575D01*
X159608478Y-132758391D01*
X159614335Y-132752317D01*
X159673255Y-132689600D01*
X159586277Y-132686592D01*
X159521067Y-132685592D01*
X159479365Y-132687205D01*
X159477604Y-132687473D01*
X159446107Y-132684761D01*
X159373948Y-132674687D01*
X159270503Y-132658673D01*
X159145145Y-132638140D01*
X159083904Y-132627775D01*
X158934657Y-132603453D01*
X158786471Y-132581384D01*
X158654440Y-132563681D01*
X158553659Y-132552460D01*
X158535757Y-132550963D01*
X158432289Y-132541841D01*
X158337221Y-132531172D01*
X158277287Y-132522296D01*
X158223857Y-132517140D01*
X158186547Y-132533492D01*
X158148318Y-132581282D01*
X158131637Y-132607162D01*
X158014619Y-132748030D01*
X157865009Y-132859557D01*
X157695489Y-132933705D01*
X157577437Y-132958431D01*
X157433406Y-132954995D01*
X157277683Y-132917891D01*
X157130649Y-132852849D01*
X157074134Y-132816980D01*
X157025270Y-132788191D01*
X156998898Y-132784345D01*
X156997400Y-132788399D01*
X156975844Y-132818531D01*
X156920626Y-132858006D01*
X156845917Y-132899063D01*
X156765890Y-132933944D01*
X156694718Y-132954890D01*
X156692600Y-132955268D01*
X156574140Y-132961525D01*
X156430274Y-132948124D01*
X156280836Y-132918511D01*
X156145662Y-132876130D01*
X156087599Y-132850193D01*
X155988408Y-132793315D01*
X155931066Y-132742958D01*
X155908894Y-132690620D01*
X155914643Y-132630031D01*
X155948122Y-132577227D01*
X156006540Y-132562467D01*
X156080888Y-132586002D01*
X156135741Y-132623836D01*
X156221229Y-132673253D01*
X156339830Y-132712079D01*
X156474197Y-132735581D01*
X156563059Y-132740400D01*
X156696658Y-132725685D01*
X156792692Y-132680134D01*
X156855497Y-132601637D01*
X156857805Y-132596890D01*
X156876371Y-132551611D01*
X156886178Y-132504722D01*
X156887554Y-132443899D01*
X156880824Y-132356815D01*
X156867290Y-132239094D01*
X156834460Y-131970472D01*
X156650117Y-131815686D01*
X156542055Y-131717514D01*
X156521102Y-131691756D01*
X156819600Y-131691756D01*
X156829512Y-131711968D01*
X156865472Y-131748581D01*
X156912263Y-131788369D01*
X156954666Y-131818109D01*
X156973922Y-131825873D01*
X156999476Y-131809076D01*
X157039993Y-131768850D01*
X157095475Y-131703489D01*
X157112099Y-131667283D01*
X157086511Y-131654133D01*
X157015362Y-131657943D01*
X156981198Y-131661896D01*
X156899388Y-131673430D01*
X156840186Y-131684780D01*
X156819600Y-131691756D01*
X156521102Y-131691756D01*
X156479312Y-131640383D01*
X156462357Y-131581478D01*
X156491659Y-131537982D01*
X156567686Y-131507082D01*
X156690907Y-131485961D01*
X156705300Y-131484338D01*
X156814652Y-131469874D01*
X156941985Y-131449391D01*
X157035500Y-131432045D01*
X157145023Y-131412328D01*
X157253032Y-131396554D01*
X157326724Y-131388927D01*
X157399379Y-131387703D01*
X157440317Y-131401839D01*
X157468102Y-131439442D01*
X157475350Y-131453832D01*
X157494557Y-131502151D01*
X157489602Y-131538947D01*
X157455168Y-131583935D01*
X157434245Y-131606232D01*
X157383933Y-131663554D01*
X157315814Y-131747108D01*
X157241917Y-131842005D01*
X157215769Y-131876675D01*
X157073600Y-132067051D01*
X157075532Y-132257675D01*
X157081752Y-132403543D01*
X157100222Y-132509765D01*
X157135803Y-132586957D01*
X157193358Y-132645735D01*
X157276249Y-132695950D01*
X157364366Y-132734186D01*
X157447368Y-132759079D01*
X157490904Y-132764685D01*
X157633340Y-132740844D01*
X157770171Y-132679167D01*
X157887554Y-132588394D01*
X157971647Y-132477263D01*
X157982941Y-132454067D01*
X158004795Y-132404400D01*
X158025306Y-132364871D01*
X158049806Y-132335246D01*
X158083625Y-132315291D01*
X158132096Y-132304771D01*
X158200549Y-132303453D01*
X158294316Y-132311103D01*
X158418728Y-132327487D01*
X158579117Y-132352370D01*
X158780813Y-132385518D01*
X158940500Y-132412034D01*
X159099038Y-132437968D01*
X159220925Y-132456677D01*
X159319550Y-132469703D01*
X159408299Y-132478589D01*
X159500559Y-132484878D01*
X159609719Y-132490112D01*
X159623054Y-132490678D01*
X159823008Y-132499100D01*
X159946625Y-132259637D01*
X159996598Y-132161105D01*
X160035571Y-132080934D01*
X160058999Y-132028693D01*
X160063556Y-132013490D01*
X160035346Y-132012635D01*
X159969301Y-132019378D01*
X159877503Y-132031884D01*
X159772033Y-132048320D01*
X159664973Y-132066852D01*
X159568405Y-132085645D01*
X159524700Y-132095296D01*
X159456621Y-132106915D01*
X159346887Y-132120435D01*
X159204562Y-132134977D01*
X159038715Y-132149660D01*
X158858413Y-132163606D01*
X158731133Y-132172286D01*
X158521019Y-132185320D01*
X158356140Y-132193993D01*
X158231087Y-132197916D01*
X158140449Y-132196698D01*
X158078817Y-132189949D01*
X158040782Y-132177279D01*
X158020933Y-132158299D01*
X158013862Y-132132619D01*
X158013400Y-132120558D01*
X157992093Y-132092161D01*
X157940486Y-132063642D01*
X157937200Y-132062374D01*
X157884257Y-132030653D01*
X157865969Y-132001364D01*
X158330900Y-132001364D01*
X158483300Y-131990536D01*
X158569321Y-131985212D01*
X158689910Y-131978789D01*
X158828870Y-131972085D01*
X158965900Y-131966091D01*
X159108957Y-131957527D01*
X159251009Y-131944421D01*
X159375178Y-131928595D01*
X159461200Y-131912697D01*
X159561032Y-131891544D01*
X159690060Y-131868225D01*
X159827021Y-131846465D01*
X159890073Y-131837569D01*
X160000080Y-131821907D01*
X160089991Y-131807375D01*
X160148745Y-131795865D01*
X160165660Y-131790406D01*
X160179618Y-131762266D01*
X160205079Y-131699547D01*
X160236643Y-131615574D01*
X160238017Y-131611796D01*
X160269260Y-131520800D01*
X160277823Y-131468299D01*
X160257738Y-131449524D01*
X160203038Y-131459709D01*
X160107754Y-131494084D01*
X160096200Y-131498502D01*
X159982657Y-131539142D01*
X159863511Y-131575292D01*
X159726229Y-131610262D01*
X159558279Y-131647362D01*
X159445232Y-131670489D01*
X159302336Y-131702908D01*
X159145707Y-131744351D01*
X159002749Y-131787414D01*
X158963204Y-131800732D01*
X158830965Y-131845691D01*
X158685887Y-131893114D01*
X158555567Y-131934011D01*
X158534100Y-131940498D01*
X158330900Y-132001364D01*
X157865969Y-132001364D01*
X157861046Y-131993480D01*
X157861000Y-131992010D01*
X157873061Y-131962431D01*
X157912760Y-131933065D01*
X157985371Y-131901738D01*
X158096168Y-131866275D01*
X158250424Y-131824502D01*
X158294381Y-131813325D01*
X158440343Y-131773388D01*
X158606253Y-131723114D01*
X158764846Y-131670917D01*
X158826200Y-131649176D01*
X158957634Y-131605223D01*
X159118610Y-131557436D01*
X159288781Y-131511567D01*
X159447799Y-131473369D01*
X159448500Y-131473214D01*
X159608339Y-131435995D01*
X159780478Y-131392797D01*
X159944203Y-131348985D01*
X160078494Y-131310020D01*
X160194609Y-131273100D01*
X160282876Y-131238539D01*
X160348434Y-131198760D01*
X160396424Y-131146191D01*
X160431985Y-131073256D01*
X160460258Y-130972383D01*
X160486383Y-130835996D01*
X160513523Y-130668961D01*
X160537866Y-130510454D01*
X160553868Y-130387666D01*
X160562289Y-130286335D01*
X160563887Y-130192200D01*
X160559419Y-130091001D01*
X160550352Y-129976510D01*
X160537645Y-129755292D01*
X160541626Y-129546645D01*
X160555220Y-129382339D01*
X160566958Y-129237580D01*
X160573879Y-129085432D01*
X160575239Y-128947551D01*
X160572694Y-128874339D01*
X160564673Y-128781106D01*
X160551253Y-128660941D01*
X160533705Y-128522239D01*
X160513299Y-128373399D01*
X160491307Y-128222818D01*
X160469000Y-128078893D01*
X160447649Y-127950021D01*
X160428524Y-127844600D01*
X160412898Y-127771027D01*
X160402040Y-127737699D01*
X160400483Y-127736600D01*
X160373677Y-127750551D01*
X160316252Y-127787879D01*
X160238465Y-127841790D01*
X160199137Y-127869950D01*
X160107742Y-127935371D01*
X159988810Y-128019558D01*
X159856627Y-128112442D01*
X159725481Y-128203955D01*
X159703527Y-128219200D01*
X159577908Y-128308124D01*
X159452951Y-128399665D01*
X159341532Y-128484194D01*
X159256525Y-128552083D01*
X159242623Y-128563850D01*
X159162962Y-128628459D01*
X159054802Y-128710852D01*
X158931976Y-128800724D01*
X158808315Y-128887773D01*
X158800800Y-128892937D01*
X158692707Y-128967864D01*
X158598875Y-129034391D01*
X158527760Y-129086412D01*
X158487822Y-129117820D01*
X158483300Y-129122176D01*
X158448643Y-129150366D01*
X158385507Y-129193149D01*
X158328630Y-129228494D01*
X158199360Y-129305908D01*
X158061930Y-129254884D01*
X157963916Y-129223885D01*
X157842967Y-129193059D01*
X157734000Y-129170723D01*
X157621671Y-129149962D01*
X157511635Y-129127621D01*
X157429200Y-129108891D01*
X157361360Y-129096058D01*
X157256115Y-129081128D01*
X157126717Y-129065781D01*
X156986422Y-129051694D01*
X156955780Y-129048963D01*
X156796698Y-129036457D01*
X156669795Y-129030675D01*
X156556856Y-129031929D01*
X156439667Y-129040529D01*
X156300013Y-129056787D01*
X156269980Y-129060696D01*
X156078232Y-129086918D01*
X155927897Y-129110170D01*
X155809823Y-129132369D01*
X155714858Y-129155430D01*
X155633851Y-129181270D01*
X155566544Y-129207958D01*
X155458990Y-129247643D01*
X155378359Y-129256794D01*
X155309183Y-129232873D01*
X155235994Y-129173344D01*
X155212622Y-129149894D01*
X155145068Y-129090560D01*
X155047469Y-129017673D01*
X154934509Y-128941764D01*
X154851433Y-128890871D01*
X154737668Y-128821363D01*
X154629345Y-128749946D01*
X154540679Y-128686264D01*
X154495833Y-128649569D01*
X154414737Y-128580405D01*
X154328778Y-128518604D01*
X154228357Y-128458664D01*
X154103877Y-128395087D01*
X153945738Y-128322371D01*
X153856647Y-128283297D01*
X153698353Y-128214329D01*
X153577632Y-128160410D01*
X153485384Y-128116533D01*
X153412509Y-128077690D01*
X153349907Y-128038874D01*
X153288477Y-127995079D01*
X153219120Y-127941297D01*
X153183247Y-127912780D01*
X153092368Y-127842066D01*
X153029924Y-127803084D01*
X152989944Y-127799528D01*
X152966459Y-127835093D01*
X152953500Y-127913473D01*
X152945097Y-128038361D01*
X152943883Y-128060924D01*
X152934694Y-128197275D01*
X152921704Y-128346868D01*
X152907624Y-128478703D01*
X152906738Y-128485900D01*
X152895943Y-128586496D01*
X152883794Y-128722134D01*
X152871580Y-128877125D01*
X152860590Y-129035780D01*
X152857661Y-129082800D01*
X152848302Y-129228453D01*
X152838538Y-129364681D01*
X152829302Y-129479473D01*
X152821526Y-129560817D01*
X152818817Y-129582853D01*
X152817526Y-129655675D01*
X152706034Y-129655675D01*
X152694139Y-129557912D01*
X152679276Y-129258387D01*
X152684369Y-128935651D01*
X152709330Y-128579127D01*
X152717888Y-128491077D01*
X152731506Y-128348353D01*
X152742916Y-128211908D01*
X152751072Y-128095502D01*
X152754930Y-128012892D01*
X152755098Y-128000945D01*
X152771018Y-127880625D01*
X152812868Y-127764376D01*
X152873137Y-127668237D01*
X152937134Y-127612044D01*
X153002205Y-127589669D01*
X153072055Y-127598090D01*
X153154408Y-127640324D01*
X153256988Y-127719390D01*
X153293457Y-127751275D01*
X153466624Y-127881046D01*
X153688454Y-128005092D01*
X153719489Y-128020125D01*
X153916311Y-128114249D01*
X154072884Y-128189834D01*
X154194950Y-128249915D01*
X154288252Y-128297527D01*
X154358532Y-128335704D01*
X154411532Y-128367483D01*
X154452994Y-128395898D01*
X154488661Y-128423984D01*
X154497177Y-128431167D01*
X154613473Y-128522746D01*
X154758955Y-128626069D01*
X154917381Y-128730143D01*
X155072509Y-128823976D01*
X155103664Y-128841640D01*
X155193423Y-128897648D01*
X155270972Y-128956275D01*
X155319911Y-129005088D01*
X155320744Y-129006241D01*
X155371864Y-129078032D01*
X155543282Y-129004903D01*
X155634879Y-128968607D01*
X155713831Y-128942238D01*
X155763823Y-128931208D01*
X155765500Y-128931153D01*
X155816065Y-128925575D01*
X155897466Y-128911651D01*
X155981400Y-128894650D01*
X156173607Y-128854824D01*
X156328413Y-128827593D01*
X156457187Y-128811335D01*
X156571300Y-128804431D01*
X156617928Y-128803931D01*
X156726335Y-128808282D01*
X156869876Y-128819661D01*
X157033641Y-128836393D01*
X157202713Y-128856805D01*
X157362181Y-128879222D01*
X157497131Y-128901970D01*
X157505400Y-128903556D01*
X157603347Y-128922282D01*
X157724641Y-128945125D01*
X157840302Y-128966637D01*
X157949207Y-128990307D01*
X158051436Y-129018576D01*
X158125859Y-129045559D01*
X158129061Y-129047048D01*
X158209274Y-129074424D01*
X158256211Y-129068072D01*
X158288567Y-129045743D01*
X158354176Y-129000598D01*
X158444409Y-128938570D01*
X158550635Y-128865593D01*
X158585720Y-128841500D01*
X158714714Y-128751207D01*
X158848752Y-128654494D01*
X158972207Y-128562799D01*
X159069449Y-128487563D01*
X159071524Y-128485900D01*
X159171409Y-128406971D01*
X159272507Y-128329128D01*
X159357567Y-128265591D01*
X159380357Y-128249180D01*
X159459601Y-128191188D01*
X159531855Y-128135324D01*
X159562800Y-128109744D01*
X159609261Y-128074007D01*
X159687208Y-128018807D01*
X159785309Y-127952017D01*
X159880300Y-127889258D01*
X160019200Y-127798604D01*
X160122815Y-127730096D01*
X160198545Y-127678340D01*
X160253791Y-127637940D01*
X160295954Y-127603503D01*
X160332433Y-127569632D01*
X160367673Y-127533990D01*
X160420291Y-127484780D01*
X160461728Y-127461824D01*
X160494656Y-127469190D01*
X160494656Y-127469190D01*
G37*
X160494656Y-127469190D02*
X160521744Y-127510947D01*
X160545664Y-127591163D01*
X160569085Y-127713908D01*
X160594061Y-127878904D01*
X160614458Y-128023792D01*
X160633469Y-128161826D01*
X160649331Y-128279992D01*
X160660280Y-128365276D01*
X160662551Y-128384300D01*
X160673684Y-128473729D01*
X160689211Y-128589348D01*
X160705897Y-128707121D01*
X160706978Y-128714500D01*
X160722084Y-128878581D01*
X160724413Y-129061627D01*
X160719951Y-129159000D01*
X160714605Y-129258318D01*
X160709382Y-129396616D01*
X160704611Y-129562074D01*
X160700623Y-129742873D01*
X160697749Y-129927193D01*
X160697249Y-129971800D01*
X160689354Y-130291414D01*
X160672592Y-130562820D01*
X160646764Y-130787864D01*
X160611667Y-130968392D01*
X160576373Y-131083082D01*
X160564343Y-131127448D01*
X160578660Y-131135451D01*
X160584676Y-131133425D01*
X160620076Y-131119549D01*
X160692014Y-131091307D01*
X160789747Y-131052917D01*
X160893624Y-131012100D01*
X161011866Y-130966128D01*
X161091965Y-130937331D01*
X161142918Y-130923957D01*
X161173726Y-130924258D01*
X161193386Y-130936482D01*
X161205508Y-130951433D01*
X161232923Y-131011821D01*
X161213937Y-131059460D01*
X161146497Y-131098912D01*
X161137600Y-131102360D01*
X161078090Y-131125501D01*
X160985171Y-131162478D01*
X160872435Y-131207854D01*
X160773258Y-131248118D01*
X160497816Y-131360406D01*
X160424008Y-131544112D01*
X160388738Y-131636245D01*
X160362643Y-131712697D01*
X160350525Y-131759198D01*
X160350200Y-131763350D01*
X160361220Y-131780036D01*
X160399154Y-131791774D01*
X160471308Y-131799710D01*
X160584992Y-131804986D01*
X160623250Y-131806090D01*
X160743870Y-131809836D01*
X160822895Y-131814847D01*
X160869525Y-131823226D01*
X160892958Y-131837080D01*
X160902392Y-131858510D01*
X160904411Y-131870409D01*
X160898657Y-131912698D01*
X160864053Y-131943174D01*
X160795330Y-131963301D01*
X160687218Y-131974544D01*
X160534449Y-131978369D01*
X160516024Y-131978400D01*
X160398570Y-131978846D01*
X160323317Y-131981448D01*
X160281668Y-131988103D01*
X160265025Y-132000707D01*
X160264788Y-132021156D01*
X160267679Y-132033171D01*
X160270360Y-132070600D01*
X160257251Y-132072646D01*
X160238330Y-132088283D01*
X160206176Y-132142435D01*
X160165606Y-132226137D01*
X160129529Y-132310313D01*
X160084042Y-132419769D01*
X160056596Y-132494493D01*
X160052701Y-132542201D01*
X160077866Y-132570611D01*
X160137601Y-132587437D01*
X160237416Y-132600396D01*
X160345404Y-132612636D01*
X160455325Y-132629647D01*
X160555619Y-132651985D01*
X160627723Y-132675369D01*
X160637504Y-132679990D01*
X160703171Y-132713720D01*
X160753797Y-132738886D01*
X160756600Y-132740220D01*
X160787461Y-132776724D01*
X160803097Y-132829244D01*
X160805880Y-132871662D01*
X160792674Y-132890358D01*
X160751116Y-132891367D01*
X160691359Y-132883799D01*
X160613654Y-132869025D01*
X160555651Y-132850646D01*
X160541362Y-132842550D01*
X160505160Y-132829101D01*
X160430229Y-132811851D01*
X160328258Y-132793225D01*
X160234186Y-132778838D01*
X160117650Y-132761861D01*
X160017371Y-132746111D01*
X159945552Y-132733572D01*
X159916885Y-132727219D01*
X159873063Y-132736054D01*
X159819831Y-132776398D01*
X159815099Y-132781376D01*
X159764214Y-132829900D01*
X159682738Y-132900386D01*
X159580930Y-132984598D01*
X159469049Y-133074299D01*
X159357353Y-133161254D01*
X159256102Y-133237226D01*
X159181800Y-133289799D01*
X159080518Y-133350501D01*
X158944033Y-133421740D01*
X158785233Y-133497698D01*
X158617009Y-133572555D01*
X158452252Y-133640490D01*
X158303850Y-133695684D01*
X158229082Y-133719947D01*
X158093695Y-133760597D01*
X157938341Y-133807326D01*
X157791682Y-133851510D01*
X157759400Y-133861249D01*
X157456312Y-133927473D01*
X157127145Y-133951492D01*
X156774186Y-133933243D01*
X156514800Y-133895398D01*
X156383250Y-133869741D01*
X156265082Y-133843596D01*
X156171742Y-133819711D01*
X156114676Y-133800836D01*
X156108400Y-133797781D01*
X156057861Y-133773518D01*
X155973669Y-133736884D01*
X155869574Y-133693762D01*
X155803600Y-133667347D01*
X155669561Y-133612309D01*
X155515386Y-133545800D01*
X155366468Y-133478875D01*
X155308300Y-133451741D01*
X155193042Y-133398620D01*
X155083620Y-133350761D01*
X154994771Y-133314479D01*
X154952700Y-133299349D01*
X154874001Y-133265892D01*
X154781068Y-133214453D01*
X154724498Y-133177397D01*
X154653423Y-133129787D01*
X154597261Y-133097299D01*
X154572098Y-133087769D01*
X154538167Y-133100413D01*
X154476184Y-133133011D01*
X154413713Y-133169911D01*
X154222622Y-133284272D01*
X154058056Y-133375184D01*
X153974800Y-133416859D01*
X153827073Y-133486585D01*
X153718202Y-133536743D01*
X153641313Y-133569885D01*
X153589531Y-133588564D01*
X153555981Y-133595334D01*
X153533790Y-133592746D01*
X153519828Y-133585802D01*
X153490288Y-133543597D01*
X153479500Y-133486931D01*
X153484838Y-133444455D01*
X153507774Y-133411426D01*
X153558689Y-133377949D01*
X153631900Y-133341664D01*
X153810238Y-133256708D01*
X153975122Y-133176453D01*
X154118852Y-133104756D01*
X154233729Y-133045469D01*
X154312052Y-133002449D01*
X154325210Y-132994569D01*
X154408921Y-132942935D01*
X154299810Y-132847093D01*
X154220303Y-132775702D01*
X154127960Y-132690575D01*
X154063700Y-132630028D01*
X153990775Y-132564260D01*
X153938406Y-132529470D01*
X153893446Y-132518625D01*
X153860500Y-132521321D01*
X153617783Y-132561845D01*
X153419723Y-132596448D01*
X153260663Y-132626222D01*
X153134944Y-132652256D01*
X153036909Y-132675640D01*
X152985234Y-132689971D01*
X152896488Y-132715027D01*
X152841978Y-132724875D01*
X152807609Y-132719949D01*
X152779286Y-132700686D01*
X152774566Y-132696477D01*
X152740163Y-132640126D01*
X152742200Y-132580194D01*
X152779869Y-132536767D01*
X152781000Y-132536195D01*
X152837255Y-132516530D01*
X152933260Y-132491657D01*
X153058515Y-132463840D01*
X153074940Y-132460590D01*
X154132250Y-132460590D01*
X154155600Y-132489784D01*
X154207565Y-132541346D01*
X154278329Y-132606699D01*
X154358074Y-132677265D01*
X154436984Y-132744467D01*
X154505243Y-132799728D01*
X154553033Y-132834471D01*
X154568781Y-132842000D01*
X154600958Y-132829530D01*
X154667011Y-132795510D01*
X154757557Y-132745016D01*
X154863211Y-132683130D01*
X154871807Y-132677976D01*
X154990532Y-132605804D01*
X155106129Y-132534032D01*
X155204584Y-132471445D01*
X155266816Y-132430326D01*
X155344274Y-132377358D01*
X155446083Y-132307959D01*
X155554540Y-132234190D01*
X155594583Y-132207000D01*
X155677752Y-132147650D01*
X155737629Y-132099175D01*
X155766972Y-132067813D01*
X155765854Y-132059460D01*
X155732376Y-132062997D01*
X155657715Y-132076965D01*
X155549971Y-132099473D01*
X155417243Y-132128628D01*
X155267632Y-132162539D01*
X155109236Y-132199314D01*
X154950156Y-132237061D01*
X154798492Y-132273887D01*
X154662343Y-132307903D01*
X154549808Y-132337214D01*
X154468988Y-132359931D01*
X154441146Y-132368872D01*
X154347689Y-132396738D01*
X154247191Y-132419663D01*
X154233515Y-132422103D01*
X154169404Y-132437286D01*
X154134550Y-132454156D01*
X154132250Y-132460590D01*
X153074940Y-132460590D01*
X153202522Y-132435346D01*
X153354782Y-132408440D01*
X153425625Y-132397077D01*
X153535906Y-132378669D01*
X153629112Y-132360625D01*
X153692531Y-132345536D01*
X153711213Y-132338859D01*
X153717512Y-132319388D01*
X153698264Y-132278180D01*
X153650528Y-132210672D01*
X153571361Y-132112300D01*
X153544208Y-132079847D01*
X153460861Y-131977474D01*
X153385906Y-131879329D01*
X153327910Y-131797011D01*
X153296720Y-131744856D01*
X153250900Y-131649479D01*
X153073100Y-131667889D01*
X152968203Y-131675904D01*
X152834073Y-131682153D01*
X152692268Y-131685760D01*
X152621294Y-131686300D01*
X152492846Y-131684778D01*
X152406646Y-131679492D01*
X152354215Y-131669356D01*
X152327071Y-131653286D01*
X152323233Y-131648200D01*
X152302000Y-131587572D01*
X152302839Y-131524341D01*
X152325214Y-131482309D01*
X152327002Y-131481120D01*
X152362090Y-131474773D01*
X152437304Y-131470176D01*
X152541986Y-131467725D01*
X152665481Y-131467816D01*
X152680212Y-131468005D01*
X152809686Y-131468469D01*
X152925972Y-131466406D01*
X153016779Y-131462200D01*
X153069814Y-131456231D01*
X153071485Y-131455835D01*
X153108359Y-131441008D01*
X153124059Y-131415215D01*
X153116954Y-131371164D01*
X153085415Y-131301560D01*
X153027811Y-131199110D01*
X153005799Y-131161880D01*
X152966918Y-131093773D01*
X152937312Y-131031947D01*
X152913927Y-130965585D01*
X152893705Y-130883870D01*
X152873592Y-130775987D01*
X152850530Y-130631120D01*
X152844328Y-130590380D01*
X152817709Y-130415815D01*
X152788121Y-130223558D01*
X152758857Y-130034911D01*
X152733212Y-129871177D01*
X152729045Y-129844800D01*
X152706034Y-129655675D01*
X152817526Y-129655675D01*
X152829196Y-129768209D01*
X152854240Y-129923414D01*
X152893067Y-130124252D01*
X152895831Y-130137755D01*
X152926645Y-130291548D01*
X152954352Y-130436692D01*
X152976986Y-130562358D01*
X152992584Y-130657716D01*
X152998640Y-130704501D01*
X153017980Y-130795746D01*
X153056071Y-130901081D01*
X153085635Y-130962400D01*
X153140096Y-131063633D01*
X153201735Y-131180322D01*
X153243594Y-131260850D01*
X153325303Y-131419600D01*
X153524099Y-131419600D01*
X153619263Y-131423553D01*
X153750419Y-131434452D01*
X153903458Y-131450857D01*
X154064269Y-131471325D01*
X154147298Y-131483249D01*
X154272548Y-131501714D01*
X154378490Y-131515980D01*
X154473936Y-131526366D01*
X154567698Y-131533193D01*
X154668589Y-131536782D01*
X154785421Y-131537455D01*
X154927006Y-131535530D01*
X155102157Y-131531330D01*
X155308300Y-131525506D01*
X155498415Y-131520399D01*
X155673292Y-131516490D01*
X155826121Y-131513870D01*
X155950092Y-131512628D01*
X156038394Y-131512853D01*
X156084218Y-131514636D01*
X156087899Y-131515240D01*
X156122262Y-131545849D01*
X156146885Y-131602964D01*
X156154901Y-131663191D01*
X156142326Y-131700633D01*
X156112350Y-131706444D01*
X156037915Y-131712434D01*
X155925358Y-131718340D01*
X155781020Y-131723895D01*
X155611239Y-131728837D01*
X155422352Y-131732901D01*
X155333306Y-131734366D01*
X155078074Y-131737472D01*
X154864233Y-131738115D01*
X154682408Y-131735753D01*
X154523227Y-131729841D01*
X154377317Y-131719835D01*
X154235304Y-131705192D01*
X154087814Y-131685369D01*
X153925475Y-131659821D01*
X153860500Y-131648932D01*
X153748041Y-131634054D01*
X153629473Y-131624643D01*
X153572170Y-131622947D01*
X153436241Y-131622800D01*
X153495970Y-131723300D01*
X153552143Y-131807738D01*
X153627073Y-131906787D01*
X153711397Y-132009501D01*
X153795752Y-132104931D01*
X153870774Y-132182131D01*
X153927099Y-132230154D01*
X153932486Y-132233638D01*
X153957445Y-132248335D01*
X153981904Y-132258427D01*
X154011905Y-132262818D01*
X154053490Y-132260415D01*
X154112703Y-132250123D01*
X154195586Y-132230847D01*
X154308182Y-132201492D01*
X154456534Y-132160964D01*
X154646684Y-132108169D01*
X154686791Y-132097007D01*
X154856965Y-132050521D01*
X155040143Y-132001938D01*
X155218116Y-131956000D01*
X155372676Y-131917445D01*
X155423391Y-131905265D01*
X155607832Y-131862686D01*
X155749134Y-131833224D01*
X155853202Y-131816745D01*
X155925938Y-131813120D01*
X155973247Y-131822216D01*
X156001031Y-131843903D01*
X156015196Y-131878049D01*
X156017890Y-131892042D01*
X156010323Y-131969001D01*
X155962352Y-132017317D01*
X155897956Y-132031490D01*
X155816300Y-132033781D01*
X155898850Y-132057617D01*
X155955322Y-132080600D01*
X155977862Y-132117743D01*
X155981400Y-132170254D01*
X155973571Y-132235850D01*
X155942518Y-132271605D01*
X155915226Y-132284216D01*
X155871060Y-132306803D01*
X155794088Y-132352013D01*
X155693666Y-132414126D01*
X155579149Y-132487425D01*
X155527876Y-132520977D01*
X155395871Y-132606662D01*
X155260092Y-132692602D01*
X155134768Y-132769925D01*
X155034126Y-132829761D01*
X155016200Y-132839985D01*
X154927228Y-132891068D01*
X154855135Y-132934166D01*
X154811594Y-132962238D01*
X154805147Y-132967319D01*
X154817746Y-132986191D01*
X154867329Y-133022589D01*
X154945252Y-133071704D01*
X155042872Y-133128727D01*
X155151546Y-133188849D01*
X155262630Y-133247262D01*
X155367482Y-133299155D01*
X155457458Y-133339721D01*
X155511500Y-133360322D01*
X155590823Y-133388443D01*
X155688190Y-133425882D01*
X155791752Y-133467699D01*
X155889662Y-133508953D01*
X155970073Y-133544703D01*
X156021138Y-133570007D01*
X156032271Y-133577514D01*
X156108451Y-133630830D01*
X156229927Y-133677908D01*
X156391400Y-133717081D01*
X156558226Y-133743175D01*
X156683880Y-133758829D01*
X156797853Y-133773081D01*
X156886743Y-133784254D01*
X156933900Y-133790246D01*
X157003557Y-133793724D01*
X157099003Y-133791885D01*
X157201339Y-133785860D01*
X157291667Y-133776780D01*
X157351091Y-133765776D01*
X157353000Y-133765166D01*
X157393835Y-133755973D01*
X157471521Y-133741878D01*
X157572632Y-133725248D01*
X157628366Y-133716632D01*
X157788949Y-133685601D01*
X157968511Y-133639817D01*
X158153410Y-133583756D01*
X158330004Y-133521888D01*
X158484650Y-133458687D01*
X158603707Y-133398625D01*
X158610300Y-133394688D01*
X158657452Y-133365941D01*
X158731539Y-133320561D01*
X158813500Y-133270229D01*
X158908050Y-133215138D01*
X159001799Y-133165420D01*
X159065541Y-133135723D01*
X159182399Y-133071303D01*
X159324074Y-132963786D01*
X159443905Y-132857289D01*
X159494315Y-132817380D01*
X159530362Y-132801580D01*
X159535463Y-132802703D01*
X159564320Y-132794575D01*
X159608478Y-132758391D01*
X159614335Y-132752317D01*
X159673255Y-132689600D01*
X159586277Y-132686592D01*
X159521067Y-132685592D01*
X159479365Y-132687205D01*
X159477604Y-132687473D01*
X159446107Y-132684761D01*
X159373948Y-132674687D01*
X159270503Y-132658673D01*
X159145145Y-132638140D01*
X159083904Y-132627775D01*
X158934657Y-132603453D01*
X158786471Y-132581384D01*
X158654440Y-132563681D01*
X158553659Y-132552460D01*
X158535757Y-132550963D01*
X158432289Y-132541841D01*
X158337221Y-132531172D01*
X158277287Y-132522296D01*
X158223857Y-132517140D01*
X158186547Y-132533492D01*
X158148318Y-132581282D01*
X158131637Y-132607162D01*
X158014619Y-132748030D01*
X157865009Y-132859557D01*
X157695489Y-132933705D01*
X157577437Y-132958431D01*
X157433406Y-132954995D01*
X157277683Y-132917891D01*
X157130649Y-132852849D01*
X157074134Y-132816980D01*
X157025270Y-132788191D01*
X156998898Y-132784345D01*
X156997400Y-132788399D01*
X156975844Y-132818531D01*
X156920626Y-132858006D01*
X156845917Y-132899063D01*
X156765890Y-132933944D01*
X156694718Y-132954890D01*
X156692600Y-132955268D01*
X156574140Y-132961525D01*
X156430274Y-132948124D01*
X156280836Y-132918511D01*
X156145662Y-132876130D01*
X156087599Y-132850193D01*
X155988408Y-132793315D01*
X155931066Y-132742958D01*
X155908894Y-132690620D01*
X155914643Y-132630031D01*
X155948122Y-132577227D01*
X156006540Y-132562467D01*
X156080888Y-132586002D01*
X156135741Y-132623836D01*
X156221229Y-132673253D01*
X156339830Y-132712079D01*
X156474197Y-132735581D01*
X156563059Y-132740400D01*
X156696658Y-132725685D01*
X156792692Y-132680134D01*
X156855497Y-132601637D01*
X156857805Y-132596890D01*
X156876371Y-132551611D01*
X156886178Y-132504722D01*
X156887554Y-132443899D01*
X156880824Y-132356815D01*
X156867290Y-132239094D01*
X156834460Y-131970472D01*
X156650117Y-131815686D01*
X156542055Y-131717514D01*
X156521102Y-131691756D01*
X156819600Y-131691756D01*
X156829512Y-131711968D01*
X156865472Y-131748581D01*
X156912263Y-131788369D01*
X156954666Y-131818109D01*
X156973922Y-131825873D01*
X156999476Y-131809076D01*
X157039993Y-131768850D01*
X157095475Y-131703489D01*
X157112099Y-131667283D01*
X157086511Y-131654133D01*
X157015362Y-131657943D01*
X156981198Y-131661896D01*
X156899388Y-131673430D01*
X156840186Y-131684780D01*
X156819600Y-131691756D01*
X156521102Y-131691756D01*
X156479312Y-131640383D01*
X156462357Y-131581478D01*
X156491659Y-131537982D01*
X156567686Y-131507082D01*
X156690907Y-131485961D01*
X156705300Y-131484338D01*
X156814652Y-131469874D01*
X156941985Y-131449391D01*
X157035500Y-131432045D01*
X157145023Y-131412328D01*
X157253032Y-131396554D01*
X157326724Y-131388927D01*
X157399379Y-131387703D01*
X157440317Y-131401839D01*
X157468102Y-131439442D01*
X157475350Y-131453832D01*
X157494557Y-131502151D01*
X157489602Y-131538947D01*
X157455168Y-131583935D01*
X157434245Y-131606232D01*
X157383933Y-131663554D01*
X157315814Y-131747108D01*
X157241917Y-131842005D01*
X157215769Y-131876675D01*
X157073600Y-132067051D01*
X157075532Y-132257675D01*
X157081752Y-132403543D01*
X157100222Y-132509765D01*
X157135803Y-132586957D01*
X157193358Y-132645735D01*
X157276249Y-132695950D01*
X157364366Y-132734186D01*
X157447368Y-132759079D01*
X157490904Y-132764685D01*
X157633340Y-132740844D01*
X157770171Y-132679167D01*
X157887554Y-132588394D01*
X157971647Y-132477263D01*
X157982941Y-132454067D01*
X158004795Y-132404400D01*
X158025306Y-132364871D01*
X158049806Y-132335246D01*
X158083625Y-132315291D01*
X158132096Y-132304771D01*
X158200549Y-132303453D01*
X158294316Y-132311103D01*
X158418728Y-132327487D01*
X158579117Y-132352370D01*
X158780813Y-132385518D01*
X158940500Y-132412034D01*
X159099038Y-132437968D01*
X159220925Y-132456677D01*
X159319550Y-132469703D01*
X159408299Y-132478589D01*
X159500559Y-132484878D01*
X159609719Y-132490112D01*
X159623054Y-132490678D01*
X159823008Y-132499100D01*
X159946625Y-132259637D01*
X159996598Y-132161105D01*
X160035571Y-132080934D01*
X160058999Y-132028693D01*
X160063556Y-132013490D01*
X160035346Y-132012635D01*
X159969301Y-132019378D01*
X159877503Y-132031884D01*
X159772033Y-132048320D01*
X159664973Y-132066852D01*
X159568405Y-132085645D01*
X159524700Y-132095296D01*
X159456621Y-132106915D01*
X159346887Y-132120435D01*
X159204562Y-132134977D01*
X159038715Y-132149660D01*
X158858413Y-132163606D01*
X158731133Y-132172286D01*
X158521019Y-132185320D01*
X158356140Y-132193993D01*
X158231087Y-132197916D01*
X158140449Y-132196698D01*
X158078817Y-132189949D01*
X158040782Y-132177279D01*
X158020933Y-132158299D01*
X158013862Y-132132619D01*
X158013400Y-132120558D01*
X157992093Y-132092161D01*
X157940486Y-132063642D01*
X157937200Y-132062374D01*
X157884257Y-132030653D01*
X157865969Y-132001364D01*
X158330900Y-132001364D01*
X158483300Y-131990536D01*
X158569321Y-131985212D01*
X158689910Y-131978789D01*
X158828870Y-131972085D01*
X158965900Y-131966091D01*
X159108957Y-131957527D01*
X159251009Y-131944421D01*
X159375178Y-131928595D01*
X159461200Y-131912697D01*
X159561032Y-131891544D01*
X159690060Y-131868225D01*
X159827021Y-131846465D01*
X159890073Y-131837569D01*
X160000080Y-131821907D01*
X160089991Y-131807375D01*
X160148745Y-131795865D01*
X160165660Y-131790406D01*
X160179618Y-131762266D01*
X160205079Y-131699547D01*
X160236643Y-131615574D01*
X160238017Y-131611796D01*
X160269260Y-131520800D01*
X160277823Y-131468299D01*
X160257738Y-131449524D01*
X160203038Y-131459709D01*
X160107754Y-131494084D01*
X160096200Y-131498502D01*
X159982657Y-131539142D01*
X159863511Y-131575292D01*
X159726229Y-131610262D01*
X159558279Y-131647362D01*
X159445232Y-131670489D01*
X159302336Y-131702908D01*
X159145707Y-131744351D01*
X159002749Y-131787414D01*
X158963204Y-131800732D01*
X158830965Y-131845691D01*
X158685887Y-131893114D01*
X158555567Y-131934011D01*
X158534100Y-131940498D01*
X158330900Y-132001364D01*
X157865969Y-132001364D01*
X157861046Y-131993480D01*
X157861000Y-131992010D01*
X157873061Y-131962431D01*
X157912760Y-131933065D01*
X157985371Y-131901738D01*
X158096168Y-131866275D01*
X158250424Y-131824502D01*
X158294381Y-131813325D01*
X158440343Y-131773388D01*
X158606253Y-131723114D01*
X158764846Y-131670917D01*
X158826200Y-131649176D01*
X158957634Y-131605223D01*
X159118610Y-131557436D01*
X159288781Y-131511567D01*
X159447799Y-131473369D01*
X159448500Y-131473214D01*
X159608339Y-131435995D01*
X159780478Y-131392797D01*
X159944203Y-131348985D01*
X160078494Y-131310020D01*
X160194609Y-131273100D01*
X160282876Y-131238539D01*
X160348434Y-131198760D01*
X160396424Y-131146191D01*
X160431985Y-131073256D01*
X160460258Y-130972383D01*
X160486383Y-130835996D01*
X160513523Y-130668961D01*
X160537866Y-130510454D01*
X160553868Y-130387666D01*
X160562289Y-130286335D01*
X160563887Y-130192200D01*
X160559419Y-130091001D01*
X160550352Y-129976510D01*
X160537645Y-129755292D01*
X160541626Y-129546645D01*
X160555220Y-129382339D01*
X160566958Y-129237580D01*
X160573879Y-129085432D01*
X160575239Y-128947551D01*
X160572694Y-128874339D01*
X160564673Y-128781106D01*
X160551253Y-128660941D01*
X160533705Y-128522239D01*
X160513299Y-128373399D01*
X160491307Y-128222818D01*
X160469000Y-128078893D01*
X160447649Y-127950021D01*
X160428524Y-127844600D01*
X160412898Y-127771027D01*
X160402040Y-127737699D01*
X160400483Y-127736600D01*
X160373677Y-127750551D01*
X160316252Y-127787879D01*
X160238465Y-127841790D01*
X160199137Y-127869950D01*
X160107742Y-127935371D01*
X159988810Y-128019558D01*
X159856627Y-128112442D01*
X159725481Y-128203955D01*
X159703527Y-128219200D01*
X159577908Y-128308124D01*
X159452951Y-128399665D01*
X159341532Y-128484194D01*
X159256525Y-128552083D01*
X159242623Y-128563850D01*
X159162962Y-128628459D01*
X159054802Y-128710852D01*
X158931976Y-128800724D01*
X158808315Y-128887773D01*
X158800800Y-128892937D01*
X158692707Y-128967864D01*
X158598875Y-129034391D01*
X158527760Y-129086412D01*
X158487822Y-129117820D01*
X158483300Y-129122176D01*
X158448643Y-129150366D01*
X158385507Y-129193149D01*
X158328630Y-129228494D01*
X158199360Y-129305908D01*
X158061930Y-129254884D01*
X157963916Y-129223885D01*
X157842967Y-129193059D01*
X157734000Y-129170723D01*
X157621671Y-129149962D01*
X157511635Y-129127621D01*
X157429200Y-129108891D01*
X157361360Y-129096058D01*
X157256115Y-129081128D01*
X157126717Y-129065781D01*
X156986422Y-129051694D01*
X156955780Y-129048963D01*
X156796698Y-129036457D01*
X156669795Y-129030675D01*
X156556856Y-129031929D01*
X156439667Y-129040529D01*
X156300013Y-129056787D01*
X156269980Y-129060696D01*
X156078232Y-129086918D01*
X155927897Y-129110170D01*
X155809823Y-129132369D01*
X155714858Y-129155430D01*
X155633851Y-129181270D01*
X155566544Y-129207958D01*
X155458990Y-129247643D01*
X155378359Y-129256794D01*
X155309183Y-129232873D01*
X155235994Y-129173344D01*
X155212622Y-129149894D01*
X155145068Y-129090560D01*
X155047469Y-129017673D01*
X154934509Y-128941764D01*
X154851433Y-128890871D01*
X154737668Y-128821363D01*
X154629345Y-128749946D01*
X154540679Y-128686264D01*
X154495833Y-128649569D01*
X154414737Y-128580405D01*
X154328778Y-128518604D01*
X154228357Y-128458664D01*
X154103877Y-128395087D01*
X153945738Y-128322371D01*
X153856647Y-128283297D01*
X153698353Y-128214329D01*
X153577632Y-128160410D01*
X153485384Y-128116533D01*
X153412509Y-128077690D01*
X153349907Y-128038874D01*
X153288477Y-127995079D01*
X153219120Y-127941297D01*
X153183247Y-127912780D01*
X153092368Y-127842066D01*
X153029924Y-127803084D01*
X152989944Y-127799528D01*
X152966459Y-127835093D01*
X152953500Y-127913473D01*
X152945097Y-128038361D01*
X152943883Y-128060924D01*
X152934694Y-128197275D01*
X152921704Y-128346868D01*
X152907624Y-128478703D01*
X152906738Y-128485900D01*
X152895943Y-128586496D01*
X152883794Y-128722134D01*
X152871580Y-128877125D01*
X152860590Y-129035780D01*
X152857661Y-129082800D01*
X152848302Y-129228453D01*
X152838538Y-129364681D01*
X152829302Y-129479473D01*
X152821526Y-129560817D01*
X152818817Y-129582853D01*
X152817526Y-129655675D01*
X152706034Y-129655675D01*
X152694139Y-129557912D01*
X152679276Y-129258387D01*
X152684369Y-128935651D01*
X152709330Y-128579127D01*
X152717888Y-128491077D01*
X152731506Y-128348353D01*
X152742916Y-128211908D01*
X152751072Y-128095502D01*
X152754930Y-128012892D01*
X152755098Y-128000945D01*
X152771018Y-127880625D01*
X152812868Y-127764376D01*
X152873137Y-127668237D01*
X152937134Y-127612044D01*
X153002205Y-127589669D01*
X153072055Y-127598090D01*
X153154408Y-127640324D01*
X153256988Y-127719390D01*
X153293457Y-127751275D01*
X153466624Y-127881046D01*
X153688454Y-128005092D01*
X153719489Y-128020125D01*
X153916311Y-128114249D01*
X154072884Y-128189834D01*
X154194950Y-128249915D01*
X154288252Y-128297527D01*
X154358532Y-128335704D01*
X154411532Y-128367483D01*
X154452994Y-128395898D01*
X154488661Y-128423984D01*
X154497177Y-128431167D01*
X154613473Y-128522746D01*
X154758955Y-128626069D01*
X154917381Y-128730143D01*
X155072509Y-128823976D01*
X155103664Y-128841640D01*
X155193423Y-128897648D01*
X155270972Y-128956275D01*
X155319911Y-129005088D01*
X155320744Y-129006241D01*
X155371864Y-129078032D01*
X155543282Y-129004903D01*
X155634879Y-128968607D01*
X155713831Y-128942238D01*
X155763823Y-128931208D01*
X155765500Y-128931153D01*
X155816065Y-128925575D01*
X155897466Y-128911651D01*
X155981400Y-128894650D01*
X156173607Y-128854824D01*
X156328413Y-128827593D01*
X156457187Y-128811335D01*
X156571300Y-128804431D01*
X156617928Y-128803931D01*
X156726335Y-128808282D01*
X156869876Y-128819661D01*
X157033641Y-128836393D01*
X157202713Y-128856805D01*
X157362181Y-128879222D01*
X157497131Y-128901970D01*
X157505400Y-128903556D01*
X157603347Y-128922282D01*
X157724641Y-128945125D01*
X157840302Y-128966637D01*
X157949207Y-128990307D01*
X158051436Y-129018576D01*
X158125859Y-129045559D01*
X158129061Y-129047048D01*
X158209274Y-129074424D01*
X158256211Y-129068072D01*
X158288567Y-129045743D01*
X158354176Y-129000598D01*
X158444409Y-128938570D01*
X158550635Y-128865593D01*
X158585720Y-128841500D01*
X158714714Y-128751207D01*
X158848752Y-128654494D01*
X158972207Y-128562799D01*
X159069449Y-128487563D01*
X159071524Y-128485900D01*
X159171409Y-128406971D01*
X159272507Y-128329128D01*
X159357567Y-128265591D01*
X159380357Y-128249180D01*
X159459601Y-128191188D01*
X159531855Y-128135324D01*
X159562800Y-128109744D01*
X159609261Y-128074007D01*
X159687208Y-128018807D01*
X159785309Y-127952017D01*
X159880300Y-127889258D01*
X160019200Y-127798604D01*
X160122815Y-127730096D01*
X160198545Y-127678340D01*
X160253791Y-127637940D01*
X160295954Y-127603503D01*
X160332433Y-127569632D01*
X160367673Y-127533990D01*
X160420291Y-127484780D01*
X160461728Y-127461824D01*
X160494656Y-127469190D01*
G36*
X158407508Y-129898498D02*
X158469097Y-129903012D01*
X158608104Y-129924384D01*
X158714564Y-129967225D01*
X158799280Y-130039585D01*
X158873059Y-130149512D01*
X158916223Y-130236092D01*
X158981025Y-130394972D01*
X159014901Y-130531400D01*
X159019808Y-130661646D01*
X158997704Y-130801979D01*
X158988695Y-130838589D01*
X158960889Y-130936048D01*
X158932993Y-130999758D01*
X158895150Y-131045823D01*
X158837504Y-131090347D01*
X158832478Y-131093817D01*
X158642523Y-131201941D01*
X158454542Y-131265004D01*
X158273481Y-131281758D01*
X158153100Y-131265168D01*
X158042876Y-131223530D01*
X157931584Y-131157158D01*
X157835449Y-131077679D01*
X157770697Y-130996719D01*
X157765976Y-130987800D01*
X157730577Y-130872468D01*
X157724848Y-130799222D01*
X157912606Y-130799222D01*
X157934918Y-130885342D01*
X157997241Y-130957715D01*
X158089815Y-131012755D01*
X158202877Y-131046879D01*
X158326667Y-131056504D01*
X158451423Y-131038045D01*
X158508846Y-131018130D01*
X158629980Y-130962246D01*
X158711401Y-130911108D01*
X158762543Y-130856613D01*
X158792839Y-130790656D01*
X158798877Y-130769011D01*
X158821716Y-130666378D01*
X158823509Y-130596983D01*
X158797668Y-130547261D01*
X158737610Y-130503646D01*
X158647833Y-130457908D01*
X158517290Y-130404717D01*
X158410142Y-130387226D01*
X158312845Y-130406265D01*
X158211855Y-130462661D01*
X158179414Y-130486527D01*
X158060056Y-130582770D01*
X157979525Y-130660180D01*
X157932480Y-130725018D01*
X157913579Y-130783546D01*
X157912606Y-130799222D01*
X157724848Y-130799222D01*
X157719529Y-130731239D01*
X157732024Y-130582348D01*
X157767256Y-130444030D01*
X157792652Y-130385487D01*
X157900939Y-130213081D01*
X158024914Y-130083559D01*
X158125209Y-130017391D01*
X158194785Y-129976818D01*
X158246375Y-129937740D01*
X158257197Y-129925988D01*
X158282731Y-129906018D01*
X158328993Y-129897271D01*
X158407508Y-129898498D01*
X158407508Y-129898498D01*
G37*
X158407508Y-129898498D02*
X158469097Y-129903012D01*
X158608104Y-129924384D01*
X158714564Y-129967225D01*
X158799280Y-130039585D01*
X158873059Y-130149512D01*
X158916223Y-130236092D01*
X158981025Y-130394972D01*
X159014901Y-130531400D01*
X159019808Y-130661646D01*
X158997704Y-130801979D01*
X158988695Y-130838589D01*
X158960889Y-130936048D01*
X158932993Y-130999758D01*
X158895150Y-131045823D01*
X158837504Y-131090347D01*
X158832478Y-131093817D01*
X158642523Y-131201941D01*
X158454542Y-131265004D01*
X158273481Y-131281758D01*
X158153100Y-131265168D01*
X158042876Y-131223530D01*
X157931584Y-131157158D01*
X157835449Y-131077679D01*
X157770697Y-130996719D01*
X157765976Y-130987800D01*
X157730577Y-130872468D01*
X157724848Y-130799222D01*
X157912606Y-130799222D01*
X157934918Y-130885342D01*
X157997241Y-130957715D01*
X158089815Y-131012755D01*
X158202877Y-131046879D01*
X158326667Y-131056504D01*
X158451423Y-131038045D01*
X158508846Y-131018130D01*
X158629980Y-130962246D01*
X158711401Y-130911108D01*
X158762543Y-130856613D01*
X158792839Y-130790656D01*
X158798877Y-130769011D01*
X158821716Y-130666378D01*
X158823509Y-130596983D01*
X158797668Y-130547261D01*
X158737610Y-130503646D01*
X158647833Y-130457908D01*
X158517290Y-130404717D01*
X158410142Y-130387226D01*
X158312845Y-130406265D01*
X158211855Y-130462661D01*
X158179414Y-130486527D01*
X158060056Y-130582770D01*
X157979525Y-130660180D01*
X157932480Y-130725018D01*
X157913579Y-130783546D01*
X157912606Y-130799222D01*
X157724848Y-130799222D01*
X157719529Y-130731239D01*
X157732024Y-130582348D01*
X157767256Y-130444030D01*
X157792652Y-130385487D01*
X157900939Y-130213081D01*
X158024914Y-130083559D01*
X158125209Y-130017391D01*
X158194785Y-129976818D01*
X158246375Y-129937740D01*
X158257197Y-129925988D01*
X158282731Y-129906018D01*
X158328993Y-129897271D01*
X158407508Y-129898498D01*
G36*
X155618617Y-129781365D02*
X155689300Y-129796654D01*
X155769349Y-129835532D01*
X155864159Y-129907074D01*
X155962657Y-130000200D01*
X156053772Y-130103833D01*
X156126430Y-130206894D01*
X156156806Y-130264404D01*
X156218323Y-130423545D01*
X156245869Y-130554591D01*
X156238440Y-130668098D01*
X156195028Y-130774622D01*
X156114629Y-130884720D01*
X156095637Y-130906304D01*
X155948693Y-131034644D01*
X155779671Y-131121761D01*
X155597074Y-131164827D01*
X155409399Y-131161015D01*
X155358620Y-131151505D01*
X155234561Y-131117428D01*
X155146109Y-131073529D01*
X155081653Y-131009101D01*
X155029582Y-130913436D01*
X154990824Y-130812327D01*
X154950142Y-130641974D01*
X154947691Y-130578620D01*
X155115374Y-130578620D01*
X155173854Y-130726060D01*
X155211959Y-130812183D01*
X155248071Y-130863275D01*
X155293731Y-130893269D01*
X155321117Y-130903816D01*
X155464066Y-130931839D01*
X155611888Y-130925587D01*
X155740100Y-130887066D01*
X155871745Y-130805828D01*
X155964974Y-130710971D01*
X156018546Y-130608926D01*
X156031219Y-130506127D01*
X156001750Y-130409006D01*
X155928899Y-130323995D01*
X155857627Y-130278246D01*
X155808235Y-130255069D01*
X155764254Y-130243310D01*
X155713714Y-130243787D01*
X155644648Y-130257315D01*
X155545088Y-130284712D01*
X155479452Y-130304070D01*
X155365277Y-130340075D01*
X155288105Y-130371769D01*
X155235530Y-130406630D01*
X155195140Y-130452138D01*
X155169657Y-130490788D01*
X155115374Y-130578620D01*
X154947691Y-130578620D01*
X154943537Y-130471291D01*
X154968775Y-130309880D01*
X155023623Y-130167339D01*
X155105848Y-130053270D01*
X155181210Y-129993887D01*
X155240847Y-129945462D01*
X155278043Y-129891001D01*
X155280604Y-129883001D01*
X155319150Y-129826795D01*
X155395244Y-129789661D01*
X155498521Y-129773788D01*
X155618617Y-129781365D01*
X155618617Y-129781365D01*
G37*
X155618617Y-129781365D02*
X155689300Y-129796654D01*
X155769349Y-129835532D01*
X155864159Y-129907074D01*
X155962657Y-130000200D01*
X156053772Y-130103833D01*
X156126430Y-130206894D01*
X156156806Y-130264404D01*
X156218323Y-130423545D01*
X156245869Y-130554591D01*
X156238440Y-130668098D01*
X156195028Y-130774622D01*
X156114629Y-130884720D01*
X156095637Y-130906304D01*
X155948693Y-131034644D01*
X155779671Y-131121761D01*
X155597074Y-131164827D01*
X155409399Y-131161015D01*
X155358620Y-131151505D01*
X155234561Y-131117428D01*
X155146109Y-131073529D01*
X155081653Y-131009101D01*
X155029582Y-130913436D01*
X154990824Y-130812327D01*
X154950142Y-130641974D01*
X154947691Y-130578620D01*
X155115374Y-130578620D01*
X155173854Y-130726060D01*
X155211959Y-130812183D01*
X155248071Y-130863275D01*
X155293731Y-130893269D01*
X155321117Y-130903816D01*
X155464066Y-130931839D01*
X155611888Y-130925587D01*
X155740100Y-130887066D01*
X155871745Y-130805828D01*
X155964974Y-130710971D01*
X156018546Y-130608926D01*
X156031219Y-130506127D01*
X156001750Y-130409006D01*
X155928899Y-130323995D01*
X155857627Y-130278246D01*
X155808235Y-130255069D01*
X155764254Y-130243310D01*
X155713714Y-130243787D01*
X155644648Y-130257315D01*
X155545088Y-130284712D01*
X155479452Y-130304070D01*
X155365277Y-130340075D01*
X155288105Y-130371769D01*
X155235530Y-130406630D01*
X155195140Y-130452138D01*
X155169657Y-130490788D01*
X155115374Y-130578620D01*
X154947691Y-130578620D01*
X154943537Y-130471291D01*
X154968775Y-130309880D01*
X155023623Y-130167339D01*
X155105848Y-130053270D01*
X155181210Y-129993887D01*
X155240847Y-129945462D01*
X155278043Y-129891001D01*
X155280604Y-129883001D01*
X155319150Y-129826795D01*
X155395244Y-129789661D01*
X155498521Y-129773788D01*
X155618617Y-129781365D01*
G36*
X160039586Y-128296599D02*
X160105153Y-128331924D01*
X160149764Y-128376854D01*
X160150893Y-128378874D01*
X160162788Y-128428513D01*
X160170787Y-128518844D01*
X160175067Y-128639921D01*
X160175807Y-128781799D01*
X160173183Y-128934534D01*
X160167375Y-129088179D01*
X160158560Y-129232790D01*
X160146917Y-129358423D01*
X160132623Y-129455131D01*
X160131528Y-129460558D01*
X160112421Y-129578159D01*
X160100685Y-129700423D01*
X160098772Y-129792670D01*
X160095460Y-129906728D01*
X160075384Y-129977008D01*
X160039910Y-130001903D01*
X159990405Y-129979805D01*
X159962700Y-129952750D01*
X159940651Y-129898545D01*
X159930933Y-129807464D01*
X159933199Y-129691824D01*
X159947102Y-129563939D01*
X159972294Y-129436127D01*
X159977866Y-129414580D01*
X159996032Y-129314948D01*
X160009357Y-129172872D01*
X160017181Y-128996539D01*
X160018727Y-128908545D01*
X160020897Y-128776237D01*
X160024354Y-128662053D01*
X160028688Y-128575620D01*
X160033484Y-128526566D01*
X160035410Y-128519614D01*
X160036748Y-128481121D01*
X160033371Y-128474287D01*
X160012631Y-128484864D01*
X159963074Y-128528142D01*
X159889864Y-128599062D01*
X159798164Y-128692561D01*
X159693136Y-128803579D01*
X159651146Y-128848937D01*
X159471450Y-129041314D01*
X159320927Y-129195670D01*
X159197146Y-129313752D01*
X159097674Y-129397310D01*
X159020078Y-129448091D01*
X158961926Y-129467844D01*
X158920785Y-129458317D01*
X158894223Y-129421259D01*
X158886910Y-129398228D01*
X158883449Y-129352357D01*
X158905290Y-129310858D01*
X158960829Y-129258762D01*
X158968823Y-129252178D01*
X159014094Y-129211601D01*
X159088559Y-129140736D01*
X159185983Y-129045701D01*
X159300132Y-128932614D01*
X159424769Y-128807593D01*
X159511847Y-128719377D01*
X159956500Y-128267055D01*
X160039586Y-128296599D01*
X160039586Y-128296599D01*
G37*
X160039586Y-128296599D02*
X160105153Y-128331924D01*
X160149764Y-128376854D01*
X160150893Y-128378874D01*
X160162788Y-128428513D01*
X160170787Y-128518844D01*
X160175067Y-128639921D01*
X160175807Y-128781799D01*
X160173183Y-128934534D01*
X160167375Y-129088179D01*
X160158560Y-129232790D01*
X160146917Y-129358423D01*
X160132623Y-129455131D01*
X160131528Y-129460558D01*
X160112421Y-129578159D01*
X160100685Y-129700423D01*
X160098772Y-129792670D01*
X160095460Y-129906728D01*
X160075384Y-129977008D01*
X160039910Y-130001903D01*
X159990405Y-129979805D01*
X159962700Y-129952750D01*
X159940651Y-129898545D01*
X159930933Y-129807464D01*
X159933199Y-129691824D01*
X159947102Y-129563939D01*
X159972294Y-129436127D01*
X159977866Y-129414580D01*
X159996032Y-129314948D01*
X160009357Y-129172872D01*
X160017181Y-128996539D01*
X160018727Y-128908545D01*
X160020897Y-128776237D01*
X160024354Y-128662053D01*
X160028688Y-128575620D01*
X160033484Y-128526566D01*
X160035410Y-128519614D01*
X160036748Y-128481121D01*
X160033371Y-128474287D01*
X160012631Y-128484864D01*
X159963074Y-128528142D01*
X159889864Y-128599062D01*
X159798164Y-128692561D01*
X159693136Y-128803579D01*
X159651146Y-128848937D01*
X159471450Y-129041314D01*
X159320927Y-129195670D01*
X159197146Y-129313752D01*
X159097674Y-129397310D01*
X159020078Y-129448091D01*
X158961926Y-129467844D01*
X158920785Y-129458317D01*
X158894223Y-129421259D01*
X158886910Y-129398228D01*
X158883449Y-129352357D01*
X158905290Y-129310858D01*
X158960829Y-129258762D01*
X158968823Y-129252178D01*
X159014094Y-129211601D01*
X159088559Y-129140736D01*
X159185983Y-129045701D01*
X159300132Y-128932614D01*
X159424769Y-128807593D01*
X159511847Y-128719377D01*
X159956500Y-128267055D01*
X160039586Y-128296599D01*
G36*
X153251351Y-128412453D02*
X153323508Y-128452485D01*
X153403689Y-128507598D01*
X153477066Y-128568296D01*
X153492200Y-128582822D01*
X153678013Y-128768359D01*
X153830511Y-128921936D01*
X153952782Y-129047018D01*
X154047920Y-129147073D01*
X154119014Y-129225567D01*
X154169155Y-129285967D01*
X154201436Y-129331739D01*
X154218946Y-129366351D01*
X154224778Y-129393270D01*
X154224393Y-129403991D01*
X154198764Y-129463701D01*
X154148789Y-129488373D01*
X154088545Y-129476205D01*
X154034241Y-129428360D01*
X154001624Y-129389346D01*
X153940547Y-129321217D01*
X153857836Y-129231404D01*
X153760320Y-129127336D01*
X153677624Y-129040266D01*
X153367748Y-128715943D01*
X153368671Y-129261321D01*
X153367690Y-129449186D01*
X153364253Y-129611154D01*
X153358630Y-129740886D01*
X153351088Y-129832044D01*
X153342625Y-129876550D01*
X153305329Y-129932530D01*
X153259338Y-129943705D01*
X153219265Y-129914650D01*
X153211471Y-129881027D01*
X153203365Y-129803925D01*
X153195412Y-129690658D01*
X153188080Y-129548540D01*
X153181835Y-129384885D01*
X153178837Y-129280705D01*
X153172324Y-129063260D01*
X153164832Y-128891946D01*
X153156008Y-128762099D01*
X153145503Y-128669054D01*
X153132966Y-128608146D01*
X153126972Y-128590936D01*
X153105043Y-128527638D01*
X153107567Y-128485318D01*
X153127631Y-128450180D01*
X153169490Y-128409453D01*
X153202045Y-128397000D01*
X153251351Y-128412453D01*
X153251351Y-128412453D01*
G37*
X153251351Y-128412453D02*
X153323508Y-128452485D01*
X153403689Y-128507598D01*
X153477066Y-128568296D01*
X153492200Y-128582822D01*
X153678013Y-128768359D01*
X153830511Y-128921936D01*
X153952782Y-129047018D01*
X154047920Y-129147073D01*
X154119014Y-129225567D01*
X154169155Y-129285967D01*
X154201436Y-129331739D01*
X154218946Y-129366351D01*
X154224778Y-129393270D01*
X154224393Y-129403991D01*
X154198764Y-129463701D01*
X154148789Y-129488373D01*
X154088545Y-129476205D01*
X154034241Y-129428360D01*
X154001624Y-129389346D01*
X153940547Y-129321217D01*
X153857836Y-129231404D01*
X153760320Y-129127336D01*
X153677624Y-129040266D01*
X153367748Y-128715943D01*
X153368671Y-129261321D01*
X153367690Y-129449186D01*
X153364253Y-129611154D01*
X153358630Y-129740886D01*
X153351088Y-129832044D01*
X153342625Y-129876550D01*
X153305329Y-129932530D01*
X153259338Y-129943705D01*
X153219265Y-129914650D01*
X153211471Y-129881027D01*
X153203365Y-129803925D01*
X153195412Y-129690658D01*
X153188080Y-129548540D01*
X153181835Y-129384885D01*
X153178837Y-129280705D01*
X153172324Y-129063260D01*
X153164832Y-128891946D01*
X153156008Y-128762099D01*
X153145503Y-128669054D01*
X153132966Y-128608146D01*
X153126972Y-128590936D01*
X153105043Y-128527638D01*
X153107567Y-128485318D01*
X153127631Y-128450180D01*
X153169490Y-128409453D01*
X153202045Y-128397000D01*
X153251351Y-128412453D01*
G36*
X158448331Y-130472438D02*
X158509947Y-130519138D01*
X158547054Y-130594870D01*
X158563520Y-130664238D01*
X158553985Y-130715534D01*
X158535802Y-130747465D01*
X158476563Y-130795857D01*
X158394953Y-130810665D01*
X158307975Y-130790402D01*
X158273051Y-130770459D01*
X158223152Y-130709950D01*
X158213082Y-130636680D01*
X158238804Y-130563509D01*
X158296281Y-130503294D01*
X158366756Y-130471986D01*
X158448331Y-130472438D01*
X158448331Y-130472438D01*
G37*
X158448331Y-130472438D02*
X158509947Y-130519138D01*
X158547054Y-130594870D01*
X158563520Y-130664238D01*
X158553985Y-130715534D01*
X158535802Y-130747465D01*
X158476563Y-130795857D01*
X158394953Y-130810665D01*
X158307975Y-130790402D01*
X158273051Y-130770459D01*
X158223152Y-130709950D01*
X158213082Y-130636680D01*
X158238804Y-130563509D01*
X158296281Y-130503294D01*
X158366756Y-130471986D01*
X158448331Y-130472438D01*
G36*
X155682357Y-130349298D02*
X155727649Y-130418814D01*
X155740811Y-130460892D01*
X155747033Y-130565655D01*
X155710339Y-130648780D01*
X155652093Y-130695238D01*
X155560007Y-130729314D01*
X155486227Y-130722191D01*
X155429373Y-130683859D01*
X155370142Y-130614347D01*
X155355865Y-130551262D01*
X155387081Y-130484916D01*
X155443798Y-130424255D01*
X155539362Y-130351887D01*
X155619238Y-130326945D01*
X155682357Y-130349298D01*
X155682357Y-130349298D01*
G37*
X155682357Y-130349298D02*
X155727649Y-130418814D01*
X155740811Y-130460892D01*
X155747033Y-130565655D01*
X155710339Y-130648780D01*
X155652093Y-130695238D01*
X155560007Y-130729314D01*
X155486227Y-130722191D01*
X155429373Y-130683859D01*
X155370142Y-130614347D01*
X155355865Y-130551262D01*
X155387081Y-130484916D01*
X155443798Y-130424255D01*
X155539362Y-130351887D01*
X155619238Y-130326945D01*
X155682357Y-130349298D01*
D11*
X155876738Y-126664981D02*
X155876738Y-125998314D01*
X155876738Y-126093552D02*
X155924357Y-126045933D01*
X156019595Y-125998314D01*
X156162453Y-125998314D01*
X156257691Y-126045933D01*
X156305310Y-126141171D01*
X156305310Y-126664981D01*
X156305310Y-126141171D02*
X156352929Y-126045933D01*
X156448167Y-125998314D01*
X156591024Y-125998314D01*
X156686262Y-126045933D01*
X156733881Y-126141171D01*
X156733881Y-126664981D01*
X157733881Y-126664981D02*
X157162452Y-126664981D01*
X157448166Y-126664981D02*
X157448166Y-125664981D01*
X157352928Y-125807838D01*
X157257690Y-125903076D01*
X157162452Y-125950695D01*
X156460867Y-148857381D02*
X156460867Y-149571667D01*
X156413247Y-149714524D01*
X156318009Y-149809762D01*
X156175152Y-149857381D01*
X156079914Y-149857381D01*
X157460867Y-149857381D02*
X156889438Y-149857381D01*
X157175152Y-149857381D02*
X157175152Y-148857381D01*
X157079914Y-149000238D01*
X156984676Y-149095476D01*
X156889438Y-149143095D01*
X145107067Y-122471381D02*
X145107067Y-123185667D01*
X145059447Y-123328524D01*
X144964209Y-123423762D01*
X144821352Y-123471381D01*
X144726114Y-123471381D01*
X145535638Y-122566619D02*
X145583257Y-122519000D01*
X145678495Y-122471381D01*
X145916591Y-122471381D01*
X146011829Y-122519000D01*
X146059448Y-122566619D01*
X146107067Y-122661857D01*
X146107067Y-122757095D01*
X146059448Y-122899952D01*
X145488019Y-123471381D01*
X146107067Y-123471381D01*
X144702305Y-133631381D02*
X144702305Y-132631381D01*
X145083258Y-132631381D01*
X145178496Y-132679000D01*
X145226115Y-132726619D01*
X145273734Y-132821857D01*
X145273734Y-132964714D01*
X145226115Y-133059952D01*
X145178496Y-133107571D01*
X145083258Y-133155190D01*
X144702305Y-133155190D01*
X146226115Y-133631381D02*
X145654686Y-133631381D01*
X145940400Y-133631381D02*
X145940400Y-132631381D01*
X145845162Y-132774238D01*
X145749924Y-132869476D01*
X145654686Y-132917095D01*
X167562305Y-133631381D02*
X167562305Y-132631381D01*
X167943258Y-132631381D01*
X168038496Y-132679000D01*
X168086115Y-132726619D01*
X168133734Y-132821857D01*
X168133734Y-132964714D01*
X168086115Y-133059952D01*
X168038496Y-133107571D01*
X167943258Y-133155190D01*
X167562305Y-133155190D01*
X168514686Y-132726619D02*
X168562305Y-132679000D01*
X168657543Y-132631381D01*
X168895639Y-132631381D01*
X168990877Y-132679000D01*
X169038496Y-132726619D01*
X169086115Y-132821857D01*
X169086115Y-132917095D01*
X169038496Y-133059952D01*
X168467067Y-133631381D01*
X169086115Y-133631381D01*
X167409905Y-121312381D02*
X167409905Y-120312381D01*
X167790858Y-120312381D01*
X167886096Y-120360000D01*
X167933715Y-120407619D01*
X167981334Y-120502857D01*
X167981334Y-120645714D01*
X167933715Y-120740952D01*
X167886096Y-120788571D01*
X167790858Y-120836190D01*
X167409905Y-120836190D01*
X168314667Y-120312381D02*
X168933715Y-120312381D01*
X168600381Y-120693333D01*
X168743239Y-120693333D01*
X168838477Y-120740952D01*
X168886096Y-120788571D01*
X168933715Y-120883810D01*
X168933715Y-121121905D01*
X168886096Y-121217143D01*
X168838477Y-121264762D01*
X168743239Y-121312381D01*
X168457524Y-121312381D01*
X168362286Y-121264762D01*
X168314667Y-121217143D01*
X156729134Y-112311781D02*
X156395800Y-111835590D01*
X156157705Y-112311781D02*
X156157705Y-111311781D01*
X156538658Y-111311781D01*
X156633896Y-111359400D01*
X156681515Y-111407019D01*
X156729134Y-111502257D01*
X156729134Y-111645114D01*
X156681515Y-111740352D01*
X156633896Y-111787971D01*
X156538658Y-111835590D01*
X156157705Y-111835590D01*
X157681515Y-112311781D02*
X157110086Y-112311781D01*
X157395800Y-112311781D02*
X157395800Y-111311781D01*
X157300562Y-111454638D01*
X157205324Y-111549876D01*
X157110086Y-111597495D01*
X162775162Y-121530905D02*
X162822781Y-121388048D01*
X162822781Y-121149952D01*
X162775162Y-121054714D01*
X162727543Y-121007095D01*
X162632305Y-120959476D01*
X162537067Y-120959476D01*
X162441829Y-121007095D01*
X162394210Y-121054714D01*
X162346590Y-121149952D01*
X162298971Y-121340429D01*
X162251352Y-121435667D01*
X162203733Y-121483286D01*
X162108495Y-121530905D01*
X162013257Y-121530905D01*
X161918019Y-121483286D01*
X161870400Y-121435667D01*
X161822781Y-121340429D01*
X161822781Y-121102333D01*
X161870400Y-120959476D01*
X162822781Y-120530905D02*
X161822781Y-120530905D01*
X161822781Y-120149952D01*
X161870400Y-120054714D01*
X161918019Y-120007095D01*
X162013257Y-119959476D01*
X162156114Y-119959476D01*
X162251352Y-120007095D01*
X162298971Y-120054714D01*
X162346590Y-120149952D01*
X162346590Y-120530905D01*
X162822781Y-119007095D02*
X162822781Y-119578524D01*
X162822781Y-119292810D02*
X161822781Y-119292810D01*
X161965638Y-119388048D01*
X162060876Y-119483286D01*
X162108495Y-119578524D01*
M02*
