G04 #@! TF.FileFunction,Copper,L1,Top,Signal*
%FSLAX46Y46*%
G04 Gerber Fmt 4.6, Leading zero omitted, Abs format (unit mm)*
G04 Created by KiCad (PCBNEW 4.0.7) date 06/11/18 13:15:31*
%MOMM*%
%LPD*%
G01*
G04 APERTURE LIST*
%ADD10C,0.100000*%
%ADD11C,1.524000*%
%ADD12R,1.000000X5.500000*%
%ADD13R,1.600000X3.000000*%
%ADD14R,1.700000X1.700000*%
%ADD15O,1.700000X1.700000*%
%ADD16R,1.200000X0.900000*%
%ADD17R,3.400000X1.300000*%
%ADD18C,0.250000*%
%ADD19C,0.254000*%
G04 APERTURE END LIST*
D10*
D11*
X150431500Y-114522600D03*
X150431500Y-117062600D03*
X150431500Y-119602600D03*
X150431500Y-122142600D03*
X150431500Y-124682600D03*
X163131500Y-114522600D03*
X163131500Y-117062600D03*
X163131500Y-119602600D03*
X163131500Y-122142600D03*
X163131500Y-124682600D03*
D12*
X157794200Y-143655000D03*
X155794200Y-143655000D03*
D13*
X160194200Y-145905000D03*
X153394200Y-145905000D03*
D14*
X145440400Y-125349000D03*
D15*
X145440400Y-127889000D03*
D14*
X145440400Y-135509000D03*
D15*
X145440400Y-138049000D03*
X145440400Y-140589000D03*
D14*
X168300400Y-135509000D03*
D15*
X168300400Y-138049000D03*
X168300400Y-140589000D03*
D14*
X168148000Y-123190000D03*
D15*
X168148000Y-125730000D03*
X168148000Y-128270000D03*
D16*
X155795800Y-113309400D03*
X157995800Y-113309400D03*
D17*
X156870400Y-115919000D03*
X156870400Y-124619000D03*
D18*
X163131500Y-114522600D02*
X163214400Y-114522600D01*
X163131500Y-122142600D02*
X162540600Y-122142600D01*
X147421600Y-120072500D02*
X150431500Y-117062600D01*
X147421600Y-140512800D02*
X147421600Y-120072500D01*
X147345400Y-140589000D02*
X147421600Y-140512800D01*
X145440400Y-140589000D02*
X147345400Y-140589000D01*
X168300400Y-140589000D02*
X164785040Y-140589000D01*
X148325840Y-124248260D02*
X150431500Y-122142600D01*
X148325840Y-127370840D02*
X148325840Y-124248260D01*
X149255480Y-128300480D02*
X148325840Y-127370840D01*
X149255480Y-135956040D02*
X149255480Y-128300480D01*
X152608280Y-139308840D02*
X149255480Y-135956040D01*
X163504880Y-139308840D02*
X152608280Y-139308840D01*
X164785040Y-140589000D02*
X163504880Y-139308840D01*
X163131500Y-119602600D02*
X165017800Y-119602600D01*
X165633400Y-125755400D02*
X168148000Y-128270000D01*
X165633400Y-120218200D02*
X165633400Y-125755400D01*
X165017800Y-119602600D02*
X165633400Y-120218200D01*
X156870400Y-115919000D02*
X156870400Y-113360200D01*
X156921200Y-113309400D02*
X156946600Y-113309400D01*
X156870400Y-113360200D02*
X156921200Y-113309400D01*
D19*
G36*
X163938579Y-112813017D02*
X170124490Y-116946310D01*
X174257783Y-123132221D01*
X175709203Y-130429000D01*
X174257783Y-137725779D01*
X170124490Y-143911690D01*
X163938579Y-148044983D01*
X156641800Y-149496403D01*
X149345021Y-148044983D01*
X143897401Y-144405000D01*
X151946760Y-144405000D01*
X151946760Y-147405000D01*
X151991038Y-147640317D01*
X152130110Y-147856441D01*
X152342310Y-148001431D01*
X152594200Y-148052440D01*
X154194200Y-148052440D01*
X154429517Y-148008162D01*
X154645641Y-147869090D01*
X154790631Y-147656890D01*
X154841640Y-147405000D01*
X154841640Y-146864319D01*
X155042310Y-147001431D01*
X155294200Y-147052440D01*
X156294200Y-147052440D01*
X156529517Y-147008162D01*
X156745641Y-146869090D01*
X156792169Y-146800994D01*
X156934502Y-146943327D01*
X157167891Y-147040000D01*
X157508450Y-147040000D01*
X157667200Y-146881250D01*
X157667200Y-143782000D01*
X157921200Y-143782000D01*
X157921200Y-146881250D01*
X158079950Y-147040000D01*
X158420509Y-147040000D01*
X158653898Y-146943327D01*
X158746760Y-146850466D01*
X158746760Y-147405000D01*
X158791038Y-147640317D01*
X158930110Y-147856441D01*
X159142310Y-148001431D01*
X159394200Y-148052440D01*
X160994200Y-148052440D01*
X161229517Y-148008162D01*
X161445641Y-147869090D01*
X161590631Y-147656890D01*
X161641640Y-147405000D01*
X161641640Y-144405000D01*
X161597362Y-144169683D01*
X161458290Y-143953559D01*
X161246090Y-143808569D01*
X160994200Y-143757560D01*
X159394200Y-143757560D01*
X159158883Y-143801838D01*
X158942759Y-143940910D01*
X158929200Y-143960754D01*
X158929200Y-143940750D01*
X158770450Y-143782000D01*
X157921200Y-143782000D01*
X157667200Y-143782000D01*
X157647200Y-143782000D01*
X157647200Y-143528000D01*
X157667200Y-143528000D01*
X157667200Y-140428750D01*
X157921200Y-140428750D01*
X157921200Y-143528000D01*
X158770450Y-143528000D01*
X158929200Y-143369250D01*
X158929200Y-140778690D01*
X158850628Y-140589000D01*
X166786307Y-140589000D01*
X166899346Y-141157285D01*
X167221253Y-141639054D01*
X167703022Y-141960961D01*
X168271307Y-142074000D01*
X168329493Y-142074000D01*
X168897778Y-141960961D01*
X169379547Y-141639054D01*
X169701454Y-141157285D01*
X169814493Y-140589000D01*
X169701454Y-140020715D01*
X169379547Y-139538946D01*
X169038847Y-139311298D01*
X169181758Y-139244183D01*
X169572045Y-138815924D01*
X169741876Y-138405890D01*
X169620555Y-138176000D01*
X168427400Y-138176000D01*
X168427400Y-138196000D01*
X168173400Y-138196000D01*
X168173400Y-138176000D01*
X166980245Y-138176000D01*
X166858924Y-138405890D01*
X167028755Y-138815924D01*
X167419042Y-139244183D01*
X167561953Y-139311298D01*
X167221253Y-139538946D01*
X166899346Y-140020715D01*
X166786307Y-140589000D01*
X158850628Y-140589000D01*
X158832527Y-140545301D01*
X158653898Y-140366673D01*
X158420509Y-140270000D01*
X158079950Y-140270000D01*
X157921200Y-140428750D01*
X157667200Y-140428750D01*
X157508450Y-140270000D01*
X157167891Y-140270000D01*
X156934502Y-140366673D01*
X156793264Y-140507910D01*
X156758290Y-140453559D01*
X156546090Y-140308569D01*
X156294200Y-140257560D01*
X155294200Y-140257560D01*
X155058883Y-140301838D01*
X154842759Y-140440910D01*
X154697769Y-140653110D01*
X154646760Y-140905000D01*
X154646760Y-143945681D01*
X154446090Y-143808569D01*
X154194200Y-143757560D01*
X152594200Y-143757560D01*
X152358883Y-143801838D01*
X152142759Y-143940910D01*
X151997769Y-144153110D01*
X151946760Y-144405000D01*
X143897401Y-144405000D01*
X143159110Y-143911690D01*
X140938960Y-140589000D01*
X143926307Y-140589000D01*
X144039346Y-141157285D01*
X144361253Y-141639054D01*
X144843022Y-141960961D01*
X145411307Y-142074000D01*
X145469493Y-142074000D01*
X146037778Y-141960961D01*
X146519547Y-141639054D01*
X146841454Y-141157285D01*
X146954493Y-140589000D01*
X146841454Y-140020715D01*
X146519547Y-139538946D01*
X146178847Y-139311298D01*
X146321758Y-139244183D01*
X146712045Y-138815924D01*
X146881876Y-138405890D01*
X146760555Y-138176000D01*
X145567400Y-138176000D01*
X145567400Y-138196000D01*
X145313400Y-138196000D01*
X145313400Y-138176000D01*
X144120245Y-138176000D01*
X143998924Y-138405890D01*
X144168755Y-138815924D01*
X144559042Y-139244183D01*
X144701953Y-139311298D01*
X144361253Y-139538946D01*
X144039346Y-140020715D01*
X143926307Y-140589000D01*
X140938960Y-140589000D01*
X139025817Y-137725779D01*
X138415797Y-134659000D01*
X143942960Y-134659000D01*
X143942960Y-136359000D01*
X143987238Y-136594317D01*
X144126310Y-136810441D01*
X144338510Y-136955431D01*
X144446507Y-136977301D01*
X144168755Y-137282076D01*
X143998924Y-137692110D01*
X144120245Y-137922000D01*
X145313400Y-137922000D01*
X145313400Y-137902000D01*
X145567400Y-137902000D01*
X145567400Y-137922000D01*
X146760555Y-137922000D01*
X146881876Y-137692110D01*
X146712045Y-137282076D01*
X146435899Y-136979063D01*
X146525717Y-136962162D01*
X146741841Y-136823090D01*
X146886831Y-136610890D01*
X146937840Y-136359000D01*
X146937840Y-134659000D01*
X166802960Y-134659000D01*
X166802960Y-136359000D01*
X166847238Y-136594317D01*
X166986310Y-136810441D01*
X167198510Y-136955431D01*
X167306507Y-136977301D01*
X167028755Y-137282076D01*
X166858924Y-137692110D01*
X166980245Y-137922000D01*
X168173400Y-137922000D01*
X168173400Y-137902000D01*
X168427400Y-137902000D01*
X168427400Y-137922000D01*
X169620555Y-137922000D01*
X169741876Y-137692110D01*
X169572045Y-137282076D01*
X169295899Y-136979063D01*
X169385717Y-136962162D01*
X169601841Y-136823090D01*
X169746831Y-136610890D01*
X169797840Y-136359000D01*
X169797840Y-134659000D01*
X169753562Y-134423683D01*
X169614490Y-134207559D01*
X169402290Y-134062569D01*
X169150400Y-134011560D01*
X167450400Y-134011560D01*
X167215083Y-134055838D01*
X166998959Y-134194910D01*
X166853969Y-134407110D01*
X166802960Y-134659000D01*
X146937840Y-134659000D01*
X146893562Y-134423683D01*
X146754490Y-134207559D01*
X146542290Y-134062569D01*
X146290400Y-134011560D01*
X144590400Y-134011560D01*
X144355083Y-134055838D01*
X144138959Y-134194910D01*
X143993969Y-134407110D01*
X143942960Y-134659000D01*
X138415797Y-134659000D01*
X137574397Y-130429000D01*
X138079634Y-127889000D01*
X143926307Y-127889000D01*
X144039346Y-128457285D01*
X144361253Y-128939054D01*
X144843022Y-129260961D01*
X145411307Y-129374000D01*
X145469493Y-129374000D01*
X146037778Y-129260961D01*
X146519547Y-128939054D01*
X146841454Y-128457285D01*
X146954493Y-127889000D01*
X146841454Y-127320715D01*
X146519547Y-126838946D01*
X146477948Y-126811150D01*
X146525717Y-126802162D01*
X146741841Y-126663090D01*
X146886831Y-126450890D01*
X146937840Y-126199000D01*
X146937840Y-124499000D01*
X146893562Y-124263683D01*
X146754490Y-124047559D01*
X146542290Y-123902569D01*
X146290400Y-123851560D01*
X144590400Y-123851560D01*
X144355083Y-123895838D01*
X144138959Y-124034910D01*
X143993969Y-124247110D01*
X143942960Y-124499000D01*
X143942960Y-126199000D01*
X143987238Y-126434317D01*
X144126310Y-126650441D01*
X144338510Y-126795431D01*
X144405941Y-126809086D01*
X144361253Y-126838946D01*
X144039346Y-127320715D01*
X143926307Y-127889000D01*
X138079634Y-127889000D01*
X139025817Y-123132221D01*
X143146132Y-116965733D01*
X143164440Y-116942749D01*
X146372396Y-114799261D01*
X149034258Y-114799261D01*
X149246490Y-115312903D01*
X149639130Y-115706229D01*
X149847012Y-115792549D01*
X149641197Y-115877590D01*
X149247871Y-116270230D01*
X149034743Y-116783500D01*
X149034258Y-117339261D01*
X149246490Y-117852903D01*
X149639130Y-118246229D01*
X149847012Y-118332549D01*
X149641197Y-118417590D01*
X149247871Y-118810230D01*
X149034743Y-119323500D01*
X149034258Y-119879261D01*
X149246490Y-120392903D01*
X149639130Y-120786229D01*
X149847012Y-120872549D01*
X149641197Y-120957590D01*
X149247871Y-121350230D01*
X149034743Y-121863500D01*
X149034258Y-122419261D01*
X149246490Y-122932903D01*
X149639130Y-123326229D01*
X149847012Y-123412549D01*
X149641197Y-123497590D01*
X149247871Y-123890230D01*
X149034743Y-124403500D01*
X149034258Y-124959261D01*
X149246490Y-125472903D01*
X149639130Y-125866229D01*
X150152400Y-126079357D01*
X150708161Y-126079842D01*
X151221803Y-125867610D01*
X151615129Y-125474970D01*
X151828257Y-124961700D01*
X151828742Y-124405939D01*
X151648203Y-123969000D01*
X154522960Y-123969000D01*
X154522960Y-125269000D01*
X154567238Y-125504317D01*
X154706310Y-125720441D01*
X154918510Y-125865431D01*
X155170400Y-125916440D01*
X158570400Y-125916440D01*
X158805717Y-125872162D01*
X159021841Y-125733090D01*
X159166831Y-125520890D01*
X159217840Y-125269000D01*
X159217840Y-123969000D01*
X159173562Y-123733683D01*
X159034490Y-123517559D01*
X158822290Y-123372569D01*
X158570400Y-123321560D01*
X155170400Y-123321560D01*
X154935083Y-123365838D01*
X154718959Y-123504910D01*
X154573969Y-123717110D01*
X154522960Y-123969000D01*
X151648203Y-123969000D01*
X151616510Y-123892297D01*
X151223870Y-123498971D01*
X151015988Y-123412651D01*
X151221803Y-123327610D01*
X151615129Y-122934970D01*
X151828257Y-122421700D01*
X151828742Y-121865939D01*
X151616510Y-121352297D01*
X151223870Y-120958971D01*
X151015988Y-120872651D01*
X151221803Y-120787610D01*
X151615129Y-120394970D01*
X151828257Y-119881700D01*
X151828742Y-119325939D01*
X151616510Y-118812297D01*
X151223870Y-118418971D01*
X151015988Y-118332651D01*
X151221803Y-118247610D01*
X151615129Y-117854970D01*
X151828257Y-117341700D01*
X151828259Y-117339261D01*
X161734258Y-117339261D01*
X161946490Y-117852903D01*
X162339130Y-118246229D01*
X162547012Y-118332549D01*
X162341197Y-118417590D01*
X161947871Y-118810230D01*
X161734743Y-119323500D01*
X161734258Y-119879261D01*
X161946490Y-120392903D01*
X162339130Y-120786229D01*
X162547012Y-120872549D01*
X162341197Y-120957590D01*
X161947871Y-121350230D01*
X161734743Y-121863500D01*
X161734258Y-122419261D01*
X161946490Y-122932903D01*
X162339130Y-123326229D01*
X162547012Y-123412549D01*
X162341197Y-123497590D01*
X161947871Y-123890230D01*
X161734743Y-124403500D01*
X161734258Y-124959261D01*
X161946490Y-125472903D01*
X162339130Y-125866229D01*
X162852400Y-126079357D01*
X163408161Y-126079842D01*
X163921803Y-125867610D01*
X164315129Y-125474970D01*
X164528257Y-124961700D01*
X164528742Y-124405939D01*
X164316510Y-123892297D01*
X163923870Y-123498971D01*
X163715988Y-123412651D01*
X163921803Y-123327610D01*
X164315129Y-122934970D01*
X164528257Y-122421700D01*
X164528742Y-121865939D01*
X164316510Y-121352297D01*
X163923870Y-120958971D01*
X163715988Y-120872651D01*
X163921803Y-120787610D01*
X164315129Y-120394970D01*
X164328570Y-120362600D01*
X164702998Y-120362600D01*
X164873400Y-120533002D01*
X164873400Y-125755400D01*
X164931252Y-126046239D01*
X165095999Y-126292801D01*
X166706790Y-127903592D01*
X166633907Y-128270000D01*
X166746946Y-128838285D01*
X167068853Y-129320054D01*
X167550622Y-129641961D01*
X168118907Y-129755000D01*
X168177093Y-129755000D01*
X168745378Y-129641961D01*
X169227147Y-129320054D01*
X169549054Y-128838285D01*
X169662093Y-128270000D01*
X169549054Y-127701715D01*
X169227147Y-127219946D01*
X168886447Y-126992298D01*
X169029358Y-126925183D01*
X169419645Y-126496924D01*
X169589476Y-126086890D01*
X169468155Y-125857000D01*
X168275000Y-125857000D01*
X168275000Y-125877000D01*
X168021000Y-125877000D01*
X168021000Y-125857000D01*
X168001000Y-125857000D01*
X168001000Y-125603000D01*
X168021000Y-125603000D01*
X168021000Y-125583000D01*
X168275000Y-125583000D01*
X168275000Y-125603000D01*
X169468155Y-125603000D01*
X169589476Y-125373110D01*
X169419645Y-124963076D01*
X169143499Y-124660063D01*
X169233317Y-124643162D01*
X169449441Y-124504090D01*
X169594431Y-124291890D01*
X169645440Y-124040000D01*
X169645440Y-122340000D01*
X169601162Y-122104683D01*
X169462090Y-121888559D01*
X169249890Y-121743569D01*
X168998000Y-121692560D01*
X167298000Y-121692560D01*
X167062683Y-121736838D01*
X166846559Y-121875910D01*
X166701569Y-122088110D01*
X166650560Y-122340000D01*
X166650560Y-124040000D01*
X166694838Y-124275317D01*
X166833910Y-124491441D01*
X167046110Y-124636431D01*
X167154107Y-124658301D01*
X166876355Y-124963076D01*
X166706524Y-125373110D01*
X166827844Y-125602998D01*
X166663000Y-125602998D01*
X166663000Y-125710198D01*
X166393400Y-125440598D01*
X166393400Y-120218200D01*
X166335548Y-119927361D01*
X166170801Y-119680799D01*
X165555201Y-119065199D01*
X165308639Y-118900452D01*
X165017800Y-118842600D01*
X164329031Y-118842600D01*
X164316510Y-118812297D01*
X163923870Y-118418971D01*
X163715988Y-118332651D01*
X163921803Y-118247610D01*
X164315129Y-117854970D01*
X164528257Y-117341700D01*
X164528742Y-116785939D01*
X164316510Y-116272297D01*
X163923870Y-115878971D01*
X163731773Y-115799205D01*
X163862643Y-115744997D01*
X163932108Y-115502813D01*
X163131500Y-114702205D01*
X162330892Y-115502813D01*
X162400357Y-115744997D01*
X162540818Y-115795109D01*
X162341197Y-115877590D01*
X161947871Y-116270230D01*
X161734743Y-116783500D01*
X161734258Y-117339261D01*
X151828259Y-117339261D01*
X151828742Y-116785939D01*
X151616510Y-116272297D01*
X151223870Y-115878971D01*
X151015988Y-115792651D01*
X151221803Y-115707610D01*
X151615129Y-115314970D01*
X151634217Y-115269000D01*
X154522960Y-115269000D01*
X154522960Y-116569000D01*
X154567238Y-116804317D01*
X154706310Y-117020441D01*
X154918510Y-117165431D01*
X155170400Y-117216440D01*
X158570400Y-117216440D01*
X158805717Y-117172162D01*
X159021841Y-117033090D01*
X159166831Y-116820890D01*
X159217840Y-116569000D01*
X159217840Y-115269000D01*
X159173562Y-115033683D01*
X159034490Y-114817559D01*
X158822290Y-114672569D01*
X158570400Y-114621560D01*
X157630400Y-114621560D01*
X157630400Y-114406840D01*
X158595800Y-114406840D01*
X158831117Y-114362562D01*
X158905182Y-114314902D01*
X161722356Y-114314902D01*
X161750138Y-114869968D01*
X161909103Y-115253743D01*
X162151287Y-115323208D01*
X162951895Y-114522600D01*
X163311105Y-114522600D01*
X164111713Y-115323208D01*
X164353897Y-115253743D01*
X164540644Y-114730298D01*
X164512862Y-114175232D01*
X164353897Y-113791457D01*
X164111713Y-113721992D01*
X163311105Y-114522600D01*
X162951895Y-114522600D01*
X162151287Y-113721992D01*
X161909103Y-113791457D01*
X161722356Y-114314902D01*
X158905182Y-114314902D01*
X159047241Y-114223490D01*
X159192231Y-114011290D01*
X159243240Y-113759400D01*
X159243240Y-113542387D01*
X162330892Y-113542387D01*
X163131500Y-114342995D01*
X163932108Y-113542387D01*
X163862643Y-113300203D01*
X163339198Y-113113456D01*
X162784132Y-113141238D01*
X162400357Y-113300203D01*
X162330892Y-113542387D01*
X159243240Y-113542387D01*
X159243240Y-112859400D01*
X159198962Y-112624083D01*
X159059890Y-112407959D01*
X158847690Y-112262969D01*
X158595800Y-112211960D01*
X157395800Y-112211960D01*
X157160483Y-112256238D01*
X156944359Y-112395310D01*
X156896666Y-112465111D01*
X156859890Y-112407959D01*
X156647690Y-112262969D01*
X156395800Y-112211960D01*
X155195800Y-112211960D01*
X154960483Y-112256238D01*
X154744359Y-112395310D01*
X154599369Y-112607510D01*
X154548360Y-112859400D01*
X154548360Y-113759400D01*
X154592638Y-113994717D01*
X154731710Y-114210841D01*
X154943910Y-114355831D01*
X155195800Y-114406840D01*
X156110400Y-114406840D01*
X156110400Y-114621560D01*
X155170400Y-114621560D01*
X154935083Y-114665838D01*
X154718959Y-114804910D01*
X154573969Y-115017110D01*
X154522960Y-115269000D01*
X151634217Y-115269000D01*
X151828257Y-114801700D01*
X151828742Y-114245939D01*
X151616510Y-113732297D01*
X151223870Y-113338971D01*
X150710600Y-113125843D01*
X150154839Y-113125358D01*
X149641197Y-113337590D01*
X149247871Y-113730230D01*
X149034743Y-114243500D01*
X149034258Y-114799261D01*
X146372396Y-114799261D01*
X149345021Y-112813017D01*
X156641800Y-111361597D01*
X163938579Y-112813017D01*
X163938579Y-112813017D01*
G37*
X163938579Y-112813017D02*
X170124490Y-116946310D01*
X174257783Y-123132221D01*
X175709203Y-130429000D01*
X174257783Y-137725779D01*
X170124490Y-143911690D01*
X163938579Y-148044983D01*
X156641800Y-149496403D01*
X149345021Y-148044983D01*
X143897401Y-144405000D01*
X151946760Y-144405000D01*
X151946760Y-147405000D01*
X151991038Y-147640317D01*
X152130110Y-147856441D01*
X152342310Y-148001431D01*
X152594200Y-148052440D01*
X154194200Y-148052440D01*
X154429517Y-148008162D01*
X154645641Y-147869090D01*
X154790631Y-147656890D01*
X154841640Y-147405000D01*
X154841640Y-146864319D01*
X155042310Y-147001431D01*
X155294200Y-147052440D01*
X156294200Y-147052440D01*
X156529517Y-147008162D01*
X156745641Y-146869090D01*
X156792169Y-146800994D01*
X156934502Y-146943327D01*
X157167891Y-147040000D01*
X157508450Y-147040000D01*
X157667200Y-146881250D01*
X157667200Y-143782000D01*
X157921200Y-143782000D01*
X157921200Y-146881250D01*
X158079950Y-147040000D01*
X158420509Y-147040000D01*
X158653898Y-146943327D01*
X158746760Y-146850466D01*
X158746760Y-147405000D01*
X158791038Y-147640317D01*
X158930110Y-147856441D01*
X159142310Y-148001431D01*
X159394200Y-148052440D01*
X160994200Y-148052440D01*
X161229517Y-148008162D01*
X161445641Y-147869090D01*
X161590631Y-147656890D01*
X161641640Y-147405000D01*
X161641640Y-144405000D01*
X161597362Y-144169683D01*
X161458290Y-143953559D01*
X161246090Y-143808569D01*
X160994200Y-143757560D01*
X159394200Y-143757560D01*
X159158883Y-143801838D01*
X158942759Y-143940910D01*
X158929200Y-143960754D01*
X158929200Y-143940750D01*
X158770450Y-143782000D01*
X157921200Y-143782000D01*
X157667200Y-143782000D01*
X157647200Y-143782000D01*
X157647200Y-143528000D01*
X157667200Y-143528000D01*
X157667200Y-140428750D01*
X157921200Y-140428750D01*
X157921200Y-143528000D01*
X158770450Y-143528000D01*
X158929200Y-143369250D01*
X158929200Y-140778690D01*
X158850628Y-140589000D01*
X166786307Y-140589000D01*
X166899346Y-141157285D01*
X167221253Y-141639054D01*
X167703022Y-141960961D01*
X168271307Y-142074000D01*
X168329493Y-142074000D01*
X168897778Y-141960961D01*
X169379547Y-141639054D01*
X169701454Y-141157285D01*
X169814493Y-140589000D01*
X169701454Y-140020715D01*
X169379547Y-139538946D01*
X169038847Y-139311298D01*
X169181758Y-139244183D01*
X169572045Y-138815924D01*
X169741876Y-138405890D01*
X169620555Y-138176000D01*
X168427400Y-138176000D01*
X168427400Y-138196000D01*
X168173400Y-138196000D01*
X168173400Y-138176000D01*
X166980245Y-138176000D01*
X166858924Y-138405890D01*
X167028755Y-138815924D01*
X167419042Y-139244183D01*
X167561953Y-139311298D01*
X167221253Y-139538946D01*
X166899346Y-140020715D01*
X166786307Y-140589000D01*
X158850628Y-140589000D01*
X158832527Y-140545301D01*
X158653898Y-140366673D01*
X158420509Y-140270000D01*
X158079950Y-140270000D01*
X157921200Y-140428750D01*
X157667200Y-140428750D01*
X157508450Y-140270000D01*
X157167891Y-140270000D01*
X156934502Y-140366673D01*
X156793264Y-140507910D01*
X156758290Y-140453559D01*
X156546090Y-140308569D01*
X156294200Y-140257560D01*
X155294200Y-140257560D01*
X155058883Y-140301838D01*
X154842759Y-140440910D01*
X154697769Y-140653110D01*
X154646760Y-140905000D01*
X154646760Y-143945681D01*
X154446090Y-143808569D01*
X154194200Y-143757560D01*
X152594200Y-143757560D01*
X152358883Y-143801838D01*
X152142759Y-143940910D01*
X151997769Y-144153110D01*
X151946760Y-144405000D01*
X143897401Y-144405000D01*
X143159110Y-143911690D01*
X140938960Y-140589000D01*
X143926307Y-140589000D01*
X144039346Y-141157285D01*
X144361253Y-141639054D01*
X144843022Y-141960961D01*
X145411307Y-142074000D01*
X145469493Y-142074000D01*
X146037778Y-141960961D01*
X146519547Y-141639054D01*
X146841454Y-141157285D01*
X146954493Y-140589000D01*
X146841454Y-140020715D01*
X146519547Y-139538946D01*
X146178847Y-139311298D01*
X146321758Y-139244183D01*
X146712045Y-138815924D01*
X146881876Y-138405890D01*
X146760555Y-138176000D01*
X145567400Y-138176000D01*
X145567400Y-138196000D01*
X145313400Y-138196000D01*
X145313400Y-138176000D01*
X144120245Y-138176000D01*
X143998924Y-138405890D01*
X144168755Y-138815924D01*
X144559042Y-139244183D01*
X144701953Y-139311298D01*
X144361253Y-139538946D01*
X144039346Y-140020715D01*
X143926307Y-140589000D01*
X140938960Y-140589000D01*
X139025817Y-137725779D01*
X138415797Y-134659000D01*
X143942960Y-134659000D01*
X143942960Y-136359000D01*
X143987238Y-136594317D01*
X144126310Y-136810441D01*
X144338510Y-136955431D01*
X144446507Y-136977301D01*
X144168755Y-137282076D01*
X143998924Y-137692110D01*
X144120245Y-137922000D01*
X145313400Y-137922000D01*
X145313400Y-137902000D01*
X145567400Y-137902000D01*
X145567400Y-137922000D01*
X146760555Y-137922000D01*
X146881876Y-137692110D01*
X146712045Y-137282076D01*
X146435899Y-136979063D01*
X146525717Y-136962162D01*
X146741841Y-136823090D01*
X146886831Y-136610890D01*
X146937840Y-136359000D01*
X146937840Y-134659000D01*
X166802960Y-134659000D01*
X166802960Y-136359000D01*
X166847238Y-136594317D01*
X166986310Y-136810441D01*
X167198510Y-136955431D01*
X167306507Y-136977301D01*
X167028755Y-137282076D01*
X166858924Y-137692110D01*
X166980245Y-137922000D01*
X168173400Y-137922000D01*
X168173400Y-137902000D01*
X168427400Y-137902000D01*
X168427400Y-137922000D01*
X169620555Y-137922000D01*
X169741876Y-137692110D01*
X169572045Y-137282076D01*
X169295899Y-136979063D01*
X169385717Y-136962162D01*
X169601841Y-136823090D01*
X169746831Y-136610890D01*
X169797840Y-136359000D01*
X169797840Y-134659000D01*
X169753562Y-134423683D01*
X169614490Y-134207559D01*
X169402290Y-134062569D01*
X169150400Y-134011560D01*
X167450400Y-134011560D01*
X167215083Y-134055838D01*
X166998959Y-134194910D01*
X166853969Y-134407110D01*
X166802960Y-134659000D01*
X146937840Y-134659000D01*
X146893562Y-134423683D01*
X146754490Y-134207559D01*
X146542290Y-134062569D01*
X146290400Y-134011560D01*
X144590400Y-134011560D01*
X144355083Y-134055838D01*
X144138959Y-134194910D01*
X143993969Y-134407110D01*
X143942960Y-134659000D01*
X138415797Y-134659000D01*
X137574397Y-130429000D01*
X138079634Y-127889000D01*
X143926307Y-127889000D01*
X144039346Y-128457285D01*
X144361253Y-128939054D01*
X144843022Y-129260961D01*
X145411307Y-129374000D01*
X145469493Y-129374000D01*
X146037778Y-129260961D01*
X146519547Y-128939054D01*
X146841454Y-128457285D01*
X146954493Y-127889000D01*
X146841454Y-127320715D01*
X146519547Y-126838946D01*
X146477948Y-126811150D01*
X146525717Y-126802162D01*
X146741841Y-126663090D01*
X146886831Y-126450890D01*
X146937840Y-126199000D01*
X146937840Y-124499000D01*
X146893562Y-124263683D01*
X146754490Y-124047559D01*
X146542290Y-123902569D01*
X146290400Y-123851560D01*
X144590400Y-123851560D01*
X144355083Y-123895838D01*
X144138959Y-124034910D01*
X143993969Y-124247110D01*
X143942960Y-124499000D01*
X143942960Y-126199000D01*
X143987238Y-126434317D01*
X144126310Y-126650441D01*
X144338510Y-126795431D01*
X144405941Y-126809086D01*
X144361253Y-126838946D01*
X144039346Y-127320715D01*
X143926307Y-127889000D01*
X138079634Y-127889000D01*
X139025817Y-123132221D01*
X143146132Y-116965733D01*
X143164440Y-116942749D01*
X146372396Y-114799261D01*
X149034258Y-114799261D01*
X149246490Y-115312903D01*
X149639130Y-115706229D01*
X149847012Y-115792549D01*
X149641197Y-115877590D01*
X149247871Y-116270230D01*
X149034743Y-116783500D01*
X149034258Y-117339261D01*
X149246490Y-117852903D01*
X149639130Y-118246229D01*
X149847012Y-118332549D01*
X149641197Y-118417590D01*
X149247871Y-118810230D01*
X149034743Y-119323500D01*
X149034258Y-119879261D01*
X149246490Y-120392903D01*
X149639130Y-120786229D01*
X149847012Y-120872549D01*
X149641197Y-120957590D01*
X149247871Y-121350230D01*
X149034743Y-121863500D01*
X149034258Y-122419261D01*
X149246490Y-122932903D01*
X149639130Y-123326229D01*
X149847012Y-123412549D01*
X149641197Y-123497590D01*
X149247871Y-123890230D01*
X149034743Y-124403500D01*
X149034258Y-124959261D01*
X149246490Y-125472903D01*
X149639130Y-125866229D01*
X150152400Y-126079357D01*
X150708161Y-126079842D01*
X151221803Y-125867610D01*
X151615129Y-125474970D01*
X151828257Y-124961700D01*
X151828742Y-124405939D01*
X151648203Y-123969000D01*
X154522960Y-123969000D01*
X154522960Y-125269000D01*
X154567238Y-125504317D01*
X154706310Y-125720441D01*
X154918510Y-125865431D01*
X155170400Y-125916440D01*
X158570400Y-125916440D01*
X158805717Y-125872162D01*
X159021841Y-125733090D01*
X159166831Y-125520890D01*
X159217840Y-125269000D01*
X159217840Y-123969000D01*
X159173562Y-123733683D01*
X159034490Y-123517559D01*
X158822290Y-123372569D01*
X158570400Y-123321560D01*
X155170400Y-123321560D01*
X154935083Y-123365838D01*
X154718959Y-123504910D01*
X154573969Y-123717110D01*
X154522960Y-123969000D01*
X151648203Y-123969000D01*
X151616510Y-123892297D01*
X151223870Y-123498971D01*
X151015988Y-123412651D01*
X151221803Y-123327610D01*
X151615129Y-122934970D01*
X151828257Y-122421700D01*
X151828742Y-121865939D01*
X151616510Y-121352297D01*
X151223870Y-120958971D01*
X151015988Y-120872651D01*
X151221803Y-120787610D01*
X151615129Y-120394970D01*
X151828257Y-119881700D01*
X151828742Y-119325939D01*
X151616510Y-118812297D01*
X151223870Y-118418971D01*
X151015988Y-118332651D01*
X151221803Y-118247610D01*
X151615129Y-117854970D01*
X151828257Y-117341700D01*
X151828259Y-117339261D01*
X161734258Y-117339261D01*
X161946490Y-117852903D01*
X162339130Y-118246229D01*
X162547012Y-118332549D01*
X162341197Y-118417590D01*
X161947871Y-118810230D01*
X161734743Y-119323500D01*
X161734258Y-119879261D01*
X161946490Y-120392903D01*
X162339130Y-120786229D01*
X162547012Y-120872549D01*
X162341197Y-120957590D01*
X161947871Y-121350230D01*
X161734743Y-121863500D01*
X161734258Y-122419261D01*
X161946490Y-122932903D01*
X162339130Y-123326229D01*
X162547012Y-123412549D01*
X162341197Y-123497590D01*
X161947871Y-123890230D01*
X161734743Y-124403500D01*
X161734258Y-124959261D01*
X161946490Y-125472903D01*
X162339130Y-125866229D01*
X162852400Y-126079357D01*
X163408161Y-126079842D01*
X163921803Y-125867610D01*
X164315129Y-125474970D01*
X164528257Y-124961700D01*
X164528742Y-124405939D01*
X164316510Y-123892297D01*
X163923870Y-123498971D01*
X163715988Y-123412651D01*
X163921803Y-123327610D01*
X164315129Y-122934970D01*
X164528257Y-122421700D01*
X164528742Y-121865939D01*
X164316510Y-121352297D01*
X163923870Y-120958971D01*
X163715988Y-120872651D01*
X163921803Y-120787610D01*
X164315129Y-120394970D01*
X164328570Y-120362600D01*
X164702998Y-120362600D01*
X164873400Y-120533002D01*
X164873400Y-125755400D01*
X164931252Y-126046239D01*
X165095999Y-126292801D01*
X166706790Y-127903592D01*
X166633907Y-128270000D01*
X166746946Y-128838285D01*
X167068853Y-129320054D01*
X167550622Y-129641961D01*
X168118907Y-129755000D01*
X168177093Y-129755000D01*
X168745378Y-129641961D01*
X169227147Y-129320054D01*
X169549054Y-128838285D01*
X169662093Y-128270000D01*
X169549054Y-127701715D01*
X169227147Y-127219946D01*
X168886447Y-126992298D01*
X169029358Y-126925183D01*
X169419645Y-126496924D01*
X169589476Y-126086890D01*
X169468155Y-125857000D01*
X168275000Y-125857000D01*
X168275000Y-125877000D01*
X168021000Y-125877000D01*
X168021000Y-125857000D01*
X168001000Y-125857000D01*
X168001000Y-125603000D01*
X168021000Y-125603000D01*
X168021000Y-125583000D01*
X168275000Y-125583000D01*
X168275000Y-125603000D01*
X169468155Y-125603000D01*
X169589476Y-125373110D01*
X169419645Y-124963076D01*
X169143499Y-124660063D01*
X169233317Y-124643162D01*
X169449441Y-124504090D01*
X169594431Y-124291890D01*
X169645440Y-124040000D01*
X169645440Y-122340000D01*
X169601162Y-122104683D01*
X169462090Y-121888559D01*
X169249890Y-121743569D01*
X168998000Y-121692560D01*
X167298000Y-121692560D01*
X167062683Y-121736838D01*
X166846559Y-121875910D01*
X166701569Y-122088110D01*
X166650560Y-122340000D01*
X166650560Y-124040000D01*
X166694838Y-124275317D01*
X166833910Y-124491441D01*
X167046110Y-124636431D01*
X167154107Y-124658301D01*
X166876355Y-124963076D01*
X166706524Y-125373110D01*
X166827844Y-125602998D01*
X166663000Y-125602998D01*
X166663000Y-125710198D01*
X166393400Y-125440598D01*
X166393400Y-120218200D01*
X166335548Y-119927361D01*
X166170801Y-119680799D01*
X165555201Y-119065199D01*
X165308639Y-118900452D01*
X165017800Y-118842600D01*
X164329031Y-118842600D01*
X164316510Y-118812297D01*
X163923870Y-118418971D01*
X163715988Y-118332651D01*
X163921803Y-118247610D01*
X164315129Y-117854970D01*
X164528257Y-117341700D01*
X164528742Y-116785939D01*
X164316510Y-116272297D01*
X163923870Y-115878971D01*
X163731773Y-115799205D01*
X163862643Y-115744997D01*
X163932108Y-115502813D01*
X163131500Y-114702205D01*
X162330892Y-115502813D01*
X162400357Y-115744997D01*
X162540818Y-115795109D01*
X162341197Y-115877590D01*
X161947871Y-116270230D01*
X161734743Y-116783500D01*
X161734258Y-117339261D01*
X151828259Y-117339261D01*
X151828742Y-116785939D01*
X151616510Y-116272297D01*
X151223870Y-115878971D01*
X151015988Y-115792651D01*
X151221803Y-115707610D01*
X151615129Y-115314970D01*
X151634217Y-115269000D01*
X154522960Y-115269000D01*
X154522960Y-116569000D01*
X154567238Y-116804317D01*
X154706310Y-117020441D01*
X154918510Y-117165431D01*
X155170400Y-117216440D01*
X158570400Y-117216440D01*
X158805717Y-117172162D01*
X159021841Y-117033090D01*
X159166831Y-116820890D01*
X159217840Y-116569000D01*
X159217840Y-115269000D01*
X159173562Y-115033683D01*
X159034490Y-114817559D01*
X158822290Y-114672569D01*
X158570400Y-114621560D01*
X157630400Y-114621560D01*
X157630400Y-114406840D01*
X158595800Y-114406840D01*
X158831117Y-114362562D01*
X158905182Y-114314902D01*
X161722356Y-114314902D01*
X161750138Y-114869968D01*
X161909103Y-115253743D01*
X162151287Y-115323208D01*
X162951895Y-114522600D01*
X163311105Y-114522600D01*
X164111713Y-115323208D01*
X164353897Y-115253743D01*
X164540644Y-114730298D01*
X164512862Y-114175232D01*
X164353897Y-113791457D01*
X164111713Y-113721992D01*
X163311105Y-114522600D01*
X162951895Y-114522600D01*
X162151287Y-113721992D01*
X161909103Y-113791457D01*
X161722356Y-114314902D01*
X158905182Y-114314902D01*
X159047241Y-114223490D01*
X159192231Y-114011290D01*
X159243240Y-113759400D01*
X159243240Y-113542387D01*
X162330892Y-113542387D01*
X163131500Y-114342995D01*
X163932108Y-113542387D01*
X163862643Y-113300203D01*
X163339198Y-113113456D01*
X162784132Y-113141238D01*
X162400357Y-113300203D01*
X162330892Y-113542387D01*
X159243240Y-113542387D01*
X159243240Y-112859400D01*
X159198962Y-112624083D01*
X159059890Y-112407959D01*
X158847690Y-112262969D01*
X158595800Y-112211960D01*
X157395800Y-112211960D01*
X157160483Y-112256238D01*
X156944359Y-112395310D01*
X156896666Y-112465111D01*
X156859890Y-112407959D01*
X156647690Y-112262969D01*
X156395800Y-112211960D01*
X155195800Y-112211960D01*
X154960483Y-112256238D01*
X154744359Y-112395310D01*
X154599369Y-112607510D01*
X154548360Y-112859400D01*
X154548360Y-113759400D01*
X154592638Y-113994717D01*
X154731710Y-114210841D01*
X154943910Y-114355831D01*
X155195800Y-114406840D01*
X156110400Y-114406840D01*
X156110400Y-114621560D01*
X155170400Y-114621560D01*
X154935083Y-114665838D01*
X154718959Y-114804910D01*
X154573969Y-115017110D01*
X154522960Y-115269000D01*
X151634217Y-115269000D01*
X151828257Y-114801700D01*
X151828742Y-114245939D01*
X151616510Y-113732297D01*
X151223870Y-113338971D01*
X150710600Y-113125843D01*
X150154839Y-113125358D01*
X149641197Y-113337590D01*
X149247871Y-113730230D01*
X149034743Y-114243500D01*
X149034258Y-114799261D01*
X146372396Y-114799261D01*
X149345021Y-112813017D01*
X156641800Y-111361597D01*
X163938579Y-112813017D01*
M02*
